<svg xmlns="http://www.w3.org/2000/svg" viewBox="0 0 600 450" width="600" height="450">
  <rect x="0" y="0" width="75" height="75" fill="#95E1D3"/><polygon points="50.475422160455686,3.236747681855576 19.81240277908505,56.34821312302873 81.13844154182632,56.34821312302873" fill="#FF6B6B" opacity="0.9714653731656564"/><circle cx="53.84487884065363" cy="35.878470549768984" r="21.881346260491455" fill="#95E1D3" opacity="0.9041501880642726"/><polygon points="50.0394827290622,-11.1727294767847 75.66073276697925,25.429056291668235 50.0394827290622,62.030842060121174 24.418232691145146,25.429056291668235" fill="#AA96DA" opacity="0.8335385323192638"/><rect x="0" y="0" width="75" height="6" fill="#95E1D3" opacity="0.6"/><rect x="75" y="0" width="75" height="75" fill="#A8D8EA"/><rect x="83.2813067010284" y="16.7436107665387" width="25.715144725150964" height="18.000601307605674" fill="#A8D8EA" opacity="0.899620428774329" rx="4" transform="rotate(39.499910492217126 96.13887906360388 25.74391142034154)"/><circle cx="133.05424245216616" cy="30.767751939486597" r="26.70807034497059" fill="#FF6B6B" opacity="0.8544486761812347"/><circle cx="117.64484973049017" cy="39.12460328271827" r="19.801747802901893" fill="#4ECDC4" opacity="0.9857509614367741"/><rect x="150" y="0" width="75" height="75" fill="#95E1D3"/><rect x="133.95781203182776" y="11.189957367286528" width="74.05928047912163" height="51.84149633538514" fill="#95E1D3" opacity="0.9768424512244958" rx="4" transform="rotate(7.07135439248353 170.98745227138858 37.1107055349791)"/><polygon points="204.92579163980008,23.444755831591216 214.90219560732467,37.6967614994835 204.92579163980008,51.948767167375784 194.9493876722755,37.6967614994835" fill="#FFE66D" opacity="0.8691779822898926"/><path d="M 188.46944690843554 -5.650682938006089L 196.92401821833553 11.480149641858828L 215.82901438789133 14.227206383650977L 202.14923064816344 27.56169991538369L 205.37858952823552 46.3903069307007L 188.46944690843554 37.500644576212224L 171.5603042886356 46.3903069307007L 174.78966316870765 27.56169991538369L 161.10987942897975 14.22720638365098L 180.01487559853555 11.48014964185883 Z" fill="#FFE66D" opacity="0.9651476265234629" transform="rotate(129.55133920980214 188.46944690843554 23.116868738139452)"/><rect x="150" y="0" width="75" height="6" fill="#FF6B6B" opacity="0.6"/><rect x="150" y="0" width="6" height="75" fill="#FF6B6B" opacity="0.6"/><rect x="225" y="0" width="75" height="75" fill="#A8D8EA"/><circle cx="280.77413680067946" cy="35.31317354194502" r="12.666927874748096" fill="#FF6B6B" opacity="0.9442516179030069"/><path d="M 256.70705617252133 37.937851415103225L 262.2692388055281 49.2080644125495L 274.70665727619996 51.015327104058L 265.70685672436065 59.78796448843914L 267.83142143853485 72.17512725583728L 256.70705617252133 66.32670233291653L 245.5826909065078 72.17512725583728L 247.70725562068202 59.78796448843914L 238.70745506884268 51.01532710405801L 251.14487353951458 49.2080644125495 Z" fill="#95E1D3" opacity="0.9041743637082047" transform="rotate(342.3149730369053 256.70705617252133 56.86375202697876)"/><path d="M 264.32798446357623 30.426959854865895L 269.54502542028166 40.99783943180764L 281.2106836408756 42.692958794695L 272.76933405222593 50.921241027114476L 274.76206637698715 62.53976198530868L 264.32798446357623 57.054240497029035L 253.89390255016534 62.53976198530868L 255.88663487492656 50.921241027114476L 247.44528528627686 42.69295879469501L 259.1109435068708 40.99783943180764 Z" fill="#95E1D3" opacity="0.8972136379206617" transform="rotate(199.22508725860396 264.32798446357623 48.178480282974654)"/><rect x="225" y="0" width="75" height="6" fill="#FF6B6B" opacity="0.6"/><rect x="300" y="0" width="75" height="75" fill="#95E1D3"/><circle cx="320.6846000280625" cy="54.77356286708897" r="14.960369469463064" fill="#F38181" opacity="0.9683266253528775"/><circle cx="331.7778356451438" cy="53.899315613740725" r="25.74042052705326" fill="#FFE66D" opacity="0.8070657015345365"/><path d="M 339.8786580678442 34.3875637793157L 344.53295895391904 43.81820743150206L 354.9402921229199 45.330481461582046L 347.40947509538205 52.67121380450164L 349.1872598399939 63.036494207581214L 339.8786580678442 58.14267264563481L 330.5700562956945 63.036494207581214L 332.3478410403063 52.67121380450164L 324.81702401276846 45.330481461582046L 335.22435718176934 43.81820743150206 Z" fill="#FFE66D" opacity="0.9682483048496061" transform="rotate(130.9275484694762 339.8786580678442 50.22430302352844)"/><rect x="300" y="0" width="6" height="75" fill="#FF6B6B" opacity="0.6"/><rect x="375" y="0" width="75" height="75" fill="#FF6B6B"/><circle cx="397.30299666864005" cy="24.276025597600277" r="23.030873207273366" fill="#A8D8EA" opacity="0.858109569623186"/><polygon points="391.6901350029233,14.257792537337075 364.23108996628486,61.81964883636434 419.1491800395617,61.81964883636434" fill="#F38181" opacity="0.9625311495096102"/><polygon points="404.3098801441071,9.107003959527702 426.4893087430924,40.7919019580781 404.3098801441071,72.4767999566285 382.13045154512184,40.7919019580781" fill="#FCBAD3" opacity="0.896225512119115"/><rect x="375" y="0" width="75" height="6" fill="#FFE66D" opacity="0.6"/><rect x="450" y="0" width="75" height="75" fill="#F38181"/><polygon points="503.22813035837754,4.440678768181556 486.5728490303994,33.28931848176956 519.8834116863557,33.28931848176956" fill="#FCBAD3" opacity="0.745174801370676"/><polygon points="488.03055168270623,-5.329243433232996 461.0791860609789,41.35326053049799 514.9819173044336,41.35326053049799" fill="#FFE66D" opacity="0.7833012938887352"/><polygon points="465.56183159377514,17.608532148347493 447.41349869809864,49.0432888960551 483.71016448945164,49.0432888960551" fill="#A8D8EA" opacity="0.8541367889168378"/><rect x="450" y="0" width="75" height="6" fill="#FF6B6B" opacity="0.6"/><rect x="450" y="0" width="6" height="75" fill="#FF6B6B" opacity="0.6"/><rect x="525" y="0" width="75" height="75" fill="#FF6B6B"/><rect x="547.2597433712845" y="38.43320959774229" width="51.69999451804906" height="36.18999616263434" fill="#95E1D3" opacity="0.72616587878492" rx="4" transform="rotate(33.68060188073693 573.109740630309 56.528207679059456)"/><circle cx="572.7310516092605" cy="28.88170302560632" r="13.108586222798836" fill="#FCBAD3" opacity="0.7005779713394948"/><path d="M 574.257956759193 38.367545322802634L 580.2383766995673 50.48519966630239L 593.6110022202395 52.42835589667403L 583.9344794897163 61.86063437525131L 586.2187966399416 75.17922531457185L 574.257956759193 68.89103966218701L 562.2971168784444 75.17922531457185L 564.5814340286697 61.86063437525131L 554.9049112981465 52.428355896674034L 568.2775368188187 50.48519966630239 Z" fill="#F38181" opacity="0.7308084249639922" transform="rotate(7.649327520117782 574.257956759193 58.71654154905888)"/><rect x="525" y="0" width="75" height="6" fill="#F38181" opacity="0.6"/><rect x="0" y="75" width="75" height="75" fill="#FCBAD3"/><path d="M 30.754442818348505 95.96832499709835L 40.29555648315042 115.30073285387432L 61.630135218699664 118.4008286075654L 46.192289018524086 133.44900950111952L 49.83667014795235 154.6973819020558L 30.7544428183485 144.66526130635305L 11.672215488744659 154.6973819020558L 15.316596618172918 133.44900950111952L -0.12124958200266889 118.4008286075654L 21.213329153546574 115.30073285387432 Z" fill="#4ECDC4" opacity="0.7148926615784376" transform="rotate(99.33671598291802 30.7544428183485 128.43294920326815)"/><path d="M 30.3524494242633 79.25215959572333L 37.88346128442574 94.51165633476569L 54.723315743106106 96.9586304206961L 42.537882583684706 108.83649214257285L 45.414473144588186 125.6083020363104L 30.3524494242633 117.68972755505924L 15.290425703938412 125.6083020363104L 18.167016264841894 108.83649214257285L 5.981583105420487 96.9586304206961L 22.821437564100854 94.5116563347657 Z" fill="#F38181" opacity="0.9496814728945873" transform="rotate(5.9168243435755485 30.3524494242633 104.87720490194727)"/><circle cx="44.79239122466761" cy="126.11593903792834" r="30.083563783594204" fill="#AA96DA" opacity="0.8365524411837348"/><rect x="75" y="75" width="75" height="75" fill="#FFE66D"/><circle cx="99.31567267017238" cy="99.1783395452324" r="18.386593427107012" fill="#FFE66D" opacity="0.9058548213009977"/><rect x="69.64269563131626" y="88.03030823446127" width="52.172297551144055" height="36.52060828580083" fill="#F38181" opacity="0.7520936846975673" rx="4" transform="rotate(0.7832117382358814 95.72884440688829 106.29061237736168)"/><path d="M 103.98722112830133 72.78237160017359L 111.42181496676417 87.84650408869699L 128.04607217466818 90.26215006030537L 116.01664665148475 101.98794192085276L 118.856408805227 118.54502572461692L 103.98722112830133 110.72783115091866L 89.11803345137565 118.54502572461692L 91.95779560511791 101.98794192085276L 79.92837008193447 90.26215006030537L 96.55262728983848 87.84650408869699 Z" fill="#F38181" opacity="0.962483048561254" transform="rotate(7.848272327263035 103.98722112830133 98.07934463400363)"/><rect x="75" y="75" width="75" height="6" fill="#FF6B6B" opacity="0.6"/><rect x="150" y="75" width="75" height="75" fill="#FCBAD3"/><circle cx="174.1642458779571" cy="110.54513365986996" r="16.308662074179697" fill="#FCBAD3" opacity="0.9492720158068798"/><rect x="173.58475349370147" y="71.94629708715776" width="52.41326321378036" height="36.68928424964625" fill="#F38181" opacity="0.9641901136674872" rx="4" transform="rotate(11.18982732817057 199.79138510059164 90.29093921198088)"/><rect x="179.4789943218832" y="104.99918086401847" width="41.19287610924471" height="28.835013276471294" fill="#FF6B6B" opacity="0.9848144055739112" rx="4" transform="rotate(30.01046420541148 200.07543237650555 119.41668750225412)"/><rect x="150" y="75" width="6" height="75" fill="#FCBAD3" opacity="0.6"/><rect x="225" y="75" width="75" height="75" fill="#FFE66D"/><circle cx="249.0128190857418" cy="121.91192777450752" r="14.230729938941415" fill="#FFE66D" opacity="0.7264940828208318"/><path d="M 243.99166345782191 100.57453841987278L 248.6911316886528 110.09670110865261L 259.1994621108914 111.62365089867038L 251.59556278435664 119.03562087676016L 253.3905999194837 129.5014904348855L 243.99166345782191 124.56017711615897L 234.59272699616014 129.5014904348855L 236.38776413128718 119.03562087676016L 228.78386480475245 111.62365089867038L 239.29219522699103 110.09670110865261 Z" fill="#FFE66D" opacity="0.7334099978364119" transform="rotate(156.87731988582635 243.99166345782191 116.5649642173969)"/><rect x="239.20451671371913" y="105.84015021832434" width="70.15782060458223" height="49.110474423207556" fill="#F38181" opacity="0.7493843317261824" rx="4" transform="rotate(44.79064958393138 274.28342701601025 130.39538742992812)"/><rect x="300" y="75" width="75" height="75" fill="#FCBAD3"/><circle cx="323.8613921258884" cy="128.2875627457572" r="25.344949818260474" fill="#A8D8EA" opacity="0.8110591531317025"/><circle cx="336.14693955571715" cy="133.96098734995397" r="21.946362560007888" fill="#95E1D3" opacity="0.9487954856123754"/><rect x="310.20422905984066" y="105.4364339519811" width="33.77710640955581" height="23.643974486689068" fill="#95E1D3" opacity="0.7522140354161215" rx="4" transform="rotate(8.67463678525511 327.09278226461856 117.25842119532564)"/><rect x="300" y="75" width="75" height="6" fill="#F38181" opacity="0.6"/><rect x="375" y="75" width="75" height="75" fill="#95E1D3"/><polygon points="431.55634941605683,72.30868017466678 415.5329332962704,100.06286513965478 447.57976553584325,100.06286513965478" fill="#F38181" opacity="0.9348483921190949"/><path d="M 423.09533180347427 93.91276583781594L 429.7220743478371 107.34001281655021L 444.5399211464224 109.49317199107827L 433.8176264749483 119.94482617380345L 436.3488168922 134.70279870558474L 423.09533180347427 127.73502925043461L 409.84184671474856 134.70279870558474L 412.3730371320002 119.94482617380345L 401.65074246052615 109.49317199107827L 416.4685892591114 107.34001281655023 Z" fill="#FCBAD3" opacity="0.8715966106260179" transform="rotate(153.5569811582365 423.09533180347427 116.46094144622839)"/><path d="M 427.00605155760707 84.49858725338643L 432.16708419751274 94.95598158512672L 443.70750401443695 96.63290274273298L 435.356777786022 104.77284903111523L 437.3281168374184 116.26663763471001L 427.00605155760707 110.84000677578851L 416.6839862777957 116.26663763471001L 418.6553253291921 104.77284903111523L 410.3045991007772 96.63290274273298L 421.8450189177014 94.95598158512672 Z" fill="#95E1D3" opacity="0.8994062990878737" transform="rotate(228.0387068856688 427.00605155760707 102.05953360165448)"/><rect x="375" y="75" width="75" height="6" fill="#4ECDC4" opacity="0.6"/><rect x="375" y="75" width="6" height="75" fill="#4ECDC4" opacity="0.6"/><rect x="450" y="75" width="75" height="75" fill="#A8D8EA"/><polygon points="501.3341903855718,107.00553418521561 488.7470927680515,128.80766631717918 513.9212880030921,128.80766631717918" fill="#FF6B6B" opacity="0.9416723341875115"/><polygon points="477.4156558571456,115.27347119363188 461.4980872976038,142.84431742840417 493.3332244166875,142.84431742840417" fill="#4ECDC4" opacity="0.7400081873126365"/><rect x="448.3711815227853" y="75.3472306510537" width="50.162852046854255" height="35.113996432797975" fill="#FF6B6B" opacity="0.9838198782335128" rx="4" transform="rotate(2.8322786105947 473.45260754621245 92.9042288674527)"/><rect x="450" y="75" width="75" height="6" fill="#A8D8EA" opacity="0.6"/><rect x="450" y="75" width="6" height="75" fill="#A8D8EA" opacity="0.6"/><rect x="525" y="75" width="75" height="75" fill="#95E1D3"/><polygon points="581.2534958316262,99.19813022969669 568.8290560529434,120.71852245605248 593.677935610309,120.71852245605248" fill="#AA96DA" opacity="0.7211523026326448"/><polygon points="581.2320864392594,91.13748640398843 566.8949570820469,115.97085134142351 595.569215796472,115.97085134142351" fill="#AA96DA" opacity="0.8877621502558524"/><path d="M 571.370129599874 75.11018156835819L 580.1448110041844 92.88962804400383L 599.7655951051258 95.7406948604329L 585.5678623524999 109.58006389997051L 588.9194924084949 129.12156657236628L 571.370129599874 119.89532054600787L 553.8207667912532 129.12156657236628L 557.172396847248 109.58006389997051L 542.9746640946221 95.74069486043291L 562.5954481955636 92.88962804400383 Z" fill="#4ECDC4" opacity="0.7100064277695521" transform="rotate(103.86235361167338 571.370129599874 104.9669408867913)"/><rect x="0" y="150" width="75" height="75" fill="#4ECDC4"/><rect x="5.505781174523655" y="172.34077549689252" width="73.47272875298407" height="51.43091012708884" fill="#F38181" opacity="0.9827142716770592" rx="4" transform="rotate(19.414730081062174 42.24214555101569 198.05623056043694)"/><circle cx="35.293380180510404" cy="171.34629428682211" r="29.627170608554582" fill="#95E1D3" opacity="0.8950021029426726"/><polygon points="57.82070519533972,163.67890745863733 81.63848978037177,197.7043140086831 57.82070519533972,231.72972055872887 34.002920610307676,197.7043140086831" fill="#FFE66D" opacity="0.7839434862527732"/><rect x="75" y="150" width="75" height="75" fill="#AA96DA"/><circle cx="102.49246493563636" cy="177.68349588507948" r="21.49487838626135" fill="#F38181" opacity="0.9816693903327312"/><circle cx="122.01370553672952" cy="187.27148653113818" r="31.362682888336792" fill="#95E1D3" opacity="0.7119457006510094"/><path d="M 119.39135135588765 157.17037942419776L 123.8291742254914 166.16239070562807L 133.75244783402857 167.60432676435516L 126.57189959495811 174.60363142222866L 128.26699709509515 184.48680819755637L 119.39135135588765 179.82060509230735L 110.51570561668015 184.48680819755637L 112.21080311681719 174.60363142222866L 105.03025487774673 167.60432676435516L 114.9535284862839 166.16239070562807 Z" fill="#A8D8EA" opacity="0.7150993526052214" transform="rotate(98.08210735119978 119.39135135588765 172.27052986960416)"/><rect x="75" y="150" width="75" height="6" fill="#95E1D3" opacity="0.6"/><rect x="150" y="150" width="75" height="75" fill="#4ECDC4"/><path d="M 170.86068034444966 152.12462805135857L 177.04303546101931 164.65144775269698L 190.86720176271265 166.66021669917674L 180.86394105358116 176.41098599202547L 183.22539057758894 190.1792931778337L 170.86068034444966 183.67878031593457L 158.49597011131038 190.1792931778337L 160.85741963531817 176.41098599202547L 150.85415892618667 166.66021669917674L 164.67832522788 164.65144775269698 Z" fill="#A8D8EA" opacity="0.8435659707261091" transform="rotate(342.8560711549856 170.86068034444966 173.1607295610759)"/><polygon points="199.87185002997137,155.06391327889352 211.38269898225911,171.50798321073316 199.87185002997137,187.9520531425728 188.36100107768362,171.50798321073316" fill="#95E1D3" opacity="0.9652827562136961"/><path d="M 176.31410480072446 150.26473960211254L 180.7368203589486 159.2261401272443L 190.6263129922837 160.66316752294702L 183.47020889650406 167.6386450299823L 185.15953591717272 177.4881773284231L 176.31410480072446 172.83785899039955L 167.4686736842762 177.4881773284231L 169.15800070494487 167.6386450299823L 162.00189660916524 160.66316752294702L 171.89138924250034 159.2261401272443 Z" fill="#FFE66D" opacity="0.7323958635481055" transform="rotate(340.354653755368 176.31410480072446 165.31348586097056)"/><rect x="150" y="150" width="75" height="6" fill="#FFE66D" opacity="0.6"/><rect x="225" y="150" width="75" height="75" fill="#AA96DA"/><path d="M 252.1896100101013 173.19331348847751L 261.68072626693254 192.42441553163175L 282.9035073995606 195.50826614271256L 267.54655870483094 210.47759145758025L 271.1718425237638 231.61461799460955L 252.1896100101013 221.63506778469778L 233.20737749643874 231.61461799460955L 236.8326613153716 210.47759145758025L 221.47571262064193 195.50826614271256L 242.69849375327001 192.42441553163175 Z" fill="#AA96DA" opacity="0.7224952221021499" transform="rotate(141.39079219726418 252.1896100101013 205.48781635262435)"/><polygon points="263.171748529734,169.75481048971636 276.61600932327144,188.96089733762707 263.171748529734,208.16698418553779 249.72748773619648,188.96089733762707" fill="#F38181" opacity="0.7214314580063481"/><polygon points="265.14194370486865,184.53574688676082 247.99576010874392,214.23467921261195 282.2881273009934,214.23467921261195" fill="#95E1D3" opacity="0.7682705164273598"/><rect x="225" y="150" width="6" height="75" fill="#95E1D3" opacity="0.6"/><rect x="300" y="150" width="75" height="75" fill="#FFE66D"/><path d="M 321.9674509796162 165.84809527364473L 329.42307817075715 180.95484598964703L 346.0943673850441 183.37732611181832L 334.03090918233016 195.13629163605086L 336.8787053618981 211.740217404626L 321.9674509796162 203.90090705513765L 307.05619659733435 211.740217404626L 309.90399277690227 195.13629163605086L 297.8405345741883 183.37732611181832L 314.5118237884753 180.95484598964703 Z" fill="#4ECDC4" opacity="0.791320061726179" transform="rotate(170.7061673005606 321.9674509796162 191.21663646130668)"/><circle cx="331.1117412224932" cy="199.2372232834982" r="12.542768866425737" fill="#FCBAD3" opacity="0.8479773015472931"/><rect x="308.83980553834226" y="150.62937836419064" width="71.18487755241098" height="49.82941428668769" fill="#FFE66D" opacity="0.7858668446940681" rx="4" transform="rotate(17.374400504573433 344.43224431454775 175.54408550753448)"/><rect x="300" y="150" width="75" height="6" fill="#FF6B6B" opacity="0.6"/><rect x="375" y="150" width="75" height="75" fill="#FCBAD3"/><polygon points="434.7331416815208,153.6214060708282 421.14107847470956,177.16424072465824 448.32520488833205,177.16424072465824" fill="#A8D8EA" opacity="0.9006830752830408"/><polygon points="426.5257859400128,157.5442975777175 405.65740629782897,193.6904516923546 447.3941655821966,193.6904516923546" fill="#A8D8EA" opacity="0.8188115597324499"/><path d="M 400.0250458764029 180.91708393169895L 407.4801148328958 196.02270354075986L 424.15015579656244 198.44500228149892L 412.0876008364827 210.20308736176452L 414.93518378938876 226.80576992350822L 400.0250458764029 218.9670465366645L 385.114907963417 226.80576992350822L 387.9624909163231 210.20308736176452L 375.89993595624327 198.44500228149892L 392.56997691990995 196.02270354075986 Z" fill="#A8D8EA" opacity="0.9695508123699346" transform="rotate(136.61597735090925 400.0250458764029 206.28372566834264)"/><rect x="382.93550089196555" y="186.7511821974191" width="61.621725279428865" height="43.1352076956002" fill="#F38181" opacity="0.8225638986204582" rx="4" transform="rotate(37.699601071746834 413.74636353168 208.31878604521918)"/><rect x="450" y="150" width="75" height="75" fill="#FFE66D"/><rect x="495.9644231396794" y="171.15131906328085" width="27.234583499252135" height="19.064208449476492" fill="#95E1D3" opacity="0.9441002697889228" rx="4" transform="rotate(44.288490435242885 509.5817148893055 180.6834232880191)"/><polygon points="504.3431568328958,181.4588284621522 521.7387135256379,206.30962373749801 504.3431568328958,231.16041901284382 486.9476001401537,206.30962373749801" fill="#FCBAD3" opacity="0.896905899139543"/><path d="M 498.0891627227371 181.3298316428344L 505.58143383405815 196.51083105089515L 522.3346613448299 198.94521750448015L 510.2119120337835 210.76197757543872L 513.0737049453792 227.44751055356733L 498.0891627227371 219.56967050626162L 483.10462050009505 227.44751055356733L 485.9664134116907 210.76197757543872L 473.8436641006444 198.94521750448015L 490.5968916114161 196.51083105089515 Z" fill="#FF6B6B" opacity="0.9707199693986772" transform="rotate(21.914763460827416 498.0891627227371 206.82305755178587)"/><rect x="438.67615453196976" y="152.78001024371713" width="67.69216107446336" height="47.384512752124344" fill="#95E1D3" opacity="0.7396774530595529" rx="4" transform="rotate(17.0402146955208 472.52223506920143 176.4722666197793)"/><rect x="450" y="150" width="6" height="75" fill="#4ECDC4" opacity="0.6"/><rect x="525" y="150" width="75" height="75" fill="#FCBAD3"/><rect x="572.8909269180805" y="183.97266457734983" width="23.078722358019427" height="16.1551056506136" fill="#A8D8EA" opacity="0.9537125905294495" rx="4" transform="rotate(10.097712283068203 584.4302880970902 192.05021740265664)"/><polygon points="559.0771848052168,173.0768255979413 531.9198899369233,220.1160199425607 586.2344796735104,220.1160199425607" fill="#FFE66D" opacity="0.9528014541849501"/><rect x="561.7681159232827" y="174.14276415902086" width="46.30941511309212" height="32.416590579164485" fill="#AA96DA" opacity="0.8834060192962204" rx="4" transform="rotate(3.5849118249420595 584.9228234798288 190.3510594486031)"/><circle cx="565.8718760432079" cy="172.13580251072338" r="18.381804119391276" fill="#FCBAD3" opacity="0.8592850566652068"/><rect x="525" y="150" width="6" height="75" fill="#95E1D3" opacity="0.6"/><rect x="0" y="225" width="75" height="75" fill="#F38181"/><polygon points="42.17875958754623,237.34164834422606 62.296475548027765,266.0812425734854 42.17875958754623,294.82083680274474 22.0610436270647,266.0812425734854" fill="#FCBAD3" opacity="0.9498808861942407"/><circle cx="47.51966135228037" cy="277.7682656225601" r="15.506544562176122" fill="#AA96DA" opacity="0.8936693401046419"/><polygon points="46.888815179415424,216.6918398011205 23.1654148700032,257.7831798289708 70.61221548882764,257.7831798289708" fill="#AA96DA" opacity="0.8725167156069151"/><rect x="0" y="225" width="75" height="6" fill="#FF6B6B" opacity="0.6"/><rect x="75" y="225" width="75" height="75" fill="#FF6B6B"/><rect x="86.75742388144481" y="267.2858998939213" width="49.193301213296735" height="34.43531084930771" fill="#AA96DA" opacity="0.7830486297994147" rx="4" transform="rotate(17.601213463396398 111.35407448809318 284.50355531857514)"/><path d="M 132.99413683032344 231.69522285598575L 143.01287035804637 251.99539425849434L 165.41543957449116 255.25067811296051L 149.2047882024073 271.0521578716256L 153.03160388576933 293.3642053392231L 132.99413683032344 282.829885500113L 112.95666977487755 293.3642053392231L 116.78348545823958 271.0521578716256L 100.57283408615572 255.25067811296051L 122.9754033026005 251.99539425849434 Z" fill="#AA96DA" opacity="0.9190233231610727" transform="rotate(7.510528567950487 132.99413683032344 265.78499795207057)"/><rect x="81.06004491555973" y="259.1896002567674" width="31.279024783884648" height="21.895317348719253" fill="#FFE66D" opacity="0.7470778197269318" rx="4" transform="rotate(36.87616022158235 96.69955730750205 270.137258931127)"/><circle cx="111.51285857963975" cy="265.1070723054498" r="33.696529279670926" fill="#FF6B6B" opacity="0.7819590092086973"/><rect x="75" y="225" width="75" height="6" fill="#FFE66D" opacity="0.6"/><rect x="75" y="225" width="6" height="75" fill="#FFE66D" opacity="0.6"/><rect x="150" y="225" width="75" height="75" fill="#F38181"/><path d="M 180.51782906778055 241.06131479717388L 189.7945105665084 259.85792456322446L 210.5378010032785 262.8721010978406L 195.52781503552953 277.5032213411441L 199.07119206523626 298.1626946536798L 180.51782906778055 288.40861449147746L 161.96446607032485 298.1626946536798L 165.50784310003158 277.5032213411441L 150.4978571322826 262.8721010978406L 171.2411475690527 259.85792456322446 Z" fill="#95E1D3" opacity="0.9454431892584279" transform="rotate(242.3671961959299 180.51782906778055 272.6261812600429)"/><polygon points="173.74683916976062,249.086738983326 142.7329332567544,302.8059755531982 204.76074508276685,302.8059755531982" fill="#FCBAD3" opacity="0.7813928127667833"/><circle cx="184.43809865947725" cy="279.55891372615423" r="24.155239468861943" fill="#FFE66D" opacity="0.8443825245575898"/><rect x="160.44615090205156" y="256.73429722739814" width="74.60453870338598" height="52.223177092370186" fill="#F38181" opacity="0.949169206735291" rx="4" transform="rotate(13.336951738846 197.74842025374454 282.84588577358323)"/><rect x="150" y="225" width="75" height="6" fill="#95E1D3" opacity="0.6"/><rect x="150" y="225" width="6" height="75" fill="#95E1D3" opacity="0.6"/><rect x="225" y="225" width="75" height="75" fill="#4ECDC4"/><rect x="229.31591838624607" y="234.95169858766099" width="63.47060771704214" height="44.4294254019295" fill="#FCBAD3" opacity="0.7806720853227526" rx="4" transform="rotate(38.72182311430659 261.05122224476713 257.16641128862574)"/><polygon points="252.70497501488074,248.79663662055813 267.3629756213575,269.73663748695355 252.70497501488074,290.67663835334895 238.04697440840394,269.73663748695355" fill="#A8D8EA" opacity="0.9017298341736801"/><path d="M 250.44870079050247 235.11793479619917L 256.9954888668885 248.38317632785424L 271.63455203997273 250.51035672093482L 261.0416264152376 260.8359072495549L 263.5422769432745 275.4158185643362L 250.44870079050247 268.53211821192275L 237.35512463773043 275.4158185643362L 239.85577516576734 260.8359072495549L 229.2628495410322 250.51035672093482L 243.90191271411646 248.38317632785424 Z" fill="#FFE66D" opacity="0.918883633715512" transform="rotate(208.3065320031282 250.44870079050247 257.3940570733482)"/><polygon points="249.0514361900517,203.93268258552192 217.63024622229523,258.35737652505395 280.4726261578082,258.35737652505395" fill="#95E1D3" opacity="0.7376187324699102"/><rect x="225" y="225" width="75" height="6" fill="#4ECDC4" opacity="0.6"/><rect x="300" y="225" width="75" height="75" fill="#AA96DA"/><polygon points="330.21497548335,222.95076336441596 349.40127975611307,250.35976946836325 330.21497548335,277.7687755723106 311.0286712105869,250.35976946836325" fill="#F38181" opacity="0.9308629513861904"/><circle cx="353.6265792132479" cy="264.1706031673451" r="19.177760932560897" fill="#FCBAD3" opacity="0.7282597184312808"/><polygon points="321.51310086553593,217.11285195702817 293.90313874088486,264.93611198817894 349.123062990187,264.93611198817894" fill="#FFE66D" opacity="0.8214939117997391"/><rect x="289.83696698494583" y="240.3126719036082" width="73.33744528276728" height="51.33621169793709" fill="#FFE66D" opacity="0.9872215272333573" rx="4" transform="rotate(36.99019433790361 326.50568962632946 265.9807777525767)"/><rect x="300" y="225" width="6" height="75" fill="#AA96DA" opacity="0.6"/><rect x="375" y="225" width="75" height="75" fill="#4ECDC4"/><polygon points="429.5990234797816,224.64531764196943 452.0398672326304,256.7036658603249 429.5990234797816,288.7620140786804 407.15817972693276,256.7036658603249" fill="#FF6B6B" opacity="0.8317869067805758"/><path d="M 395.3763967777492 264.74784629233085L 399.7568205721571 273.6235543442563L 409.55174594671064 275.04684031290674L 402.4640713622299 281.9556155318682L 404.13724436656497 291.7109626881305L 395.3763967777492 287.1051125421562L 386.61554918893347 291.7109626881305L 388.28872219326854 281.9556155318682L 381.2010476087878 275.04684031290674L 390.99597298334135 273.6235543442563 Z" fill="#FCBAD3" opacity="0.9029665560475394" transform="rotate(143.1734419535722 395.3763967777492 279.65269045888107)"/><path d="M 400.56603134170456 266.84961901889164L 405.6914933066265 277.2349392908644L 417.1523746762817 278.9003028355602L 408.8592030089931 286.9841472923884L 410.81695527154847 298.39871883860815L 400.56603134170456 293.00948920072267L 390.31510741186065 298.39871883860815L 392.272859674416 286.9841472923884L 383.97968800712744 278.9003028355602L 395.4405693767826 277.2349392908644 Z" fill="#FCBAD3" opacity="0.7188609451143354" transform="rotate(190.9046817714836 400.56603134170456 284.28953247344566)"/><circle cx="429.7573127037647" cy="263.406881700925" r="12.915167660296506" fill="#AA96DA" opacity="0.9172875137148833"/><rect x="450" y="225" width="75" height="75" fill="#AA96DA"/><rect x="451.5701220174414" y="242.78598223377998" width="32.37677291495575" height="22.663741040469024" fill="#FCBAD3" opacity="0.7456099540207581" rx="4" transform="rotate(39.3330073539787 467.75850847491927 254.11785275401448)"/><circle cx="469.6934594235818" cy="283.2999059759546" r="13.748094142646572" fill="#AA96DA" opacity="0.7693961948479507"/><polygon points="472.87464917072776,244.51577738661587 455.24056522607015,275.0598026949143 490.5087331153854,275.0598026949143" fill="#FF6B6B" opacity="0.8807568550951578"/><rect x="481.5406787524888" y="252.47098983281572" width="39.36291933844932" height="27.554043536914524" fill="#95E1D3" opacity="0.7229668617355482" rx="4" transform="rotate(6.477686318791326 501.22213842171345 266.248011601273)"/><rect x="525" y="225" width="75" height="75" fill="#4ECDC4"/><circle cx="542.607081682704" cy="265.484646868652" r="14.110454322239594" fill="#FFE66D" opacity="0.8228320211744085"/><polygon points="572.4220866115867,227.77284577443396 590.7362807145628,253.93598020725696 572.4220866115867,280.09911464007996 554.1078925086106,253.93598020725696" fill="#F38181" opacity="0.782187712230807"/><path d="M 562.0187634332193 232.2415804506706L 566.7357532885515 241.7992458284521L 577.283263254251 243.3318887393803L 569.6510133437351 250.77149370687556L 571.4527431438835 261.27638449622725L 562.0187634332193 256.3166478512304L 552.5847837225551 261.27638449622725L 554.3865135227035 250.77149370687556L 546.7542636121876 243.3318887393803L 557.3017735778872 241.7992458284521 Z" fill="#FCBAD3" opacity="0.8978715837923211" transform="rotate(78.53267673334697 562.0187634332193 248.29162538437714)"/><rect x="549.2663112983649" y="219.12018331046923" width="61.53272469482976" height="43.07290728638083" fill="#FFE66D" opacity="0.7118594408090503" rx="4" transform="rotate(3.5804606990797727 580.0326736457798 240.65663695365964)"/><rect x="0" y="300" width="75" height="75" fill="#A8D8EA"/><rect x="27.044509660124085" y="328.92792142452805" width="38.2131600453114" height="26.749212031717978" fill="#F38181" opacity="0.9660107613848572" rx="4" transform="rotate(42.83333303538772 46.151089682779784 342.30252744038705)"/><rect x="20.05937666460377" y="322.07117276589673" width="49.67219443394439" height="34.770536103761074" fill="#AA96DA" opacity="0.9228529096687459" rx="4" transform="rotate(14.633182890076741 44.89547388157597 339.45644081777726)"/><polygon points="23.959924582838976,298.24700899165913 8.058310707770664,325.790220091662 39.86153845790729,325.790220091662" fill="#A8D8EA" opacity="0.944758671636115"/><circle cx="44.33153407151417" cy="322.0806294712613" r="12.472061254653175" fill="#A8D8EA" opacity="0.7337804019608443"/><rect x="0" y="300" width="75" height="6" fill="#FF6B6B" opacity="0.6"/><rect x="75" y="300" width="75" height="75" fill="#95E1D3"/><path d="M 108.84604812545984 308.9293161058702L 117.90829486608428 327.29143359481714L 138.1720946069964 330.2359360529685L 123.50907136622813 344.5288512247079L 126.97054160670871 364.71077131275L 108.84604812545984 355.18216119825706L 90.72155464421098 364.71077131275L 94.18302488469156 344.5288512247079L 79.52000164392328 330.2359360529685L 99.78380138483541 327.29143359481714 Z" fill="#FFE66D" opacity="0.8683911562750074" transform="rotate(343.34361092343164 108.84604812545984 339.76454616746145)"/><polygon points="126.08175160180858,298.4618658920339 102.78963046430243,338.80618656900765 149.37387273931472,338.80618656900765" fill="#FCBAD3" opacity="0.8839952827356734"/><rect x="119.68594329475236" y="318.59416312513366" width="26.398261787322472" height="18.47878325112573" fill="#FFE66D" opacity="0.7246195405836308" rx="4" transform="rotate(36.94251270822367 132.8850741884136 327.8335547506965)"/><polygon points="98.74135137011359,298.0857881132214 80.3435305680735,329.9526832668705 117.13917217215368,329.9526832668705" fill="#A8D8EA" opacity="0.7393510639850753"/><rect x="150" y="300" width="75" height="75" fill="#FF6B6B"/><path d="M 182.1812278112309 317.7493469482285L 192.7417864633494 339.14737596567204L 216.3559134898599 342.5787094749682L 199.2685706505454 359.23475220930095L 203.3023451154679 382.753461962226L 182.1812278112309 371.6494334726708L 161.06011050699394 382.753461962226L 165.09388497191642 359.23475220930095L 148.0065421326019 342.5787094749682L 171.62066915911242 339.14737596567204 Z" fill="#95E1D3" opacity="0.7096422553107339" transform="rotate(31.948810830688483 182.1812278112309 353.68273796452337)"/><circle cx="168.9441896993407" cy="335.3679093813374" r="11.610662564803224" fill="#FCBAD3" opacity="0.9100111623341269"/><rect x="170.3869991081939" y="328.07734779499117" width="27.9545599247583" height="19.56819194733081" fill="#95E1D3" opacity="0.8939099163719965" rx="4" transform="rotate(26.029728067121344 184.36427907057305 337.86144376865656)"/><polygon points="182.63676882611438,293.28538041074546 203.50372269313257,323.09531450648575 182.63676882611438,352.90524860222604 161.76981495909618,323.09531450648575" fill="#FF6B6B" opacity="0.9006578088741087"/><rect x="225" y="300" width="75" height="75" fill="#F38181"/><polygon points="258.54319454102927,290.81876467311236 277.2187533328979,317.49813437578183 258.54319454102927,344.1775040784513 239.86763574916063,317.49813437578183" fill="#FFE66D" opacity="0.85381091840277"/><rect x="267.3770141781433" y="337.4725113056355" width="24.18788909990708" height="16.931522369934953" fill="#FF6B6B" opacity="0.8442842573599351" rx="4" transform="rotate(5.407649877205328 279.4709587280969 345.938272490603)"/><circle cx="270.6415893280141" cy="318.74750197108256" r="28.068475470327993" fill="#A8D8EA" opacity="0.9345510960717457"/><polygon points="271.4013075974776,310.5097585947997 241.00008324765724,363.1677684385994 301.802531947298,363.1677684385994" fill="#FCBAD3" opacity="0.7855673313539323"/><rect x="225" y="300" width="75" height="6" fill="#FFE66D" opacity="0.6"/><rect x="225" y="300" width="6" height="75" fill="#FFE66D" opacity="0.6"/><rect x="300" y="300" width="75" height="75" fill="#FF6B6B"/><polygon points="326.91141129094706,338.68160249429366 314.59426557975667,360.0161504928913 339.22855700213745,360.0161504928913" fill="#AA96DA" opacity="0.9664407820750217"/><polygon points="337.00792194437605,287.0077891197325 360.1585948454605,320.0801789784246 337.00792194437605,353.15256883711675 313.8572490432916,320.0801789784246" fill="#4ECDC4" opacity="0.8164179206436583"/><path d="M 336.16750002893036 318.616077310809L 340.86083687525024 328.12581645761486L 351.355457104926 329.6507740400398L 343.7614785669282 337.0530736393362L 345.5541737215702 347.50528840348255L 336.16750002893036 342.5704220039516L 326.78082633629054 347.50528840348255L 328.57352149093254 337.0530736393362L 320.9795429529347 329.6507740400398L 331.4741631826105 328.12581645761486 Z" fill="#FCBAD3" opacity="0.7417533487275957" transform="rotate(35.0992369815238 336.16750002893036 334.58564043957074)"/><path d="M 324.3510550304088 314.2464874733689L 328.41813353190867 322.48728861449575L 337.51239753109036 323.8087625257585L 330.93172628074956 330.2233316367665L 332.4852120334085 339.28084857029995L 324.3510550304088 335.00446916296124L 316.2168980274091 339.28084857029995L 317.7703837800681 330.2233316367665L 311.1897125297273 323.8087625257585L 320.28397652890897 322.48728861449575 Z" fill="#95E1D3" opacity="0.7173403114161175" transform="rotate(230.18938790549961 324.3510550304088 328.08514193309713)"/><rect x="300" y="300" width="75" height="6" fill="#A8D8EA" opacity="0.6"/><rect x="300" y="300" width="6" height="75" fill="#A8D8EA" opacity="0.6"/><rect x="375" y="300" width="75" height="75" fill="#F38181"/><circle cx="396.0867275325985" cy="321.256217661433" r="15.458750838511042" fill="#F38181" opacity="0.9347530485292678"/><circle cx="428.99918632535224" cy="322.58171439523886" r="28.45037151929008" fill="#95E1D3" opacity="0.7127075552999542"/><path d="M 392.04897165393874 314.7470399788567L 396.7202761650659 324.2121367385212L 407.16563059554767 325.7299355812881L 399.60730112474323 333.0974859283341L 401.3915806761931 343.50063396091383L 392.04897165393874 338.5889337295498L 382.7063626316844 343.50063396091383L 384.49064218313424 333.09748592833415L 376.9323127123298 325.7299355812881L 387.37766714281156 324.2121367385212 Z" fill="#A8D8EA" opacity="0.7950879306043908" transform="rotate(226.30402575540543 392.04897165393874 330.6416358126521)"/><polygon points="397.6901131904172,316.6001804232831 370.974527996032,362.8742887276454 424.4056983848024,362.8742887276454" fill="#4ECDC4" opacity="0.9240990639776452"/><rect x="375" y="300" width="75" height="6" fill="#F38181" opacity="0.6"/><rect x="450" y="300" width="75" height="75" fill="#FF6B6B"/><circle cx="475.39779916889864" cy="326.985169356682" r="24.577347865946287" fill="#F38181" opacity="0.8844759703541528"/><path d="M 474.99037564266024 339.42599372736925L 480.9836763647146 351.56974738523644L 494.38510418882674 353.5170888352788L 484.6877399157435 362.96968279688895L 486.976977086769 376.31695965858387L 474.99037564266024 370.01523035084375L 463.00377419855147 376.31695965858387L 465.29301136957696 362.96968279688895L 455.59564709649374 353.5170888352788L 468.9970749206059 351.56974738523644 Z" fill="#FF6B6B" opacity="0.7466240883090645" transform="rotate(131.1867249622879 474.99037564266024 359.8188181430189)"/><circle cx="509.79252176582463" cy="352.5647986110136" r="36.51146562083693" fill="#A8D8EA" opacity="0.7074985265766729"/><path d="M 478.58516336119976 305.8675147230353L 482.12691294001695 313.0438832047203L 490.04650575753345 314.1946674020026L 484.31583455936664 319.7806912367597L 485.66866251883414 327.6682834660815L 478.58516336119976 323.9442675762434L 471.5016642035654 327.6682834660815L 472.8544921630329 319.7806912367597L 467.123820964866 314.1946674020026L 475.0434137823826 313.0438832047203 Z" fill="#FFE66D" opacity="0.9609149040006636" transform="rotate(334.04479996023923 478.58516336119976 317.9186832918407)"/><rect x="525" y="300" width="75" height="75" fill="#F38181"/><circle cx="545.783873948168" cy="343.98980589070817" r="11.302890479589296" fill="#F38181" opacity="0.9201728186198384"/><polygon points="567.6224398741604,305.9562760601781 588.679543573784,336.03785277392615 567.6224398741604,366.1194294876742 546.5653361745367,336.03785277392615" fill="#A8D8EA" opacity="0.9009289265614603"/><polygon points="546.5183901817157,329.89700408007343 560.6131506770561,350.0323762162739 546.5183901817157,370.1677483524744 532.4236296863754,350.0323762162739" fill="#95E1D3" opacity="0.7597683072368466"/><polygon points="562.681735764575,322.1944847788869 544.9973610285017,352.825618848298 580.3661105006483,352.825618848298" fill="#A8D8EA" opacity="0.9774516345362418"/><rect x="525" y="300" width="6" height="75" fill="#95E1D3" opacity="0.6"/><rect x="0" y="375" width="75" height="75" fill="#FFE66D"/><polygon points="55.0127005763411,365.54898719619916 25.999217391955533,415.8032883238878 84.02618376072667,415.8032883238878" fill="#AA96DA" opacity="0.7119839310701861"/><path d="M 38.81994725382884 365.9830176770841L 49.53910248466428 387.70239846248285L 73.50786224218476 391.18526312395926L 56.1639047480068 408.0914433254135L 60.25825771549971 431.9633528498205L 38.81994725382884 420.69256604885106L 17.381636792157984 431.9633528498205L 21.47598975965089 408.0914433254135L 4.132032265472937 391.18526312395926L 28.10079202299341 387.70239846248285 Z" fill="#FF6B6B" opacity="0.9732811929067975" transform="rotate(4.810981752728569 38.81994725382884 402.4560499249287)"/><circle cx="24.21117900368347" cy="430.2555799671708" r="34.235597859595714" fill="#4ECDC4" opacity="0.8907647133761852"/><polygon points="42.91595937121472,376.50656025752266 22.05858134776405,412.63365845056654 63.77333739466539,412.63365845056654" fill="#AA96DA" opacity="0.7761382222530144"/><rect x="0" y="375" width="75" height="6" fill="#FCBAD3" opacity="0.6"/><rect x="0" y="375" width="6" height="75" fill="#FCBAD3" opacity="0.6"/><rect x="75" y="375" width="75" height="75" fill="#A8D8EA"/><polygon points="112.02284039092382,390.2420420998205 131.6422045537118,418.2697051895176 112.02284039092382,446.2973682792147 92.40347622813586,418.2697051895176" fill="#F38181" opacity="0.8009514451497007"/><circle cx="90.59473827508964" cy="418.04107084313455" r="35.817058246846806" fill="#F38181" opacity="0.8294221282607979"/><circle cx="134.44909842892042" cy="394.9786841892538" r="28.938959137391745" fill="#FF6B6B" opacity="0.8823344589128785"/><polygon points="132.66187014182185,386.6533868051616 148.85649908472854,409.78857100931396 132.66187014182185,432.92375521346634 116.46724119891516,409.78857100931396" fill="#FFE66D" opacity="0.9178074241698754"/><rect x="75" y="375" width="6" height="75" fill="#95E1D3" opacity="0.6"/><rect x="150" y="375" width="75" height="75" fill="#95E1D3"/><circle cx="192.55623356791037" cy="402.8099352181004" r="28.19810048534912" fill="#A8D8EA" opacity="0.936180341353724"/><rect x="154.57954689898972" y="409.91652968329913" width="49.00973351044103" height="34.30681345730872" fill="#FCBAD3" opacity="0.9059253097539419" rx="4" transform="rotate(5.8509331968850145 179.08441365421024 427.0699364119535)"/><circle cx="192.02713297075923" cy="417.9869413506179" r="15.302120449045729" fill="#4ECDC4" opacity="0.8773270697227339"/><rect x="153.14891427727366" y="419.0358663969258" width="40.18607319224909" height="28.13025123457436" fill="#FFE66D" opacity="0.7442556619850246" rx="4" transform="rotate(23.295297782539993 173.2419508733982 433.10099201421303)"/><rect x="150" y="375" width="75" height="6" fill="#F38181" opacity="0.6"/><rect x="150" y="375" width="6" height="75" fill="#F38181" opacity="0.6"/><rect x="225" y="375" width="75" height="75" fill="#A8D8EA"/><polygon points="261.71998680649324,372.13149066706256 241.0470056416418,407.9391947632256 282.39296797134466,407.9391947632256" fill="#AA96DA" opacity="0.7863712072774633"/><polygon points="260.79901815429287,368.56455455991187 234.7828693901959,413.62716789264334 286.8151669183898,413.62716789264334" fill="#AA96DA" opacity="0.8112384677451283"/><polygon points="277.320261615012,385.68246111596585 251.60502632986177,430.22386172534846 303.03549690016223,430.22386172534846" fill="#95E1D3" opacity="0.7524910807853988"/><polygon points="278.4924888790084,371.2337199936079 295.9682699181574,396.1991214781064 278.4924888790084,421.1645229626049 261.01670783985946,396.1991214781064" fill="#95E1D3" opacity="0.984479916228205"/><rect x="300" y="375" width="75" height="75" fill="#95E1D3"/><polygon points="331.4978277760082,406.8283447754003 314.261165198108,436.6839958918556 348.73449035390837,436.6839958918556" fill="#4ECDC4" opacity="0.7599207639973241"/><path d="M 321.3039690285474 404.4263841331361L 329.92806502715354 421.9007112503264L 349.21212992452075 424.70284990247694L 335.2580494765341 438.30471664358504L 338.55216102575963 457.5108606889942L 321.3039690285474 448.4429495282555L 304.05577703133514 457.5108606889942L 307.3498885805607 438.30471664358504L 293.395808132574 424.70284990247694L 312.67987302994123 421.9007112503264 Z" fill="#95E1D3" opacity="0.9493855000703527" transform="rotate(97.72115711947957 321.3039690285474 433.7707610632157)"/><polygon points="356.61421539337107,412.06160368086375 371.9114676346241,433.9148211683681 356.61421539337107,455.7680386558725 341.31696315211803,433.9148211683681" fill="#95E1D3" opacity="0.7921505451631502"/><polygon points="340.294711601592,395.0220948533491 366.34538753864837,432.23734619200104 340.294711601592,469.452597530653 314.2440356645356,432.23734619200104" fill="#F38181" opacity="0.9327618123184711"/><rect x="375" y="375" width="75" height="75" fill="#A8D8EA"/><circle cx="399.26351979806253" cy="399.7613766834891" r="12.65118386661689" fill="#FCBAD3" opacity="0.8673133374039611"/><polygon points="400.1857799339042,390.67900345284914 375.621241206752,433.22728069387483 424.7503186610564,433.22728069387483" fill="#FF6B6B" opacity="0.7582175970348611"/><rect x="416.1756295140021" y="406.9543099817025" width="23.360930085583092" height="16.352651059908165" fill="#FF6B6B" opacity="0.8364456970880021" rx="4" transform="rotate(12.172433143561907 427.8560945567936 415.1306355116566)"/><circle cx="415.61568350792663" cy="393.929371835631" r="24.009580208342328" fill="#4ECDC4" opacity="0.7074227452312701"/><rect x="375" y="375" width="75" height="6" fill="#95E1D3" opacity="0.6"/><rect x="375" y="375" width="6" height="75" fill="#95E1D3" opacity="0.6"/><rect x="450" y="375" width="75" height="75" fill="#95E1D3"/><path d="M 474.1120916647427 387.71223798811536L 482.4841120717895 404.675804169217L 501.2045188109616 407.39603849673034L 487.6583052378522 420.6003332945727L 490.8561324788363 439.2450967474418L 474.1120916647427 430.44223354888015L 457.3680508506491 439.2450967474418L 460.56587809163324 420.6003332945727L 447.0196645185238 407.39603849673034L 465.7400712576959 404.675804169217 Z" fill="#95E1D3" opacity="0.8708612919649394" transform="rotate(331.0906793228773 474.1120916647427 416.1989016952919)"/><polygon points="473.1988424100908,356.6175544903928 442.8392032170583,409.2035346168925 503.55848160312325,409.2035346168925" fill="#FF6B6B" opacity="0.9962592126318528"/><circle cx="488.6052860429535" cy="418.85526360424944" r="26.390705562727856" fill="#F38181" opacity="0.7799585461988852"/><circle cx="484.482746878398" cy="414.7771203633291" r="17.317722740614656" fill="#FCBAD3" opacity="0.7695270866479385"/><rect x="450" y="375" width="6" height="75" fill="#95E1D3" opacity="0.6"/><rect x="525" y="375" width="75" height="75" fill="#A8D8EA"/><path d="M 548.9606648725274 401.1569626733693L 556.7219968072262 416.8831388562345L 574.0768626091527 419.4049484708196L 561.5187637408401 431.6460694794844L 564.4833287419251 448.93080971731945L 548.9606648725274 440.77006237820956L 533.4380010031298 448.93080971731945L 536.4025660042148 431.6460694794844L 523.8444671359022 419.4049484708196L 541.1993329378287 416.8831388562345 Z" fill="#A8D8EA" opacity="0.8804736138230532" transform="rotate(97.49370579491077 548.9606648725274 427.5656958099295)"/><path d="M 567.964711202292 414.8989141155728L 573.6905890184448 426.5008097819347L 586.4940410462207 428.3612602626259L 577.2293761242563 437.3920765990588L 579.4164668345977 450.1437938968739L 567.964711202292 444.1232496725853L 556.5129555699864 450.1437938968739L 558.7000462803278 437.3920765990588L 549.4353813583634 428.3612602626259L 562.2388333861393 426.5008097819347 Z" fill="#FFE66D" opacity="0.9109578133611743" transform="rotate(225.0223160837881 567.964711202292 434.38180448691446)"/><polygon points="552.2936582622555,394.7616541460211 536.5840547805683,421.97228373323907 568.0032617439426,421.97228373323907" fill="#AA96DA" opacity="0.754150295282784"/><path d="M 569.5148939031711 414.95079295532815L 572.921023501108 421.8523653412933L 580.5373608222689 422.9590839355849L 575.02612736272 428.3312088402206L 576.3271530990448 435.91677093343947L 569.5148939031711 432.33535433034893L 562.7026347072974 435.91677093343947L 564.0036604436223 428.3312088402206L 558.4924269840734 422.9590839355849L 566.1087643052342 421.8523653412933 Z" fill="#FCBAD3" opacity="0.7073294837061919" transform="rotate(244.7966365165993 569.5148939031711 426.54050053867536)"/>
  <text x="300" y="234.45" text-anchor="middle" font-family="Georgia, serif" font-size="27" font-weight="bold" fill="#000" opacity="0.5" transform="translate(2, 2)">Find your freedom.</text><text x="300" y="234.45" text-anchor="middle" font-family="Georgia, serif" font-size="27" font-weight="bold" fill="#FFFFFF" stroke="#000" stroke-width="1">Find your freedom.</text>
</svg>