<svg xmlns="http://www.w3.org/2000/svg" viewBox="0 0 600 450" width="600" height="450">
  <rect x="0" y="0" width="75" height="75" fill="#3D405B"/><circle cx="17.976298482611913" cy="17.70346015817647" r="27.238520205015558" fill="#DDBEA9" opacity="0.7915361762473062"/><polygon points="26.8390828426178,2.2059914090000063 13.539694264737047,25.241883864913547 40.13847142049855,25.241883864913547" fill="#CB997E" opacity="0.740879601259194"/><path d="M 16.471245289533982 -5.526161496190433L 27.023631827843452 15.855309010081571L 50.619485452357125 19.2839872386413L 33.545365370945554 35.92714096953054L 37.57601836615293 59.427651157539245L 16.47124528953398 48.332215336946405L -4.633527787084969 59.427651157539245L -0.6028747918775963 35.92714096953054L -17.67699487328918 19.283987238641302L 5.9188587512245 15.855309010081575 Z" fill="#81B29A" opacity="0.770035088094899" transform="rotate(313.98270263987723 16.47124528953398 30.379423059234128)"/><rect x="25.402863743553343" y="1.5573705595137426" width="43.60906698792663" height="30.52634689154864" fill="#DDBEA9" opacity="0.9031792999260031" rx="4" transform="rotate(4.855039718027711 47.20739723751666 16.820544005288063)"/><rect x="0" y="0" width="75" height="6" fill="#F4F1DE" opacity="0.6"/><rect x="0" y="0" width="6" height="75" fill="#F4F1DE" opacity="0.6"/><rect x="75" y="0" width="75" height="75" fill="#DDBEA9"/><circle cx="106.20388046661573" cy="59.74182667431507" r="20.73695362055998" fill="#CB997E" opacity="0.7888117313798572"/><path d="M 91.70646429141354 15.492533152803098L 100.30393700365266 32.912915599736166L 119.52847042291883 35.70640382176761L 105.61746735716619 49.26628049302575L 108.90140971589179 68.41313360834675L 91.70646429141354 59.373215827508L 74.51151886693529 68.41313360834675L 77.79546122566089 49.26628049302575L 63.88445815990824 35.70640382176761L 83.10899157917441 32.912915599736166 Z" fill="#A5A58D" opacity="0.7184167981233526" transform="rotate(100.4939711561864 91.70646429141354 44.746321602606365)"/><polygon points="112.8086096154566,17.444681978642326 122.43010037790756,31.1896687821437 112.8086096154566,44.934655585645075 103.18711885300564,31.1896687821437" fill="#E07A5F" opacity="0.9423502893384315"/><rect x="150" y="0" width="75" height="75" fill="#81B29A"/><rect x="167.258384234043" y="14.253818753701086" width="67.3068666666778" height="47.11480666667446" fill="#CB997E" opacity="0.9247825623605319" rx="4" transform="rotate(8.925619129522527 200.91181756738192 37.81122208703832)"/><polygon points="169.31968152724193,22.50273630896245 148.4195253024446,58.703930693715314 190.21983775203924,58.703930693715314" fill="#F2CC8F" opacity="0.7350656271144121"/><polygon points="200.09540142263072,14.75727662956681 168.50684774628343,69.47186151931382 231.683955098978,69.47186151931382" fill="#A5A58D" opacity="0.782767856159605"/><rect x="155.07940650048175" y="20.860942042309762" width="73.30791773777824" height="51.315542416444764" fill="#E07A5F" opacity="0.8527778387781129" rx="4" transform="rotate(16.69416547598977 191.73336536937086 46.518713250532144)"/><rect x="150" y="0" width="75" height="6" fill="#E07A5F" opacity="0.6"/><rect x="225" y="0" width="75" height="75" fill="#DDBEA9"/><polygon points="250.61975598829787,27.15338946478599 225.8032294488073,70.13813520293364 275.4362825277884,70.13813520293364" fill="#CB997E" opacity="0.7034518599526266"/><rect x="251.3565942377814" y="11.902120059717967" width="39.44115825786309" height="27.60881078050416" fill="#A5A58D" opacity="0.8103108883417728" rx="4" transform="rotate(2.693388463320857 271.07717336671294 25.706525449970048)"/><rect x="254.28383187648552" y="31.06542765718905" width="27.22197264652791" height="19.055380852569535" fill="#DDBEA9" opacity="0.7113736838155303" rx="4" transform="rotate(11.460706298919725 267.89481819974947 40.59311808347382)"/><rect x="225" y="0" width="75" height="6" fill="#3D405B" opacity="0.6"/><rect x="225" y="0" width="6" height="75" fill="#3D405B" opacity="0.6"/><rect x="300" y="0" width="75" height="75" fill="#81B29A"/><circle cx="344.53215794150356" cy="26.02169037378472" r="21.445376877763948" fill="#81B29A" opacity="0.7187900543300388"/><polygon points="352.4875617201848,11.96091235066341 326.61308310191873,56.778138594773196 378.3620403384508,56.778138594773196" fill="#A5A58D" opacity="0.9495691777437781"/><path d="M 351.4273810556286 19.227910645062995L 357.99998403575296 32.54545888486417L 372.6967710884288 34.68102704862568L 362.0620760720287 45.04729267140065L 364.57258701587733 59.68469462169864L 351.4273810556286 52.77385087318199L 338.28217509537984 59.68469462169864L 340.7926860392285 45.047292671400655L 330.15799102282836 34.68102704862568L 344.8547780755042 32.545458884864175 Z" fill="#81B29A" opacity="0.9077845097555706" transform="rotate(340.0225640926615 351.4273810556286 41.59187079714233)"/><rect x="331.54751480920123" y="42.12557558855068" width="35.90794623522458" height="25.135562364657204" fill="#3D405B" opacity="0.901834941004326" rx="4" transform="rotate(25.235306036302497 349.5014879268135 54.693356770879284)"/><rect x="300" y="0" width="6" height="75" fill="#81B29A" opacity="0.6"/><rect x="375" y="0" width="75" height="75" fill="#DDBEA9"/><rect x="380.74958279822005" y="34.57699675646238" width="26.981027128398893" height="18.886718989879224" fill="#F2CC8F" opacity="0.9265395254951619" rx="4" transform="rotate(24.38528717699707 394.2400963624195 44.02035625140199)"/><path d="M 416.58505798624134 32.55150945335696L 422.7021212610455 44.94603343334927L 436.38029056617506 46.933587774436106L 426.48267427620823 56.58137920953381L 428.8191845358497 70.20427932680519L 416.58505798624134 63.77241837007338L 404.350931436633 70.20427932680519L 406.68744169627445 56.581379209533814L 396.7898254063076 46.933587774436106L 410.4679947114372 44.94603343334927 Z" fill="#E07A5F" opacity="0.8189057589130968" transform="rotate(261.35676396142543 416.58505798624134 53.36544873116791)"/><polygon points="430.07025005299147,36.92917765731885 438.4132134507123,48.84769679692001 430.07025005299147,60.76621593652117 421.72728665527063,48.84769679692001" fill="#E07A5F" opacity="0.8489232619055189"/><rect x="450" y="0" width="75" height="75" fill="#81B29A"/><path d="M 489.56211985301326 -1.6906530062857286L 495.8474823673169 11.044882479731498L 509.9019802125288 13.087120558592733L 499.73205003277104 23.00035243274302L 502.13284488162054 36.998060464615776L 489.56211985301326 30.38923921518225L 476.991394824406 36.998060464615776L 479.3921896732555 23.00035243274302L 469.2222594934977 13.087120558592733L 483.2767573387096 11.044882479731498 Z" fill="#3D405B" opacity="0.9831147433645626" transform="rotate(49.891920112954416 489.56211985301326 19.69594180802626)"/><circle cx="474.47818235004235" cy="48.29143078685339" r="34.028022597906194" fill="#CB997E" opacity="0.8404494047818936"/><rect x="488.45323296017165" y="25.03603113531649" width="31.767718796277286" height="22.2374031573941" fill="#3D405B" opacity="0.933159932602737" rx="4" transform="rotate(4.572302701218194 504.3370923583103 36.15473271401354)"/><rect x="459.8668026952617" y="31.516320493254497" width="63.85116132039165" height="44.69581292427415" fill="#DDBEA9" opacity="0.7243310332411579" rx="4" transform="rotate(44.35775714198023 491.7923833554575 53.86422695539157)"/><rect x="450" y="0" width="6" height="75" fill="#DDBEA9" opacity="0.6"/><rect x="525" y="0" width="75" height="75" fill="#DDBEA9"/><path d="M 572.7985453758382 17.34138787425654L 576.2860438814366 24.407831675135892L 584.0843276113835 25.540988630187638L 578.4414364936109 31.041448033773815L 579.773542387035 38.80822134746349L 572.7985453758382 35.14124841173936L 565.8235483646414 38.80822134746349L 567.1556542580655 31.041448033773815L 561.5127631402929 25.540988630187638L 569.3110468702398 24.407831675135892 Z" fill="#E07A5F" opacity="0.89246602849684" transform="rotate(110.36127095593199 572.7985453758382 29.207961565911756)"/><polygon points="582.0840954976547,5.2936667211091475 604.3293981218964,37.0726704700257 582.0840954976547,68.85167421894225 559.8387928734131,37.0726704700257" fill="#CB997E" opacity="0.9404868603872539"/><circle cx="556.1438055225386" cy="38.14110160951554" r="26.01026148291317" fill="#E07A5F" opacity="0.9599584819096878"/><rect x="525" y="0" width="6" height="75" fill="#E07A5F" opacity="0.6"/><rect x="0" y="75" width="75" height="75" fill="#CB997E"/><polygon points="15.468270778874063,100.80617963432157 -3.782045059837186,134.14968281915628 34.71858661758531,134.14968281915628" fill="#81B29A" opacity="0.9539720059623811"/><polygon points="31.174128063104177,100.83320082262307 50.825597954890966,128.90672923946136 31.174128063104177,156.98025765629964 11.522658171317385,128.90672923946136" fill="#DDBEA9" opacity="0.9888787747774639"/><circle cx="55.33821480364456" cy="121.17833556196575" r="20.194640014760495" fill="#A5A58D" opacity="0.8026177049161017"/><polygon points="24.825457339093767,106.74912752024788 39.51795785904068,127.7384139773149 24.825457339093767,148.72770043438192 10.132956819146854,127.7384139773149" fill="#E07A5F" opacity="0.8947540164900729"/><rect x="75" y="75" width="75" height="75" fill="#3D405B"/><circle cx="109.38067273207972" cy="93.24698567541641" r="17.929390560220643" fill="#A5A58D" opacity="0.8523476482147107"/><circle cx="99.69678909038043" cy="128.8019232632601" r="29.560269721928176" fill="#3D405B" opacity="0.9862949849508214"/><polygon points="96.35531187353438,77.37856807588999 105.82674327723298,90.90918436688798 96.35531187353438,104.43980065788598 86.88388046983577,90.90918436688798" fill="#F2CC8F" opacity="0.7878842726759073"/><rect x="75" y="75" width="6" height="75" fill="#F2CC8F" opacity="0.6"/><rect x="150" y="75" width="75" height="75" fill="#CB997E"/><rect x="162.173563692916" y="80.85484613419037" width="63.70631488096262" height="44.594420416673834" fill="#E07A5F" opacity="0.9442198158447723" rx="4" transform="rotate(13.545697337736234 194.0267211333973 103.15205634252729)"/><circle cx="206.90904649063435" cy="114.29344297586634" r="37.45532066850239" fill="#E07A5F" opacity="0.8638874769973975"/><polygon points="203.0073416410048,76.92032664929066 224.93235802094327,108.24177862063132 203.0073416410048,139.563230591972 181.08232526106636,108.24177862063132" fill="#F2CC8F" opacity="0.9639528991020996"/><path d="M 187.7034723864419 70.1193103154047L 196.84047290816605 88.63289550883853L 217.2714271851923 91.60168694283705L 202.4874497858171 106.01250327999448L 205.97747342989018 126.36090248514894L 187.7034723864419 116.75369159371066L 169.4294713429936 126.36090248514894L 172.91949498706668 106.01250327999448L 158.13551758769148 91.60168694283706L 178.56647186471773 88.63289550883853 Z" fill="#A5A58D" opacity="0.7873230696131117" transform="rotate(16.073427207802155 187.7034723864419 101.20889783427533)"/><rect x="150" y="75" width="75" height="6" fill="#DDBEA9" opacity="0.6"/><rect x="225" y="75" width="75" height="75" fill="#3D405B"/><rect x="241.6696809292397" y="91.87901004112979" width="29.14301544737211" height="20.400110813160477" fill="#CB997E" opacity="0.988756081596369" rx="4" transform="rotate(11.95160151084494 256.24118865292576 102.07906544771002)"/><polygon points="259.7966981026329,97.96375215948268 243.531809272987,126.13619239558986 276.0615869322788,126.13619239558986" fill="#A5A58D" opacity="0.8987851620646123"/><polygon points="274.16730345886543,94.49775830644543 243.55909773402925,147.51428092452198 304.7755091837016,147.51428092452198" fill="#E07A5F" opacity="0.9561002851725091"/><rect x="225" y="75" width="75" height="6" fill="#81B29A" opacity="0.6"/><rect x="300" y="75" width="75" height="75" fill="#CB997E"/><path d="M 347.708948865863 76.0042861091226L 357.58177070860836 96.00880814572301L 379.65807147873164 99.21668241982943L 363.68351017229736 114.78803124125116L 367.4545925513537 136.77512861088573L 347.708948865863 126.39422939660457L 327.96330518037234 136.77512861088573L 331.7343875594287 114.78803124125116L 315.75982625299434 99.21668241982943L 337.8361270231177 96.00880814572301 Z" fill="#CB997E" opacity="0.9729515315373202" transform="rotate(308.72740759920674 347.708948865863 109.59758163411058)"/><rect x="327.4834969750296" y="101.69544250684346" width="24.138647318649404" height="16.897053123054583" fill="#3D405B" opacity="0.9512357325531708" rx="4" transform="rotate(4.8101180814253715 339.5528206343543 110.14396906837075)"/><path d="M 338.87670816102843 72.11673583526479L 345.2615026583169 85.05374252439348L 359.53833717662053 87.12828801296199L 349.2075226688245 97.19834334809677L 351.6462971556054 111.41748966036855L 338.87670816102843 104.70411943694536L 326.10711916645147 111.41748966036855L 328.5458936532324 97.19834334809677L 318.21507914543633 87.12828801296199L 332.49191366374 85.05374252439348 Z" fill="#E07A5F" opacity="0.9222378254971643" transform="rotate(165.08657463131777 338.87670816102843 93.84165823638517)"/><polygon points="328.6083483759353,67.63789881609283 309.1362733368419,101.36551147041168 348.0804234150287,101.36551147041168" fill="#81B29A" opacity="0.9597031534927445"/><rect x="375" y="75" width="75" height="75" fill="#3D405B"/><path d="M 390.93653082891205 91.32950692092045L 395.43498216574864 100.44436489482862L 405.49382514839004 101.90600033671208L 398.2151779886511 109.00092780909878L 399.9334335025852 119.01912616525239L 390.93653082891205 114.28917451699459L 381.9396281552389 119.01912616525239L 383.65788366917303 109.00092780909878L 376.37923650943407 101.90600033671208L 386.4380794920755 100.44436489482862 Z" fill="#F2CC8F" opacity="0.9039911598917055" transform="rotate(337.0890857358878 390.93653082891205 106.63595198496988)"/><rect x="380.4193036265994" y="95.05611862844376" width="46.282484840500395" height="32.397739388350274" fill="#A5A58D" opacity="0.7328737616692081" rx="4" transform="rotate(36.836542653309436 403.5605460468496 111.25498832261889)"/><rect x="384.6537096825911" y="114.3041810692191" width="30.433853570341064" height="21.303697499238744" fill="#DDBEA9" opacity="0.9279566974509306" rx="4" transform="rotate(17.97261358144349 399.87063646776164 124.95602981883847)"/><rect x="375" y="75" width="6" height="75" fill="#CB997E" opacity="0.6"/><rect x="450" y="75" width="75" height="75" fill="#CB997E"/><polygon points="465.6913125518203,75.28073457839467 444.5973966769408,111.81754036629225 486.78522842669986,111.81754036629225" fill="#81B29A" opacity="0.9414928675822414"/><polygon points="467.664662004758,86.88604608557003 486.40200466547486,113.65367845802274 467.664662004758,140.42131083047545 448.9273193440411,113.65367845802274" fill="#E07A5F" opacity="0.7866659641669439"/><rect x="450" y="75" width="75" height="6" fill="#DDBEA9" opacity="0.6"/><rect x="450" y="75" width="6" height="75" fill="#DDBEA9" opacity="0.6"/><rect x="525" y="75" width="75" height="75" fill="#3D405B"/><circle cx="541.6513153918327" cy="108.34217772741903" r="37.08071575771585" fill="#3D405B" opacity="0.7243181228750935"/><rect x="540.9969793317126" y="88.73180553624724" width="51.43598021424188" height="36.00518614996931" fill="#CB997E" opacity="0.7603738069815439" rx="4" transform="rotate(25.769839447815826 566.7149694388336 106.7343986112319)"/><circle cx="580.8885450851585" cy="116.33126736913401" r="36.613322508224904" fill="#F4F1DE" opacity="0.9130818367996634"/><rect x="525" y="75" width="75" height="6" fill="#DDBEA9" opacity="0.6"/><rect x="525" y="75" width="6" height="75" fill="#DDBEA9" opacity="0.6"/><rect x="0" y="150" width="75" height="75" fill="#E07A5F"/><path d="M 24.329881672435384 166.49771243927427L 28.234773235966625 174.4098869500091L 36.966376216787914 175.67866313065412L 30.64812894461165 181.83743208385383L 32.139664799497865 190.53375339834355L 24.329881672435384 186.42790742954372L 16.520098545372907 190.53375339834355L 18.01163440025912 181.83743208385383L 11.693387128082852 175.67866313065412L 20.424990108904144 174.4098869500091 Z" fill="#F2CC8F" opacity="0.9505923957799525" transform="rotate(114.57907682032281 24.329881672435384 179.7845090994539)"/><path d="M 35.03514648416785 159.15846973909458L 44.33209088899002 177.99613663733552L 65.1206905612087 181.01689698924457L 50.07791852268828 195.6799757530153L 53.62903529381218 216.38457522060412L 35.03514648416785 206.6091893780903L 16.441257674523527 216.38457522060412L 19.992374445647428 195.67997575301533L 4.949602407126999 181.01689698924457L 25.738202079345687 177.99613663733552 Z" fill="#A5A58D" opacity="0.9544083834879139" transform="rotate(4.787549974763556 35.03514648416785 190.7922828317584)"/><polygon points="53.574832695804,166.8515816391919 39.31129406667026,191.55747995755286 67.83837132493774,191.55747995755286" fill="#81B29A" opacity="0.9082469315306502"/><circle cx="40.554334682204924" cy="199.51415063557874" r="35.663809787674715" fill="#DDBEA9" opacity="0.733531761185048"/><rect x="0" y="150" width="75" height="6" fill="#DDBEA9" opacity="0.6"/><rect x="75" y="150" width="75" height="75" fill="#F4F1DE"/><path d="M 112.5574636564392 146.74556851060856L 121.39696281691207 164.6563501052473L 141.16268382678174 167.52847748731918L 126.86007374161048 181.47007665995383L 130.23646197738495 201.15593059673225L 112.5574636564392 191.86153114830913L 94.87846533549344 201.15593059673225L 98.25485357126792 181.47007665995383L 83.95224348609665 167.52847748731918L 103.71796449596631 164.6563501052473 Z" fill="#81B29A" opacity="0.8403140068707586" transform="rotate(236.17961894542893 112.5574636564392 176.82287693574227)"/><path d="M 95.18661976102116 161.38461739180357L 101.72735738312522 174.6375993640396L 116.35289132914022 176.7628138453528L 105.7697555450807 187.07882163779746L 108.26809500522927 201.64525839286853L 95.18661976102116 194.76791986457206L 82.10514451681306 201.64525839286853L 84.60348397696163 187.07882163779746L 74.0203481929021 176.7628138453528L 88.6458821389171 174.6375993640396 Z" fill="#CB997E" opacity="0.7279118180404938" transform="rotate(10.811716323165092 95.18661976102116 183.64015237364924)"/><polygon points="117.66495288706616,168.94627914540297 128.1104987255463,183.86848748608887 117.66495288706616,198.79069582677477 107.21940704858602,183.86848748608887" fill="#F4F1DE" opacity="0.8700136155681748"/><rect x="75" y="150" width="75" height="6" fill="#F2CC8F" opacity="0.6"/><rect x="150" y="150" width="75" height="75" fill="#E07A5F"/><path d="M 195.7838469887077 157.28173658416222L 201.2755541068132 168.40915059127536L 213.55538453541658 170.1935143998903L 204.66961576206214 178.8549982717928L 206.7672612249187 191.08520976092518L 195.7838469887077 185.31088717965685L 184.80043275249668 191.08520976092518L 186.89807821535325 178.8549982717928L 178.0123094419988 170.1935143998903L 190.29213987060217 168.40915059127536 Z" fill="#CB997E" opacity="0.7441725135055243" transform="rotate(168.74095566977792 195.7838469887077 175.96783698115863)"/><path d="M 197.86465109925 186.27682106221414L 204.1727253488225 199.05837555028688L 218.27800817798254 201.1079931192726L 208.07132963861628 211.05704579094603L 210.48079959839498 225.1053336005909L 197.86465109925 218.47263181947528L 185.24850260010504 225.1053336005909L 187.65797255988375 211.05704579094606L 177.45129402051748 201.1079931192726L 191.55657684967753 199.05837555028688 Z" fill="#E07A5F" opacity="0.9363815427927213" transform="rotate(344.30598751842325 197.86465109925 207.74069490038823)"/><rect x="150" y="150" width="75" height="6" fill="#3D405B" opacity="0.6"/><rect x="225" y="150" width="75" height="75" fill="#F4F1DE"/><polygon points="256.1778026894563,137.27933908977047 227.75157926018076,186.51644664625238 284.60402611873184,186.51644664625238" fill="#A5A58D" opacity="0.9221178055843886"/><circle cx="273.01234693872385" cy="173.14725280187432" r="30.238045947155" fill="#E07A5F" opacity="0.7221586585148044"/><polygon points="278.53425892001684,170.9625542244001 263.59392731788404,196.84072674541534 293.47459052214964,196.84072674541534" fill="#3D405B" opacity="0.7813654989383022"/><rect x="225" y="150" width="75" height="6" fill="#F4F1DE" opacity="0.6"/><rect x="225" y="150" width="6" height="75" fill="#F4F1DE" opacity="0.6"/><rect x="300" y="150" width="75" height="75" fill="#E07A5F"/><rect x="319.66911346461586" y="188.38631041313585" width="51.99622751655812" height="36.39735926159068" fill="#F2CC8F" opacity="0.8820207119835637" rx="4" transform="rotate(27.912676347378955 345.6672272228949 206.58499004393119)"/><circle cx="318.2898876086296" cy="188.7690590432701" r="12.03158184922374" fill="#E07A5F" opacity="0.7335109908289792"/><rect x="300" y="150" width="75" height="6" fill="#F2CC8F" opacity="0.6"/><rect x="375" y="150" width="75" height="75" fill="#F4F1DE"/><path d="M 395.5229473139732 156.5647414339775L 402.5465956127213 170.7962073114746L 418.25195065877296 173.07832898315064L 406.8874489863731 184.15598027685422L 409.5702439114695 199.79787491390982L 395.5229473139732 192.41277405144078L 381.4756507164769 199.79787491390982L 384.1584456415733 184.15598027685422L 372.7939439691734 173.07832898315064L 388.49929901522506 170.7962073114746 Z" fill="#E07A5F" opacity="0.9143134714170887" transform="rotate(9.003424648662762 395.5229473139732 180.4634298456197)"/><polygon points="397.3250860009925,153.04510004785615 378.9465246371781,184.87863589741926 415.7036473648069,184.87863589741926" fill="#DDBEA9" opacity="0.844270247288174"/><circle cx="432.9808987877243" cy="203.96965922739807" r="14.087232203612677" fill="#CB997E" opacity="0.7866712302373122"/><rect x="375" y="150" width="75" height="6" fill="#F2CC8F" opacity="0.6"/><rect x="450" y="150" width="75" height="75" fill="#E07A5F"/><rect x="444.4062933282258" y="161.0204962510129" width="48.92362297811714" height="34.24653608468199" fill="#CB997E" opacity="0.7908954859203172" rx="4" transform="rotate(25.20700336676417 468.86810481728435 178.14376429335388)"/><path d="M 501.95778252415255 176.9714203585039L 511.01980854597053 195.33309062230106L 531.2831147446275 198.27752136456485L 516.6204486343901 212.57008842007352L 520.0818345677885 232.75151696010977L 501.95778252415255 223.223138923104L 483.8337304805166 232.75151696010977L 487.2951164139151 212.57008842007352L 472.6324503036776 198.27752136456485L 492.89575650233456 195.33309062230106 Z" fill="#F2CC8F" opacity="0.9210688830451429" transform="rotate(26.207456600948916 501.95778252415255 207.80589940157063)"/><rect x="450" y="150" width="6" height="75" fill="#E07A5F" opacity="0.6"/><rect x="525" y="150" width="75" height="75" fill="#F4F1DE"/><polygon points="544.2140185852601,170.84638417563235 564.1893736647044,199.3826057176956 544.2140185852601,227.91882725975887 524.2386635058158,199.3826057176956" fill="#CB997E" opacity="0.7997897983062033"/><circle cx="551.2545128219083" cy="168.24079513700715" r="21.717446637557558" fill="#81B29A" opacity="0.861600697115809"/><polygon points="552.0827668961523,146.2276166269917 531.0830229535818,182.60130705869585 573.0825108387228,182.60130705869585" fill="#F4F1DE" opacity="0.7202033281420372"/><rect x="525" y="150" width="75" height="6" fill="#A5A58D" opacity="0.6"/><rect x="0" y="225" width="75" height="75" fill="#F2CC8F"/><path d="M 53.14464928495914 241.97926909347493L 58.89041938354377 253.6214709264632L 71.7383519070647 255.4883848015194L 62.44150059601191 264.5505751132487L 64.63618948212842 277.34659317509045L 53.14464928495914 271.30513296727094L 41.653109087789865 277.34659317509045L 43.84779797390636 264.5505751132487L 34.55094666285358 255.4883848015194L 47.3988791863745 253.6214709264632 Z" fill="#DDBEA9" opacity="0.8133776903680421" transform="rotate(6.91821098649791 53.14464928495914 261.52984500933894)"/><circle cx="21.712680015113524" cy="243.0354532613584" r="30.403412403144603" fill="#81B29A" opacity="0.9805719734544736"/><rect x="75" y="225" width="75" height="75" fill="#A5A58D"/><polygon points="115.73425592190318,228.05829450455877 134.82307493917088,255.32803595779836 115.73425592190318,282.59777741103795 96.64543690463549,255.32803595779836" fill="#F4F1DE" opacity="0.772874295745452"/><path d="M 126.9333958797778 251.90879524832533L 136.3578550570595 271.00483529623807L 157.43158642863312 274.0670277092799L 142.18249115420545 288.9312219224609L 145.7823142343412 309.91980096172557L 126.9333958797778 300.0103381529382L 108.08447752521441 309.91980096172557L 111.68430060535015 288.9312219224609L 96.43520533092249 274.0670277092799L 117.5089367024961 271.00483529623807 Z" fill="#81B29A" opacity="0.7311686992790404" transform="rotate(126.27223139920841 126.9333958797778 283.97649051806724)"/><circle cx="111.60259322337927" cy="277.4321687395834" r="33.596299599086066" fill="#A5A58D" opacity="0.7622406244567784"/><rect x="150" y="225" width="75" height="75" fill="#F2CC8F"/><path d="M 184.80421901671411 250.96920759520458L 190.42265643585455 262.3534052392696L 202.98586443238102 264.1789462188003L 193.89504172454758 273.0403082770097L 196.04109385499498 285.5527522942804L 184.80421901671411 279.64517758880754L 173.56734417843325 285.5527522942804L 175.71339630888065 273.0403082770097L 166.6225736010472 264.1789462188003L 179.18578159757368 262.3534052392696 Z" fill="#CB997E" opacity="0.963158249977584" transform="rotate(75.07086757340974 184.80421901671411 270.0865209242732)"/><rect x="174.02865977039497" y="251.64474442020045" width="47.434196781802086" height="33.203937747261456" fill="#E07A5F" opacity="0.9013488174422406" rx="4" transform="rotate(16.01551831514366 197.745758161296 268.2467132938312)"/><rect x="150" y="225" width="75" height="6" fill="#CB997E" opacity="0.6"/><rect x="150" y="225" width="6" height="75" fill="#CB997E" opacity="0.6"/><rect x="225" y="225" width="75" height="75" fill="#A5A58D"/><polygon points="259.3545949549203,218.59206508372077 233.3597245233051,263.6178221823614 285.3494653865355,263.6178221823614" fill="#81B29A" opacity="0.854678094459082"/><polygon points="254.3404036827108,243.52821753117175 221.92730649291994,299.67099557353464 286.75350087250166,299.67099557353464" fill="#CB997E" opacity="0.7188238144008553"/><polygon points="266.78277434165716,234.58668764952415 278.02785567480737,250.65108955402442 266.78277434165716,266.7154914585247 255.53769300850698,250.65108955402442" fill="#F4F1DE" opacity="0.9108490408448731"/><rect x="300" y="225" width="75" height="75" fill="#F2CC8F"/><polygon points="328.4245580497312,241.50297895667745 309.48969105112934,274.30009269559525 347.3594250483331,274.30009269559525" fill="#81B29A" opacity="0.7787669301399807"/><polygon points="331.7324888784124,204.04171248213004 300.1396393778651,258.7637381759187 363.32533837895977,258.7637381759187" fill="#3D405B" opacity="0.8927961111966503"/><rect x="375" y="225" width="75" height="75" fill="#A5A58D"/><path d="M 403.77047181770695 258.6674103280145L 411.39379747934606 274.11395525908705L 428.4400718733896 276.59092391735135L 416.10527184554826 288.61438235177087L 419.0171231409851 305.59177810271905L 403.77047181770695 297.57613914643935L 388.5238204944288 305.59177810271905L 391.43567178986564 288.61438235177087L 379.10087176202427 276.59092391735135L 396.14714615606783 274.11395525908705 Z" fill="#81B29A" opacity="0.7876612425258668" transform="rotate(333.4705068233751 403.77047181770695 284.60656287363105)"/><polygon points="427.44405092552495,250.2661912243423 435.40026700753964,261.632214198649 427.44405092552495,272.9982371729557 419.48783484351026,261.632214198649" fill="#3D405B" opacity="0.7669514138563309"/><polygon points="403.0913096727297,254.36859772802268 381.6338112667651,291.5351654057904 424.5488080786943,291.5351654057904" fill="#F2CC8F" opacity="0.8481071830485515"/><rect x="375" y="225" width="75" height="6" fill="#81B29A" opacity="0.6"/><rect x="375" y="225" width="6" height="75" fill="#81B29A" opacity="0.6"/><rect x="450" y="225" width="75" height="75" fill="#F2CC8F"/><rect x="442.05406508795176" y="230.584609083114" width="59.98166667180213" height="41.98716667026149" fill="#A5A58D" opacity="0.7633250236806111" rx="4" transform="rotate(13.350235378998441 472.0448984238528 251.57819241824475)"/><rect x="442.21299737154646" y="257.09324134558824" width="57.076980487712184" height="39.95388634139853" fill="#81B29A" opacity="0.8656591654595263" rx="4" transform="rotate(11.016014819506562 470.75148761540254 277.0701845162875)"/><rect x="450" y="225" width="6" height="75" fill="#81B29A" opacity="0.6"/><rect x="525" y="225" width="75" height="75" fill="#A5A58D"/><polygon points="546.5952730209544,247.6175370900275 569.3831442843695,280.1716388949061 546.5952730209544,312.7257406997847 523.8074017575394,280.1716388949061" fill="#F4F1DE" opacity="0.9487805010046719"/><circle cx="570.4231341324854" cy="250.24441838741507" r="29.57067836929144" fill="#81B29A" opacity="0.9124646068608688"/><path d="M 572.0406013876388 236.33564338441272L 581.5708777590438 255.6460924863332L 602.8812235698654 258.74266698994575L 587.4609124787521 273.77375537657L 591.1011541304488 294.9979927704194L 572.0406013876388 284.97726717933654L 552.9800486448289 294.9979927704194L 556.6202902965256 273.77375537657L 541.1999792054123 258.74266698994575L 562.5103250162339 255.6460924863332 Z" fill="#A5A58D" opacity="0.8413690448465613" transform="rotate(223.95153532920014 572.0406013876388 268.7633925810286)"/><rect x="530.3514930240817" y="229.4734725381008" width="52.81309315483696" height="36.969165208385874" fill="#A5A58D" opacity="0.8650926113897434" rx="4" transform="rotate(33.09135676971234 556.7580396015002 247.95805514229372)"/><rect x="525" y="225" width="6" height="75" fill="#F4F1DE" opacity="0.6"/><rect x="0" y="300" width="75" height="75" fill="#DDBEA9"/><circle cx="44.36067359026553" cy="350.2397471830434" r="24.856831586736643" fill="#81B29A" opacity="0.7585086703572927"/><polygon points="23.115162853205184,324.68934373042515 47.83247299164415,359.99978678533796 23.115162853205184,395.31022984025077 -1.6021472852337872,359.99978678533796" fill="#F4F1DE" opacity="0.8592801571634039"/><rect x="75" y="300" width="75" height="75" fill="#81B29A"/><path d="M 120.32067240696432 296.20503678566547L 130.0045745856325 315.82676577247986L 151.65843814459285 318.97325632672187L 135.9895552757786 334.24664231285425L 139.68847676430067 355.8130094074707L 120.32067240696432 345.63075208338245L 100.95286804962797 355.8130094074707L 104.65178953815006 334.24664231285425L 88.98290666933578 318.97325632672187L 110.63677022829614 315.82676577247986 Z" fill="#3D405B" opacity="0.8663542867481495" transform="rotate(134.64324480604532 120.32067240696432 329.1555136508101)"/><polygon points="98.02930534259849,342.4970756651587 84.43778479830375,366.0389703723667 111.62082588689323,366.0389703723667" fill="#DDBEA9" opacity="0.9783860535725886"/><circle cx="121.30610661176317" cy="346.5891266016239" r="28.688600071444455" fill="#F4F1DE" opacity="0.9866985322379965"/><rect x="75" y="300" width="6" height="75" fill="#81B29A" opacity="0.6"/><rect x="150" y="300" width="75" height="75" fill="#DDBEA9"/><polygon points="195.97228826534575,328.0846171194383 216.51289868896728,357.4283462960405 195.97228826534575,386.7720754726427 175.43167784172422,357.4283462960405" fill="#E07A5F" opacity="0.7398200392908509"/><path d="M 188.90974761168926 294.40764179483875L 195.34825676077435 307.45348625625473L 209.74520089188292 309.54548469316825L 199.32747425178607 319.7002584191814L 201.7867659098594 334.0390290190216L 188.90974761168926 327.26917986834616L 176.0327293135191 334.0390290190216L 178.49202097159244 319.7002584191814L 168.0742943314956 309.54548469316825L 182.47123846260416 307.45348625625473 Z" fill="#81B29A" opacity="0.9241801739782933" transform="rotate(115.92309957180316 188.90974761168926 316.3153338438437)"/><rect x="150" y="300" width="6" height="75" fill="#A5A58D" opacity="0.6"/><rect x="225" y="300" width="75" height="75" fill="#81B29A"/><path d="M 256.8465685922869 312.6144772809299L 267.501866193768 334.2044683767372L 291.32783595117013 337.66658443668166L 274.08720227172853 354.4720488106426L 278.15716379524906 378.2017453044924L 256.8465685922869 366.9981023885185L 235.5359733893248 378.2017453044924L 239.60593491284533 354.4720488106426L 222.36530123340373 337.66658443668166L 246.19127099080586 334.2044683767372 Z" fill="#DDBEA9" opacity="0.9738255025231397" transform="rotate(316.03597655707784 256.8465685922869 348.8702273526556)"/><circle cx="282.94012921067895" cy="334.1888612598129" r="25.561042881715597" fill="#CB997E" opacity="0.8939212442347413"/><rect x="230.32679513170234" y="337.4521453372795" width="42.06745595651094" height="29.447219169557656" fill="#DDBEA9" opacity="0.8075495362782615" rx="4" transform="rotate(18.071710475753857 251.36052310995782 352.17575492205833)"/><rect x="300" y="300" width="75" height="75" fill="#DDBEA9"/><polygon points="331.6013503151952,322.8157049506278 315.09783631425364,351.4014682317043 348.10486431613674,351.4014682317043" fill="#CB997E" opacity="0.711327219014674"/><polygon points="332.42257297850335,312.8851814610582 347.8685822752275,334.9509090278069 332.42257297850335,357.0166365945556 316.9765636817792,334.9509090278069" fill="#DDBEA9" opacity="0.901329290960603"/><rect x="375" y="300" width="75" height="75" fill="#81B29A"/><circle cx="412.63208405237276" cy="336.28515780963244" r="25.379953539990797" fill="#F2CC8F" opacity="0.8458381057464694"/><rect x="365.4411131081596" y="320.6223538282781" width="66.24422552238414" height="46.3709578656689" fill="#F2CC8F" opacity="0.8125183105992704" rx="4" transform="rotate(4.518384935575717 398.56322586935164 343.80783276111254)"/><circle cx="392.60164484502826" cy="332.22769440022654" r="27.582571961140527" fill="#3D405B" opacity="0.8804062009697808"/><polygon points="396.4705556661219,327.1485047151328 417.9699548278446,357.86193208902233 396.4705556661219,388.5753594629119 374.97115650439923,357.86193208902233" fill="#A5A58D" opacity="0.9518404723386469"/><rect x="375" y="300" width="75" height="6" fill="#81B29A" opacity="0.6"/><rect x="450" y="300" width="75" height="75" fill="#DDBEA9"/><circle cx="475.2216906893168" cy="330.0833514403009" r="27.18326636400691" fill="#81B29A" opacity="0.9958852769322158"/><polygon points="481.7488288957387,296.7679015887053 462.72286166501476,329.7228101869569 500.77479612646266,329.7228101869569" fill="#F2CC8F" opacity="0.9713489652943559"/><rect x="525" y="300" width="75" height="75" fill="#F2CC8F"/><rect x="527.646515517913" y="340.3481624430153" width="45.84217519654994" height="32.089522637584956" fill="#81B29A" opacity="0.9649103761952884" rx="4" transform="rotate(23.108941923412004 550.567603116188 356.3929237618078)"/><circle cx="542.371626646431" cy="318.5663858072676" r="23.52275904839521" fill="#CB997E" opacity="0.7063934564620226"/><polygon points="565.7040917993077,326.7256084191499 544.5029279256637,363.4481786390874 586.9052556729516,363.4481786390874" fill="#A5A58D" opacity="0.8949357272102197"/><path d="M 574.3389165561362 320.3385391908644L 579.7745620170637 331.3523598733649L 591.9290347692857 333.11850814535927L 583.1339756627109 341.6915719451354L 585.2102074779912 353.7969322889003L 574.3389165561362 348.08155642238285L 563.4676256342811 353.7969322889003L 565.5438574495614 341.6915719451354L 556.7487983429866 333.11850814535927L 568.9032710952087 331.3523598733649 Z" fill="#A5A58D" opacity="0.7890956163821256" transform="rotate(353.47918526897166 574.3389165561362 338.8338840118767)"/><rect x="525" y="300" width="75" height="6" fill="#DDBEA9" opacity="0.6"/><rect x="525" y="300" width="6" height="75" fill="#DDBEA9" opacity="0.6"/><rect x="0" y="375" width="75" height="75" fill="#3D405B"/><polygon points="59.49823381588711,404.6047210813755 47.43014106806955,425.50788403948906 71.56632656370466,425.50788403948906" fill="#F2CC8F" opacity="0.9784982771978239"/><polygon points="19.837664368021144,375.7695132480094 -12.247174165353492,431.3437139409216 51.92250290139578,431.3437139409216" fill="#3D405B" opacity="0.7261504650237739"/><rect x="75" y="375" width="75" height="75" fill="#CB997E"/><polygon points="122.08784045283117,390.68374649245936 103.33495034964638,423.1656577566362 140.84073055601596,423.1656577566362" fill="#81B29A" opacity="0.9379948736345372"/><polygon points="105.08602560268996,413.4802664978105 117.5435757281578,431.27676667705026 105.08602560268996,449.07326685629005 92.62847547722211,431.27676667705026" fill="#F4F1DE" opacity="0.9522567869407389"/><path d="M 100.96396923575736 384.34029221795043L 106.07629291372506 394.698991412881L 117.50779618064256 396.36008606937054L 109.23588270819997 404.4232089075634L 111.18861659169275 415.80852105873527L 100.96396923575736 410.43310583327343L 90.73932187982197 415.80852105873527L 92.69205576331476 404.4232089075634L 84.42014229087215 396.36008606937054L 95.85164555778967 394.698991412881 Z" fill="#F2CC8F" opacity="0.7645026296677545" transform="rotate(177.37510450993437 100.96396923575736 401.73550129483243)"/><circle cx="102.6044847129865" cy="394.6733146927661" r="26.27006147756244" fill="#81B29A" opacity="0.8983914853066166"/><rect x="75" y="375" width="75" height="6" fill="#CB997E" opacity="0.6"/><rect x="150" y="375" width="75" height="75" fill="#3D405B"/><rect x="186.43570171328525" y="400.1433537835341" width="33.365742271237885" height="23.356019589866516" fill="#E07A5F" opacity="0.7941069573602205" rx="4" transform="rotate(8.881781105362709 203.1185728489042 411.82136357846736)"/><rect x="159.66754272855704" y="411.2661808715859" width="61.57456131608903" height="43.10219292126232" fill="#DDBEA9" opacity="0.7366445183924606" rx="4" transform="rotate(25.940197271267046 190.45482338660156 432.8172773322171)"/><rect x="225" y="375" width="75" height="75" fill="#CB997E"/><rect x="230.01162897854186" y="375.5612359947694" width="71.39310369682177" height="49.97517258777523" fill="#A5A58D" opacity="0.9981974841552774" rx="4" transform="rotate(34.91449715332803 265.70818082695274 400.548822288657)"/><rect x="231.83916360283698" y="394.79737052911537" width="56.99647130188368" height="39.89752991131857" fill="#DDBEA9" opacity="0.929185319053561" rx="4" transform="rotate(28.203781856318834 260.3373992537788 414.74613548477464)"/><circle cx="277.7047683474164" cy="406.1926084832254" r="13.72041598077417" fill="#CB997E" opacity="0.9857899160523851"/><circle cx="273.49589960346736" cy="430.2036255785281" r="16.80260226389049" fill="#A5A58D" opacity="0.8259603709569016"/><rect x="300" y="375" width="75" height="75" fill="#3D405B"/><polygon points="330.61706543695976,388.0899667783361 352.13011123112176,418.8228893414246 330.61706543695976,449.5558119045132 309.10401964279777,418.8228893414246" fill="#DDBEA9" opacity="0.9344144822258569"/><path d="M 325.3558158922735 401.0268429025434L 332.75867381509937 416.02667140241766L 349.31196735831094 418.43200574995757L 337.3338916252922 430.10774393583915L 340.16153173792526 446.59415081680066L 325.3558158922735 438.81032535954625L 310.5501000466217 446.59415081680066L 313.37774015925476 430.10774393583915L 301.39966442623603 418.4320057499576L 317.9529579694476 416.02667140241766 Z" fill="#F4F1DE" opacity="0.9504670740340218" transform="rotate(286.0587073704501 325.3558158922735 426.215831207212)"/><rect x="300" y="375" width="75" height="6" fill="#3D405B" opacity="0.6"/><rect x="300" y="375" width="6" height="75" fill="#3D405B" opacity="0.6"/><rect x="375" y="375" width="75" height="75" fill="#CB997E"/><polygon points="400.0621676491863,410.0791749504065 412.92353542849816,428.4525574922807 400.0621676491863,446.8259400341548 387.2007998698744,428.4525574922807" fill="#E07A5F" opacity="0.8687389493774338"/><path d="M 417.7320188413058 371.99136033339494L 427.9496485231577 392.6945393624608L 450.79696306069803 396.01444849490844L 434.2644909510019 412.1296259424928L 438.16727820500955 434.8846216549725L 417.7320188413058 424.1411700232496L 397.296759477602 434.8846216549725L 401.19954673160964 412.1296259424928L 384.6670746219135 396.01444849490844L 407.51438915945386 392.6945393624608 Z" fill="#F4F1DE" opacity="0.8645873189738892" transform="rotate(44.148859998280585 417.7320188413058 406.75790012663134)"/><polygon points="390.73712468181606,417.51617640199424 401.90566823074164,433.47123861474506 390.73712468181606,449.4263008274959 379.5685811328905,433.47123861474506" fill="#A5A58D" opacity="0.9488724560704419"/><polygon points="396.8551951678727,393.32158998333455 376.630747946004,428.3523877117444 417.07964238974137,428.3523877117444" fill="#81B29A" opacity="0.774150848423201"/><rect x="375" y="375" width="75" height="6" fill="#F2CC8F" opacity="0.6"/><rect x="450" y="375" width="75" height="75" fill="#81B29A"/><circle cx="504.0364583018406" cy="411.8286860090814" r="36.40497119406004" fill="#F4F1DE" opacity="0.797200179145299"/><polygon points="476.8735438640572,382.73883506841435 499.49988543736976,415.0621801731466 476.8735438640572,447.38552527787886 454.2472022907446,415.0621801731466" fill="#3D405B" opacity="0.904451024627523"/><rect x="450" y="375" width="75" height="6" fill="#E07A5F" opacity="0.6"/><rect x="450" y="375" width="6" height="75" fill="#E07A5F" opacity="0.6"/><rect x="525" y="375" width="75" height="75" fill="#DDBEA9"/><rect x="530.6729507455243" y="418.74807019747004" width="46.1428892722553" height="32.30002249057871" fill="#CB997E" opacity="0.9036099911684217" rx="4" transform="rotate(42.60637523727788 553.744395381652 434.8980814427594)"/><path d="M 567.5099587568594 389.60935056715243L 573.0263560324521 400.7867922975858L 585.3613953315719 402.5791784246714L 576.4356770442156 411.2796034484362L 578.5427533080447 423.56480072637225L 567.5099587568594 417.76451737719566L 556.4771642056742 423.56480072637225L 558.5842404695032 411.2796034484362L 549.658522182147 402.5791784246714L 561.9935614812667 400.7867922975858 Z" fill="#81B29A" opacity="0.8065103054542607" transform="rotate(76.38399127702415 567.5099587568594 408.37946177384794)"/><path d="M 541.0207200055107 383.4765237405554L 550.7064734631681 403.1020038283138L 572.3644766077934 406.24909589956263L 556.6925983066521 421.5254017105804L 560.3922269208254 443.0958916640959L 541.0207200055107 432.91168779008404L 521.6492130901961 443.0958916640959L 525.3488417043693 421.5254017105804L 509.676963403228 406.24909589956263L 531.3349665478534 403.1020038283138 Z" fill="#F4F1DE" opacity="0.7695198536242916" transform="rotate(202.6227487077111 541.0207200055107 416.4332997735745)"/><circle cx="558.3617295224042" cy="393.10435116435605" r="31.144835101391575" fill="#E07A5F" opacity="0.8534129143475615"/><rect x="525" y="375" width="75" height="6" fill="#81B29A" opacity="0.6"/><rect x="525" y="375" width="6" height="75" fill="#81B29A" opacity="0.6"/>
  <text x="300" y="234.45" text-anchor="middle" font-family="Georgia, serif" font-size="27" font-weight="bold" fill="#000" opacity="0.5" transform="translate(2, 2)">The best time to start is now.</text><text x="300" y="234.45" text-anchor="middle" font-family="Georgia, serif" font-size="27" font-weight="bold" fill="#FFFFFF" stroke="#000" stroke-width="1">The best time to start is now.</text>
</svg>