<svg xmlns="http://www.w3.org/2000/svg" viewBox="0 0 600 450" width="600" height="450">
  <rect x="0" y="0" width="75" height="75" fill="#95E1D3"/><circle cx="16.44445253603368" cy="33.450080984481644" r="16.138057263981576" fill="#FF6B6B" opacity="0.8482858628725101"/><polygon points="20.53185224790678,3.2170622793338595 32.84711049216432,20.810288342558916 20.53185224790678,38.40351440578397 8.216594003649242,20.810288342558916" fill="#95E1D3" opacity="0.7427517563303707"/><circle cx="56.983261873006484" cy="50.11645676340743" r="29.192527242909428" fill="#FCBAD3" opacity="0.7103828668642709"/><rect x="75" y="0" width="75" height="75" fill="#A8D8EA"/><polygon points="90.69049716027942,25.680642417599742 106.06413987660274,47.64298915520449 90.69049716027942,69.60533589280924 75.3168544439561,47.64298915520449" fill="#A8D8EA" opacity="0.8476378679963005"/><circle cx="113.12196270708085" cy="44.70390380812059" r="30.506481090214326" fill="#FFE66D" opacity="0.7224075675115024"/><circle cx="126.59096747478048" cy="38.91689301650827" r="28.43565703238624" fill="#4ECDC4" opacity="0.8485569000935912"/><rect x="76.95723697459661" y="39.99840824346682" width="44.867171655580016" height="31.407020158906008" fill="#95E1D3" opacity="0.9741202594126203" rx="4" transform="rotate(42.648357172798534 99.39082280238662 55.70191832291982)"/><rect x="150" y="0" width="75" height="75" fill="#95E1D3"/><polygon points="165.53907036806413,39.125367102853666 179.458161684956,59.00978326984206 165.53907036806413,78.89419943683046 151.61997905117227,59.00978326984206" fill="#F38181" opacity="0.8572501898544143"/><rect x="174.29531705591143" y="-0.9484283179386637" width="58.33771684944523" height="40.83640179461166" fill="#AA96DA" opacity="0.7768043399214765" rx="4" transform="rotate(21.906915317246185 203.46417548063405 19.469772579367167)"/><polygon points="181.71521008793042,35.1887731400499 193.35700702130887,51.81991161630485 181.71521008793042,68.4510500925598 170.07341315455196,51.81991161630485" fill="#A8D8EA" opacity="0.9427243680892159"/><circle cx="180.1500620018458" cy="33.947269329310984" r="29.496392467173933" fill="#A8D8EA" opacity="0.9217551351626194"/><rect x="150" y="0" width="75" height="6" fill="#A8D8EA" opacity="0.6"/><rect x="150" y="0" width="6" height="75" fill="#A8D8EA" opacity="0.6"/><rect x="225" y="0" width="75" height="75" fill="#FF6B6B"/><rect x="250.05606160559972" y="17.007085879278414" width="53.21896703481626" height="37.25327692437138" fill="#FFE66D" opacity="0.9444977642244183" rx="4" transform="rotate(9.663639669149946 276.66554512300786 35.6337243414641)"/><polygon points="271.47026182686454,26.04979009474618 294.4761966385884,58.91541125435168 271.47026182686454,91.78103241395718 248.4643270151407,58.91541125435168" fill="#4ECDC4" opacity="0.7132789373459661"/><circle cx="266.74107269697873" cy="20.028262140708165" r="11.567456312625415" fill="#AA96DA" opacity="0.7193217564464182"/><rect x="232.88217610406326" y="-1.9126565074723416" width="51.307113062966195" height="35.914979144076334" fill="#AA96DA" opacity="0.9978240133718699" rx="4" transform="rotate(34.48544027026996 258.53573263554637 16.044833064565825)"/><rect x="300" y="0" width="75" height="75" fill="#F38181"/><polygon points="315.23621678363355,21.01481645240673 301.6152881313291,44.60764899104026 328.857145435938,44.60764899104026" fill="#F38181" opacity="0.8764748425113386"/><rect x="306.97047606260537" y="13.0526009229606" width="57.87590147712077" height="40.513131033984536" fill="#FFE66D" opacity="0.9568152905706386" rx="4" transform="rotate(39.275715369393915 335.9084268011658 33.30916643995287)"/><path d="M 356.0374760818842 -18.49832912080377L 366.3510496998327 2.39925355642802L 389.4129014005139 5.750336763447551L 372.7251887411991 22.01683634770735L 376.66462331778115 44.985502346006214L 356.0374760818842 34.141169289833016L 335.4103288459873 44.985502346006214L 339.34976342256937 22.016836347707354L 322.66205076325457 5.750336763447557L 345.72390246393576 2.3992535564280217 Z" fill="#F38181" opacity="0.9574330927140233" transform="rotate(174.16707523826838 356.0374760818842 16.59466981962075)"/><polygon points="344.9634879967028,22.898870864486728 319.46823901748786,67.05923283772275 370.4587369759177,67.05923283772275" fill="#F38181" opacity="0.900293171499061"/><rect x="300" y="0" width="75" height="6" fill="#FF6B6B" opacity="0.6"/><rect x="375" y="0" width="75" height="75" fill="#FF6B6B"/><polygon points="417.4597478040772,-9.120009547504598 386.5745741766305,44.376249622437754 448.3449214315239,44.376249622437754" fill="#A8D8EA" opacity="0.9480708600245745"/><path d="M 406.20954931537136 16.725691711984435L 414.74320486337064 34.01676646060353L 433.8250387652652 36.78951922901571L 420.0172940403183 50.24874389408953L 423.2768604113699 69.25347409598771L 406.20954931537136 60.28065765260517L 389.1422382193728 69.25347409598771L 392.40180459042443 50.248743894089536L 378.5940598654775 36.78951922901571L 397.6758937673721 34.01676646060353 Z" fill="#4ECDC4" opacity="0.769303524526443" transform="rotate(13.86059404064929 406.20954931537136 45.76233567239826)"/><polygon points="407.0017504771248,41.17675604178884 419.7978707057996,59.45692779703853 407.0017504771248,77.73709955228821 394.20563024845,59.45692779703853" fill="#FCBAD3" opacity="0.8517033100834597"/><polygon points="422.90185870272194,22.37050072225766 402.9732513023893,56.88887381752202 442.83046610305456,56.88887381752202" fill="#FF6B6B" opacity="0.7507123112914675"/><rect x="375" y="0" width="75" height="6" fill="#A8D8EA" opacity="0.6"/><rect x="450" y="0" width="75" height="75" fill="#F38181"/><path d="M 497.7797484550531 14.323473577654678L 506.963513773895 32.93181459970371L 527.4990373162306 35.91580083737613L 512.6393928856419 50.40037430092381L 516.1472790927369 70.85292023981631L 497.7797484550531 61.19653793078454L 479.41221781736925 70.85292023981631L 482.92010402446437 50.40037430092381L 468.06045959387563 35.91580083737614L 488.59598313621115 32.93181459970371 Z" fill="#FCBAD3" opacity="0.8762297154293534" transform="rotate(249.29609310314808 497.7797484550531 45.572183146407916)"/><polygon points="505.1865935512756,13.947592382411282 514.8840564088938,27.8011107504373 505.1865935512756,41.65462911846332 495.4891306936574,27.8011107504373" fill="#A8D8EA" opacity="0.7247603029127979"/><circle cx="506.5241694457476" cy="48.0081331883595" r="17.307170930345155" fill="#AA96DA" opacity="0.7296491474051257"/><polygon points="474.9118137405775,40.1687577536417 487.5579283454842,58.234635760651265 474.9118137405775,76.30051376766083 462.2656991356708,58.234635760651265" fill="#FCBAD3" opacity="0.7176341652952293"/><rect x="525" y="0" width="75" height="75" fill="#FF6B6B"/><path d="M 577.0908200913532 37.183827475381L 581.2397926273416 45.59056405459095L 590.5171772545914 46.93864695066298L 583.8039986729723 53.48237878715377L 585.38876516333 62.72227641578862L 577.0908200913532 58.35978852479476L 568.7928750193763 62.72227641578862L 570.3776415097341 53.48237878715377L 563.664462928115 46.93864695066298L 572.9418475553648 45.59056405459095 Z" fill="#FCBAD3" opacity="0.7921477646064701" transform="rotate(226.27377043770338 577.0908200913532 51.30113484165684)"/><path d="M 573.6150151647697 10.449142906209062L 581.6991603095117 26.829410095361496L 599.77585839313 29.456108080093813L 586.6954367789498 42.20636793252704L 589.7833054542539 60.210023754424896L 573.6150151647697 51.70985051946941L 557.4467248752856 60.210023754424896L 560.5345935505896 42.20636793252704L 547.4541719364095 29.456108080093816L 565.5308700200277 26.829410095361496 Z" fill="#A8D8EA" opacity="0.9814448715566866" transform="rotate(54.297394777786636 573.6150151647697 37.956281315049296)"/><polygon points="558.5423040476359,24.528533229966893 532.6186673866777,69.4309061992941 584.4659407085941,69.4309061992941" fill="#FCBAD3" opacity="0.868010997850453"/><circle cx="555.8338067009271" cy="37.720056484788685" r="32.5712156395061" fill="#4ECDC4" opacity="0.933386802782019"/><rect x="0" y="75" width="75" height="75" fill="#FCBAD3"/><rect x="10.033079984729685" y="94.64094177471284" width="30.545961860588733" height="21.382173302412113" fill="#4ECDC4" opacity="0.9412228674819799" rx="4" transform="rotate(42.75382699573125 25.30606091502405 105.3320284259189)"/><polygon points="25.278718476313504,104.7273382665484 9.979812284820863,131.2265984134756 40.57762466780615,131.2265984134756" fill="#A8D8EA" opacity="0.9735983015380791"/><rect x="8.838026674970994" y="93.65300958395376" width="56.67033524912332" height="39.669234674386324" fill="#95E1D3" opacity="0.9520562292319052" rx="4" transform="rotate(3.7651723640808705 37.17319429953265 113.48762692114693)"/><rect x="22.073583313414638" y="110.79130761170123" width="32.68122017857675" height="22.876854125003725" fill="#A8D8EA" opacity="0.7258834689976105" rx="4" transform="rotate(2.857376040358737 38.41419340270301 122.22973467420309)"/><rect x="0" y="75" width="75" height="6" fill="#4ECDC4" opacity="0.6"/><rect x="75" y="75" width="75" height="75" fill="#FFE66D"/><path d="M 94.481375815571 86.37430385110169L 105.4670931489628 108.63379844992143L 130.03190388802457 112.20327438878766L 112.25663985179779 129.5298745621192L 116.45281048235461 153.9954266131832L 94.481375815571 142.44435983096218L 72.5099411487874 153.9954266131832L 76.70611177934421 129.5298745621192L 58.93084774311741 112.20327438878766L 83.4956584821792 108.63379844992143 Z" fill="#FF6B6B" opacity="0.7743906021464572" transform="rotate(258.14437878231723 94.481375815571 123.75434117100869)"/><path d="M 126.12619580520605 111.16261439044617L 132.05507146664112 123.17582861739929L 145.312440475754 125.10223709631545L 135.71931814048003 134.45322028162244L 137.9839471280762 147.65702042476175L 126.12619580520605 141.42303163455708L 114.2684444823359 147.65702042476175L 116.53307346993208 134.45322028162244L 106.9399511346581 125.10223709631546L 120.19732014377097 123.1758286173993 Z" fill="#FF6B6B" opacity="0.7775940537814022" transform="rotate(155.1075125462876 126.12619580520605 131.3362258865201)"/><rect x="61.61643414891624" y="90.3243060746227" width="65.2156931360791" height="45.650985195255366" fill="#F38181" opacity="0.8540306807281592" rx="4" transform="rotate(15.315338380315964 94.22428071695579 113.14979867225038)"/><rect x="63.27448233241424" y="108.00229674292602" width="65.4168847403102" height="45.79181931821714" fill="#95E1D3" opacity="0.9530686737285314" rx="4" transform="rotate(39.19864477552411 95.98292470256933 130.8982064020346)"/><rect x="75" y="75" width="75" height="6" fill="#4ECDC4" opacity="0.6"/><rect x="75" y="75" width="6" height="75" fill="#4ECDC4" opacity="0.6"/><rect x="150" y="75" width="75" height="75" fill="#A8D8EA"/><polygon points="168.71586263352813,72.52658374317764 151.4059440033084,102.50912178628339 186.02578126374786,102.50912178628339" fill="#FCBAD3" opacity="0.9390430630366517"/><path d="M 167.18742728335198 106.89098061441489L 174.97354685967744 122.66738204504144L 192.38383951328302 125.19724565261419L 179.78563339831751 137.4774615644766L 182.7596664360029 154.81740469148454L 167.18742728335198 146.63059408357626L 151.61518813070106 154.81740469148454L 154.58922116838644 137.4774615644766L 141.99101505342094 125.19724565261419L 159.40130770702652 122.66738204504144 Z" fill="#FCBAD3" opacity="0.7095454096838577" transform="rotate(241.20523106362916 167.18742728335198 133.38405626052247)"/><circle cx="200.48893110616547" cy="111.17208660634797" r="12.81682178451066" fill="#AA96DA" opacity="0.7954358309951777"/><circle cx="186.56291262319448" cy="130.2178842016579" r="15.629592688930963" fill="#A8D8EA" opacity="0.9928627939395899"/><rect x="225" y="75" width="75" height="75" fill="#95E1D3"/><path d="M 244.17852223114042 68.26375320065475L 253.94286261983623 88.04846780300164L 275.7765914844068 91.22109431601139L 259.9775568577736 106.62134691098788L 263.7072030085321 128.36685253198385L 244.17852223114042 118.1000174686662L 224.64984145374876 128.36685253198385L 228.3794876045072 106.62134691098788L 212.58045297787402 91.22109431601139L 234.4141818424446 88.04846780300164 Z" fill="#4ECDC4" opacity="0.7936152458626847" transform="rotate(150.95043189402224 244.17852223114042 101.48792937932905)"/><polygon points="265.5872011303842,67.39331602521396 236.38672294663695,117.97151149359834 294.7876793141314,117.97151149359834" fill="#F38181" opacity="0.9600644112844319"/><circle cx="284.59366949489043" cy="130.18822433435741" r="18.1288665565098" fill="#FF6B6B" opacity="0.7845093250668185"/><rect x="248.23151887370344" y="109.64950509160968" width="59.71594693009552" height="41.80116285106686" fill="#AA96DA" opacity="0.7448441028803792" rx="4" transform="rotate(8.070725355330262 278.0894923387512 130.55008651714311)"/><rect x="225" y="75" width="75" height="6" fill="#AA96DA" opacity="0.6"/><rect x="300" y="75" width="75" height="75" fill="#A8D8EA"/><rect x="302.5805130595483" y="104.16578347517215" width="31.66499197909841" height="22.165494385368884" fill="#A8D8EA" opacity="0.7258774608494143" rx="4" transform="rotate(35.38853736379581 318.4130090490975 115.24853066785658)"/><polygon points="331.7308473664945,114.60008026838771 343.9791659215019,132.09767820411253 331.7308473664945,149.59527613983735 319.48252881148716,132.09767820411253" fill="#FCBAD3" opacity="0.7827725500253833"/><circle cx="329.3484623796998" cy="125.93478800539617" r="23.693932598663462" fill="#A8D8EA" opacity="0.8312371969834143"/><polygon points="348.51764024864775,75.31181897807951 328.362986472205,110.22172736683707 368.6722940250905,110.22172736683707" fill="#FF6B6B" opacity="0.9183245183054005"/><rect x="300" y="75" width="75" height="6" fill="#FFE66D" opacity="0.6"/><rect x="300" y="75" width="6" height="75" fill="#FFE66D" opacity="0.6"/><rect x="375" y="75" width="75" height="75" fill="#95E1D3"/><path d="M 426.10796751273233 82.19147488635103L 435.07729807347084 100.36532363129643L 455.13333091994843 103.27963579250411L 440.6206492163404 117.42600418448765L 444.04662863420936 137.40099689888655L 426.10796751273233 127.97008463756418L 408.1693063912553 137.40099689888655L 411.5952858091243 117.42600418448765L 397.0826041055162 103.27963579250411L 417.1386369519938 100.36532363129643 Z" fill="#F38181" opacity="0.7991776824459329" transform="rotate(350.2725078306499 426.10796751273233 112.71054805382647)"/><path d="M 432.8044295510298 72.40140974226009L 441.2371034860906 89.48787339452844L 460.09313563697714 92.22781524793953L 446.44878259400343 105.52777238599214L 449.66977742115137 124.30761323086693L 432.8044295510298 115.44097513883187L 415.9390816809082 124.30761323086693L 419.16007650805614 105.52777238599214L 405.51572346508243 92.22781524793953L 424.371755615969 89.48787339452844 Z" fill="#A8D8EA" opacity="0.9750219823210602" transform="rotate(72.10584643860619 432.8044295510298 101.0944533399746)"/><polygon points="396.4543926745906,73.40621562891464 408.2875151072687,90.31067624702615 396.4543926745906,107.21513686513767 384.62127024191255,90.31067624702615" fill="#FF6B6B" opacity="0.9306595415951029"/><path d="M 405.405573256037 93.53480950686372L 414.09015632389054 111.13169681292034L 433.5094744198548 113.95348890523677L 419.4575238379459 127.65075544889774L 422.77473939174416 146.99160617719158L 405.405573256037 137.86009514808427L 388.03640712032984 146.99160617719158L 391.353622674128 127.65075544889774L 377.3016720922191 113.95348890523677L 396.7209901881834 111.13169681292034 Z" fill="#95E1D3" opacity="0.9282739759554499" transform="rotate(223.56280814090877 405.405573256037 123.08499993434408)"/><rect x="375" y="75" width="75" height="6" fill="#AA96DA" opacity="0.6"/><rect x="375" y="75" width="6" height="75" fill="#AA96DA" opacity="0.6"/><rect x="450" y="75" width="75" height="75" fill="#A8D8EA"/><path d="M 495.88580848224734 71.88832740911205L 503.68896318203815 87.69924576997255L 521.1373475297173 90.23464442468695L 508.5115780059823 102.5417280197629L 511.4921178818289 119.91960892426766L 495.88580848224734 111.71488652755035L 480.2794990826658 119.91960892426766L 483.2600389585124 102.5417280197629L 470.6342694347774 90.23464442468695L 488.08265378245653 87.69924576997255 Z" fill="#4ECDC4" opacity="0.7051174759888637" transform="rotate(200.40552610550336 495.88580848224734 98.43936682140425)"/><rect x="480.18785567322647" y="108.16853956600816" width="49.20558036617263" height="34.443906256320844" fill="#FF6B6B" opacity="0.982408213746924" rx="4" transform="rotate(35.674721019191075 504.7906458563128 125.39049269416859)"/><polygon points="469.89836812247444,76.88558431721087 457.4537977493071,98.44084477881708 482.34293849564176,98.44084477881708" fill="#A8D8EA" opacity="0.9098925248765817"/><rect x="456.6523399217531" y="81.89160121221404" width="34.97361973508895" height="24.481533814562265" fill="#FFE66D" opacity="0.7519661456588498" rx="4" transform="rotate(19.75942612614456 474.13914978929756 94.13236811949517)"/><rect x="450" y="75" width="75" height="6" fill="#FFE66D" opacity="0.6"/><rect x="525" y="75" width="75" height="75" fill="#95E1D3"/><polygon points="575.8051139283018,64.080923551382 594.2593628258372,90.44413626214683 575.8051139283018,116.80734897291165 557.3508650307664,90.44413626214683" fill="#AA96DA" opacity="0.7513230681658364"/><rect x="532.8571052868418" y="102.33862599181647" width="35.80178350829602" height="25.061248455807213" fill="#95E1D3" opacity="0.8300527692446731" rx="4" transform="rotate(37.37041892361381 550.7579970409898 114.86925021972007)"/><rect x="542.140895432509" y="87.85343286661823" width="64.7666591602688" height="45.33666141218816" fill="#4ECDC4" opacity="0.8820370913399556" rx="4" transform="rotate(8.333677057332208 574.5242250126433 110.52176357271232)"/><path d="M 578.737004417338 73.96761104241834L 587.9334472726257 92.60163955900937L 608.4973186482413 95.58974497797274L 593.6171615327896 110.09431336752414L 597.1298901279134 130.57509259500227L 578.737004417338 120.90538033530134L 560.3441187067625 130.57509259500227L 563.8568473018863 110.09431336752414L 548.9766901864347 95.58974497797274L 569.5405615620502 92.60163955900937 Z" fill="#A8D8EA" opacity="0.7755527854317579" transform="rotate(104.80394845120793 578.737004417338 105.25945723767367)"/><rect x="0" y="150" width="75" height="75" fill="#4ECDC4"/><circle cx="33.55358675986229" cy="204.4044292156605" r="28.60795945737416" fill="#F38181" opacity="0.7929694414571716"/><polygon points="49.069494024882786,134.58176682741927 72.73366582852725,168.38772654691138 49.069494024882786,202.1936862664035 25.40532222123832,168.38772654691138" fill="#AA96DA" opacity="0.7225703597173888"/><polygon points="40.4442286609878,138.59952192048056 11.873308776941062,188.087258440192 69.01514854503453,188.087258440192" fill="#95E1D3" opacity="0.9774210573534579"/><circle cx="50.54353551731609" cy="186.29297376670547" r="32.83515484146083" fill="#FCBAD3" opacity="0.8102387190378451"/><rect x="75" y="150" width="75" height="75" fill="#AA96DA"/><polygon points="97.0440816912074,185.39458663745066 80.36602953945683,214.28266773170682 113.72213384295796,214.28266773170682" fill="#AA96DA" opacity="0.929600775348768"/><circle cx="125.54319219456204" cy="179.40008283331994" r="24.918618506597642" fill="#95E1D3" opacity="0.849668192933159"/><polygon points="128.8483107270898,132.62591610610295 154.92484790880692,169.87811207998456 128.8483107270898,207.13030805386617 102.77177354537267,169.87811207998456" fill="#95E1D3" opacity="0.7976517916180434"/><polygon points="95.89256644523357,148.4598114316863 80.3018270565776,175.4645563312059 111.48330583388955,175.4645563312059" fill="#FFE66D" opacity="0.8190535843926731"/><rect x="75" y="150" width="75" height="6" fill="#AA96DA" opacity="0.6"/><rect x="75" y="150" width="6" height="75" fill="#AA96DA" opacity="0.6"/><rect x="150" y="150" width="75" height="75" fill="#FFE66D"/><rect x="153.184836655592" y="181.42985221012722" width="24.454926253275445" height="17.11844837729281" fill="#A8D8EA" opacity="0.8990624041292175" rx="4" transform="rotate(39.09797610673028 165.41229978222972 189.98907639877362)"/><polygon points="194.59237755722944,153.69244650003614 216.50229064171543,184.99232233501613 194.59237755722944,216.2921981699961 172.68246447274345,184.99232233501613" fill="#F38181" opacity="0.9023400903690327"/><path d="M 170.10825634240558 176.594180177359L 175.9842330632268 188.50020944340855L 189.1233164451894 190.4094300146094L 179.6157863937975 199.67698134327986L 181.86020978404804 212.76297381435205L 170.10825634240558 206.5846062619051L 158.35630290076313 212.76297381435205L 160.60072629101367 199.67698134327986L 151.09319623962176 190.40943001460943L 164.23227962158435 188.50020944340855 Z" fill="#A8D8EA" opacity="0.8026892304898655" transform="rotate(228.1425620187738 170.10825634240558 196.58779756705638)"/><path d="M 206.12470151908914 144.47863619342849L 213.99474505317627 160.42508613593776L 231.59269738127782 162.9822182903731L 218.85869945018348 175.394798509178L 221.86478858726343 192.92164303685357L 206.12470151908914 184.64658955765032L 190.38461445091485 192.92164303685357L 193.3907035879948 175.394798509178L 180.65670565690047 162.9822182903731L 198.254657985002 160.42508613593776 Z" fill="#95E1D3" opacity="0.82113238578715" transform="rotate(260.51703942032395 206.12470151908914 171.25727176957636)"/><rect x="150" y="150" width="75" height="6" fill="#95E1D3" opacity="0.6"/><rect x="150" y="150" width="6" height="75" fill="#95E1D3" opacity="0.6"/><rect x="225" y="150" width="75" height="75" fill="#FCBAD3"/><rect x="231.63836851850542" y="171.81489386348514" width="30.205719176542814" height="21.144003423579967" fill="#AA96DA" opacity="0.9488254280056923" rx="4" transform="rotate(3.0105865015697604 246.74122810677682 182.38689557527513)"/><rect x="224.1106747069213" y="161.71085782562653" width="36.9816586442672" height="25.88716105098704" fill="#FF6B6B" opacity="0.910820448496761" rx="4" transform="rotate(39.83725728459529 242.6015040290549 174.65443835112006)"/><polygon points="254.93303240040925,182.92349831628312 239.9220069802108,208.9241197138555 269.9440578206077,208.9241197138555" fill="#95E1D3" opacity="0.7105160921861027"/><polygon points="272.1379280239986,140.38644721574917 250.23293637100394,178.32811867012788 294.0429196769932,178.32811867012788" fill="#FCBAD3" opacity="0.8513375282992317"/><rect x="225" y="150" width="6" height="75" fill="#4ECDC4" opacity="0.6"/><rect x="300" y="150" width="75" height="75" fill="#FFE66D"/><circle cx="355.03871532158865" cy="182.0139598925663" r="14.471669198582726" fill="#FF6B6B" opacity="0.8666013807834132"/><path d="M 319.51270938129755 154.02488383011652L 323.09021468827484 161.27370133025912L 331.0897597445424 162.4361032678738L 325.30123456291994 168.07852079882164L 326.6677199952522 176.04574220499885L 319.51270938129755 172.28413051770028L 312.3576987673429 176.04574220499885L 313.72418419967516 168.07852079882164L 307.9356590180527 162.4361032678738L 315.93520407432027 161.27370133025912 Z" fill="#4ECDC4" opacity="0.8952633992746767" transform="rotate(227.74868498917144 319.51270938129755 166.19771495517236)"/><path d="M 317.500162125798 144.87567297701057L 326.208071952678 162.51982545936826L 345.67955026752014 165.34919687514164L 331.58985619665907 179.08325422769792L 334.915981779558 198.476054411801L 317.500162125798 189.32001617676346L 300.084342472038 198.476054411801L 303.4104680549369 179.08325422769792L 289.32077398407586 165.34919687514167L 308.792252298918 162.51982545936826 Z" fill="#4ECDC4" opacity="0.7535064935933362" transform="rotate(311.0977186221153 317.500162125798 174.50523511017917)"/><path d="M 322.2379785809843 145.22406912943072L 330.512956745957 161.99100625138658L 349.0163704351624 164.67970964308344L 335.6271745080733 177.73095006338136L 338.78793491092966 196.159597267073L 322.2379785809843 187.45877032020772L 305.68802225103894 196.159597267073L 308.8487826538953 177.73095006338136L 295.4595867268062 164.67970964308344L 313.9630004160116 161.99100625138658 Z" fill="#FFE66D" opacity="0.8638920546341184" transform="rotate(286.6872884178009 322.2379785809843 173.38053658994872)"/><rect x="300" y="150" width="75" height="6" fill="#FFE66D" opacity="0.6"/><rect x="300" y="150" width="6" height="75" fill="#FFE66D" opacity="0.6"/><rect x="375" y="150" width="75" height="75" fill="#FCBAD3"/><polygon points="429.28475977819636,163.50420088030128 448.68281411510327,191.21570707588256 429.28475977819636,218.92721327146384 409.88670544128945,191.21570707588256" fill="#A8D8EA" opacity="0.7317379713206262"/><circle cx="423.29935269118255" cy="176.2406444601904" r="19.806904796770265" fill="#F38181" opacity="0.74403057100439"/><circle cx="396.2634046404918" cy="178.16813618557907" r="30.06615736466653" fill="#95E1D3" opacity="0.8949684859230036"/><polygon points="410.55553258422555,164.00972888351404 392.1834249072177,195.83208629172623 428.92764026123336,195.83208629172623" fill="#FF6B6B" opacity="0.9694869400325636"/><rect x="375" y="150" width="75" height="6" fill="#95E1D3" opacity="0.6"/><rect x="375" y="150" width="6" height="75" fill="#95E1D3" opacity="0.6"/><rect x="450" y="150" width="75" height="75" fill="#FFE66D"/><polygon points="504.13333298598104,176.94892556555521 522.0768359234565,202.58250119052013 504.13333298598104,228.21607681548505 486.1898300485056,202.58250119052013" fill="#95E1D3" opacity="0.74135029317874"/><polygon points="468.641565443781,180.49516038351933 455.208732697941,203.76219169848468 482.07439818962104,203.76219169848468" fill="#A8D8EA" opacity="0.961312398436159"/><rect x="470.69326949163496" y="157.5189105460392" width="42.878776574683734" height="30.015143602278613" fill="#4ECDC4" opacity="0.8950900436356152" rx="4" transform="rotate(44.90526976292267 492.1326577789768 172.5264823471785)"/><path d="M 476.58568382802684 159.55267668040594L 481.72048403778524 169.95691830309175L 493.2022463576853 171.62531602746313L 484.89396509285604 179.72388870182067L 486.8552842475437 191.159256824921L 476.58568382802684 185.76020837534926L 466.31608340851 191.159256824921L 468.27740256319765 179.72388870182067L 459.9691212983684 171.62531602746313L 471.45088361826845 169.95691830309175 Z" fill="#95E1D3" opacity="0.8001541227568658" transform="rotate(192.40678319353927 476.58568382802684 177.02436447703482)"/><rect x="450" y="150" width="6" height="75" fill="#95E1D3" opacity="0.6"/><rect x="525" y="150" width="75" height="75" fill="#FCBAD3"/><polygon points="568.9200174943171,176.22203440520542 586.1140727876867,200.78497053859056 568.9200174943171,225.3479066719757 551.7259622009475,200.78497053859056" fill="#FF6B6B" opacity="0.8378395796464009"/><circle cx="544.5764614662977" cy="183.86316866560986" r="12.308133468524614" fill="#FCBAD3" opacity="0.7082063347139425"/><circle cx="542.1785986247373" cy="194.01437827805728" r="34.07224507202499" fill="#F38181" opacity="0.9186092616145541"/><rect x="537.7805654746622" y="193.5331659337544" width="24.67360407215245" height="17.271522850506713" fill="#F38181" opacity="0.8948438615514169" rx="4" transform="rotate(32.480456844195935 550.1173675107385 202.16892735900774)"/><rect x="525" y="150" width="6" height="75" fill="#A8D8EA" opacity="0.6"/><rect x="0" y="225" width="75" height="75" fill="#F38181"/><circle cx="36.730379025326286" cy="282.90958823771666" r="25.800392485480007" fill="#FCBAD3" opacity="0.725529730331865"/><path d="M 44.68884588670397 264.67736454490915L 49.83203525043109 275.09860445016386L 61.33255628887881 276.7697279758944L 53.01070108779139 284.8815319679891L 54.97522461415821 296.33558301154477L 44.68884588670397 290.92771368348167L 34.40246715924974 296.33558301154477L 36.36699068561656 284.8815319679891L 28.045135484529133 276.7697279758944L 39.545656522976856 275.09860445016386 Z" fill="#FFE66D" opacity="0.9279615254271596" transform="rotate(198.22344312361605 44.68884588670397 282.1775973039575)"/><circle cx="47.98033745632523" cy="271.35224463015436" r="13.136589826031862" fill="#4ECDC4" opacity="0.8213572353689732"/><polygon points="48.81109537268574,219.4134132520591 16.665001690633368,275.09371408702276 80.95718905473811,275.09371408702276" fill="#FCBAD3" opacity="0.9247865677926627"/><rect x="0" y="225" width="75" height="6" fill="#AA96DA" opacity="0.6"/><rect x="0" y="225" width="6" height="75" fill="#AA96DA" opacity="0.6"/><rect x="75" y="225" width="75" height="75" fill="#4ECDC4"/><polygon points="105.90569258476873,224.78969871813416 131.53474672215978,261.4026332001214 105.90569258476873,298.0155676821086 80.27663844737768,261.4026332001214" fill="#FCBAD3" opacity="0.8802986622696269"/><path d="M 103.65280867258683 218.20082008347418L 114.54197992138819 240.26469094801618L 138.89090705234432 243.8027971624048L 121.27185786246558 260.9771254944689L 125.43115117018957 285.2276662553103L 103.65280867258683 273.77811403393423L 81.8744661749841 285.2276662553103L 86.03375948270808 260.9771254944689L 68.41471029282934 243.8027971624048L 92.76363742378547 240.26469094801618 Z" fill="#4ECDC4" opacity="0.7165062427597615" transform="rotate(257.5049508817051 103.65280867258683 255.25234938378088)"/><rect x="79.96513232645351" y="266.6447322231344" width="43.01055372716419" height="30.10738760901493" fill="#FCBAD3" opacity="0.7473023653250663" rx="4" transform="rotate(35.46973721844598 101.47040919003561 281.69842602764186)"/><polygon points="110.67899466523853,262.47927726885735 122.06042129927567,278.73845817462467 110.67899466523853,294.997639080392 99.2975680312014,278.73845817462467" fill="#4ECDC4" opacity="0.7074659913813071"/><rect x="75" y="225" width="6" height="75" fill="#FFE66D" opacity="0.6"/><rect x="150" y="225" width="75" height="75" fill="#AA96DA"/><rect x="160.69622241284057" y="239.4640031565628" width="28.74644950323107" height="20.122514652261746" fill="#F38181" opacity="0.8041636497267353" rx="4" transform="rotate(44.21522857817599 175.0694471644561 249.52526048269368)"/><circle cx="191.16846935179478" cy="269.574031247559" r="36.09472857082483" fill="#95E1D3" opacity="0.7631496072109554"/><rect x="185.66515626009328" y="266.17625008618984" width="30.728847388284674" height="21.51019317179927" fill="#4ECDC4" opacity="0.8572706551092074" rx="4" transform="rotate(33.50002349982971 201.02957995423563 276.9313466720895)"/><polygon points="205.36564173193912,234.6122392666816 215.89963932476223,249.6608072564289 205.36564173193912,264.7093752461762 194.831644139116,249.6608072564289" fill="#95E1D3" opacity="0.973181218036069"/><rect x="225" y="225" width="75" height="75" fill="#4ECDC4"/><polygon points="255.60283900033815,251.67914808864202 227.49501348724473,300.3647580997738 283.71066451343154,300.3647580997738" fill="#FCBAD3" opacity="0.8995233059858545"/><rect x="253.62192572321368" y="263.141904666562" width="61.430622357377146" height="43.001435650164" fill="#A8D8EA" opacity="0.8497071743708602" rx="4" transform="rotate(4.078524114600627 284.33723690190226 284.64262249164403)"/><polygon points="278.6629647196564,228.9809520543697 255.98264509713516,268.26557033818244 301.3432843421776,268.26557033818244" fill="#FFE66D" opacity="0.775640261208471"/><polygon points="244.08456981372302,241.3985274791012 230.91013927311295,264.2179799166475 257.25900035433307,264.2179799166475" fill="#FCBAD3" opacity="0.9806122155304123"/><rect x="300" y="225" width="75" height="75" fill="#AA96DA"/><circle cx="324.76659492113004" cy="267.18811781480355" r="18.553949299875622" fill="#F38181" opacity="0.9984770060975463"/><polygon points="324.12233233876634,215.67490718649927 345.4183495820236,246.0977889625811 324.12233233876634,276.5206707386629 302.8263150955091,246.0977889625811" fill="#FCBAD3" opacity="0.8787067890999404"/><polygon points="319.5619386455798,234.4117002215524 288.9087183536455,287.5061926440714 350.2151589375141,287.5061926440714" fill="#4ECDC4" opacity="0.925143122777875"/><circle cx="330.35593746945074" cy="245.9149897126085" r="36.82474126367585" fill="#A8D8EA" opacity="0.78005793098363"/><rect x="375" y="225" width="75" height="75" fill="#4ECDC4"/><circle cx="424.15064425866615" cy="268.4612846507045" r="28.581955440962666" fill="#4ECDC4" opacity="0.9669357301047703"/><polygon points="430.004541296514,245.67734197570354 450.0954349433167,274.3786186139931 430.004541296514,303.0798952522827 409.91364764971127,274.3786186139931" fill="#4ECDC4" opacity="0.7125424027501337"/><polygon points="420.8426678324317,258.5235831280116 399.03054590801383,296.30439477538664 442.65478975684954,296.30439477538664" fill="#95E1D3" opacity="0.7903571844521711"/><rect x="380.4542528100797" y="271.06770021046634" width="25.760903658001173" height="18.03263256060082" fill="#A8D8EA" opacity="0.7423154324490183" rx="4" transform="rotate(42.67751010259497 393.3347046390803 280.08401649076677)"/><rect x="450" y="225" width="75" height="75" fill="#AA96DA"/><polygon points="507.3101252514451,258.2616515595054 487.5428017578858,292.5006645391116 527.0774487450044,292.5006645391116" fill="#FCBAD3" opacity="0.9739105821931318"/><path d="M 470.53686797876696 259.8442755784347L 473.8967854962639 266.6522120620973L 481.40978946417937 267.74391544125L 475.97332872147314 273.04315496055665L 477.2567030137608 280.52580123816875L 470.53686797876696 276.9929748919643L 463.81703294377314 280.52580123816875L 465.1004072360608 273.04315496055665L 459.66394649335456 267.74391544125L 467.17695046127005 266.6522120620973 Z" fill="#F38181" opacity="0.9515090306529351" transform="rotate(181.73575409768884 470.53686797876696 271.27674178745445)"/><path d="M 496.454549446448 236.1983421107048L 499.80499375875496 242.98708378410961L 507.29681499590083 244.07570913230964L 501.87568222117443 249.3600075755167L 503.1554380710619 256.82155671512385L 496.454549446448 253.29869108631914L 489.75366082183416 256.82155671512385L 491.0334166717216 249.3600075755167L 485.6122838969952 244.07570913230964L 493.1041051341411 242.98708378410961 Z" fill="#4ECDC4" opacity="0.9136760880302992" transform="rotate(28.31807614691466 496.454549446448 247.59857476111435)"/><polygon points="481.91378475023146,225.28983782815737 494.89734410402474,243.83777976214782 481.91378475023146,262.38572169613826 468.9302253964382,243.83777976214782" fill="#AA96DA" opacity="0.786093938390768"/><rect x="450" y="225" width="75" height="6" fill="#4ECDC4" opacity="0.6"/><rect x="525" y="225" width="75" height="75" fill="#4ECDC4"/><path d="M 573.8477879920266 242.66756103090827L 577.8649389798445 250.8071979797108L 586.8475616644859 252.11244945839434L 580.3476748282562 258.4482732275223L 581.8820899676624 267.3945999540173L 573.8477879920266 263.1707174412653L 565.8134860163908 267.3945999540173L 567.347901155797 258.4482732275223L 560.8480143195674 252.11244945839434L 569.8306370042087 250.80719797971082 Z" fill="#4ECDC4" opacity="0.9482615919077124" transform="rotate(108.66989140802524 573.8477879920266 256.3363319711463)"/><circle cx="570.821029111194" cy="244.95377719632992" r="22.297229809242875" fill="#A8D8EA" opacity="0.8296151400215994"/><circle cx="571.0021640504721" cy="271.75620140123937" r="27.723256506246166" fill="#95E1D3" opacity="0.8825510383502352"/><path d="M 579.8847752995252 261.63682983856967L 584.0855643343142 270.14855811201096L 593.478814175238 271.51347720913316L 586.6817947373817 278.13893368224547L 588.2863533691032 287.4942283496021L 579.8847752995252 283.07725736752724L 571.4831972299473 287.4942283496021L 573.0877558616688 278.13893368224547L 566.2907364238125 271.51347720913316L 575.6839862647363 270.14855811201096 Z" fill="#AA96DA" opacity="0.9203929395509851" transform="rotate(85.95016483494554 579.8847752995252 275.93044819120803)"/><rect x="0" y="300" width="75" height="75" fill="#FF6B6B"/><circle cx="16.54377892685299" cy="354.8989775962657" r="24.019323891387007" fill="#FCBAD3" opacity="0.8677341223544134"/><rect x="2.2382229559534323" y="307.27092750377295" width="55.440379694542095" height="38.80826578617946" fill="#FCBAD3" opacity="0.7976517558552565" rx="4" transform="rotate(35.567341463438865 29.95841280322448 326.6750603968627)"/><circle cx="54.10836966666783" cy="329.1673743790795" r="18.049790564365587" fill="#4ECDC4" opacity="0.7810349703212431"/><circle cx="29.589619624703012" cy="317.11412787535886" r="31.23024155384872" fill="#FFE66D" opacity="0.9078579307570391"/><rect x="0" y="300" width="6" height="75" fill="#F38181" opacity="0.6"/><rect x="75" y="300" width="75" height="75" fill="#F38181"/><circle cx="103.39766756323988" cy="356.5928918316927" r="27.89602831781191" fill="#FFE66D" opacity="0.9440400005523302"/><path d="M 92.14457094769207 319.9246229306676L 102.05930545245994 340.01406929634004L 124.22932578398357 343.23556181985913L 108.18694836583782 358.87301501253177L 111.97403995722779 380.95345325224264L 92.14457094769207 370.5284844571275L 72.31510193815636 380.95345325224264L 76.10219352954633 358.87301501253177L 60.059816111400565 343.23556181985913L 82.22983644292421 340.01406929634004 Z" fill="#F38181" opacity="0.7798902035131539" transform="rotate(74.24028400063528 92.14457094769207 353.6605306149742)"/><circle cx="94.72637012820988" cy="347.56374748077417" r="27.368409641142193" fill="#F38181" opacity="0.7671184540107466"/><polygon points="94.76934850438002,323.34567234832593 79.60994113117104,349.6033063665863 109.928755877589,349.6033063665863" fill="#FFE66D" opacity="0.7673122257307694"/><rect x="75" y="300" width="75" height="6" fill="#FF6B6B" opacity="0.6"/><rect x="150" y="300" width="75" height="75" fill="#FF6B6B"/><path d="M 171.15764916229884 284.05063188648813L 181.95634455351814 305.9311786400911L 206.1029615165982 309.43988746631777L 188.6303053394485 326.47151787870223L 192.75503994473746 350.52056594354L 171.15764916229884 339.16614566861705L 149.56025837986022 350.52056594354L 153.68499298514917 326.47151787870223L 136.21233680799946 309.43988746631777L 160.35895377107954 305.9311786400911 Z" fill="#FF6B6B" opacity="0.9423746348556012" transform="rotate(287.9021359830639 171.15764916229884 320.79430774124074)"/><rect x="150.43542411024004" y="302.38726985606473" width="59.9732787336564" height="41.981295113559476" fill="#FF6B6B" opacity="0.7912471771665137" rx="4" transform="rotate(2.936525346216059 180.42206347706824 323.37791741284445)"/><circle cx="180.93823968243703" cy="344.843389405796" r="32.502118806006436" fill="#A8D8EA" opacity="0.8149571538506807"/><polygon points="190.70568503146325,325.08072272936386 213.1744923332238,357.1790188747361 190.70568503146325,389.2773150201083 168.23687772970268,357.1790188747361" fill="#95E1D3" opacity="0.8197708249649828"/><rect x="150" y="300" width="6" height="75" fill="#A8D8EA" opacity="0.6"/><rect x="225" y="300" width="75" height="75" fill="#F38181"/><circle cx="253.0948139788093" cy="334.32648004001305" r="23.740167176579206" fill="#95E1D3" opacity="0.9632646442685577"/><rect x="242.47138247532834" y="316.8004706696027" width="60.71523340335825" height="42.50066338235077" fill="#FFE66D" opacity="0.7840109706316194" rx="4" transform="rotate(29.410620345459613 272.82899917700746 338.0508023607781)"/><circle cx="264.693019699628" cy="340.93622089640064" r="30.813951203396524" fill="#4ECDC4" opacity="0.8609267473970198"/><circle cx="258.9931632666817" cy="340.79757751235627" r="34.990562360612934" fill="#AA96DA" opacity="0.9012604118330685"/><rect x="300" y="300" width="75" height="75" fill="#FF6B6B"/><path d="M 321.4630293876226 306.52232498059624L 328.3052578634046 320.3861941462101L 343.604945852838 322.6093689441173L 332.5339876202303 333.40088610195556L 335.1474863391866 348.6387528556083L 321.4630293876226 341.44440808371616L 307.7785724360586 348.6387528556083L 310.39207115501495 333.40088610195556L 299.3211129224072 322.6093689441173L 314.6208009118406 320.3861941462101 Z" fill="#AA96DA" opacity="0.8927709699574722" transform="rotate(50.94150068747881 321.4630293876226 329.8037137160095)"/><polygon points="342.86802293167824,327.7143001667989 364.6254902080402,358.79639627588745 342.86802293167824,389.87849238497597 321.11055565531626,358.79639627588745" fill="#4ECDC4" opacity="0.8027833939077255"/><circle cx="334.16942731438644" cy="334.4946116299809" r="28.178855635658305" fill="#FCBAD3" opacity="0.936047089209802"/><circle cx="318.1876362688782" cy="351.58424401496734" r="13.301813901426183" fill="#4ECDC4" opacity="0.932257351387412"/><rect x="375" y="300" width="75" height="75" fill="#F38181"/><rect x="392.77591288742883" y="329.1641351683248" width="59.3962133102567" height="41.57734931717969" fill="#F38181" opacity="0.7381762027918249" rx="4" transform="rotate(8.606223020984896 422.4740195425572 349.95280982691463)"/><path d="M 416.4809668187429 322.517374464668L 425.50264912138755 340.7972994248331L 445.6757440215079 343.7286216981182L 431.0783554201254 357.9575589085829L 434.52433142403225 378.04914066561776L 416.4809668187429 368.563182525308L 398.43760221345354 378.04914066561776L 401.8835782173604 357.9575589085829L 387.2861896159779 343.7286216981182L 407.45928451609825 340.7972994248331 Z" fill="#A8D8EA" opacity="0.8296793699868392" transform="rotate(331.0040761581641 416.4809668187429 353.214579838428)"/><rect x="375" y="300" width="75" height="6" fill="#AA96DA" opacity="0.6"/><rect x="375" y="300" width="6" height="75" fill="#AA96DA" opacity="0.6"/><rect x="450" y="300" width="75" height="75" fill="#FF6B6B"/><polygon points="473.3560252228547,308.9599936479749 462.29626446887795,328.1166231294589 484.4157859768315,328.1166231294589" fill="#FF6B6B" opacity="0.9958996446318457"/><circle cx="468.0176259591326" cy="343.0602058898938" r="18.78533184879242" fill="#FFE66D" opacity="0.9989083768329157"/><rect x="450" y="300" width="75" height="6" fill="#4ECDC4" opacity="0.6"/><rect x="450" y="300" width="6" height="75" fill="#4ECDC4" opacity="0.6"/><rect x="525" y="300" width="75" height="75" fill="#F38181"/><circle cx="572.1711672992311" cy="322.61566579696523" r="36.836760689312015" fill="#AA96DA" opacity="0.7019947767266979"/><circle cx="558.6395922948791" cy="353.4056228578117" r="33.17203984685337" fill="#FF6B6B" opacity="0.9855469347376129"/><rect x="525" y="300" width="6" height="75" fill="#FFE66D" opacity="0.6"/><rect x="0" y="375" width="75" height="75" fill="#95E1D3"/><path d="M 49.56431867301666 401.68178201789584L 55.227379916852236 413.15639740662294L 67.8903698188131 414.9964375457183L 58.72734424591488 423.9281800028797L 60.890441160687814 436.5400027382318L 49.56431867301666 430.5855077667909L 38.2381961853455 436.5400027382318L 40.40129310011844 423.9281800028797L 31.23826752722021 414.9964375457183L 43.90125742918108 413.15639740662294 Z" fill="#AA96DA" opacity="0.8430388451288635" transform="rotate(184.07283791530543 49.56431867301666 420.95093251715923)"/><path d="M 18.126168252493336 381.66749149696784L 28.937814779512273 403.57428011795474L 53.11339136262613 407.0871970232913L 35.61977980755974 424.1392538807572L 39.74946130653121 448.2171445488962L 18.126168252493333 436.84910664391896L -3.4971248015445404 448.2171445488962L 0.6325566974269314 424.1392538807572L -16.86105485763947 407.0871970232913L 7.314521725474393 403.57428011795474 Z" fill="#FFE66D" opacity="0.8138992906147144" transform="rotate(35.394988076479635 18.126168252493333 418.45523492826857)"/><rect x="20.995072544200845" y="369.01894898474865" width="66.81406239248535" height="46.76984367473975" fill="#4ECDC4" opacity="0.7441008448806129" rx="4" transform="rotate(33.07147221317118 54.40210374044352 392.4038708221185)"/><polygon points="21.0515785245465,383.21923524349427 -2.1771432359864242,423.4537417571194 44.28030028507942,423.4537417571194" fill="#FFE66D" opacity="0.8777810693615028"/><rect x="0" y="375" width="75" height="6" fill="#95E1D3" opacity="0.6"/><rect x="0" y="375" width="6" height="75" fill="#95E1D3" opacity="0.6"/><rect x="75" y="375" width="75" height="75" fill="#A8D8EA"/><polygon points="118.7396335735636,379.2470375823309 129.32797893483794,394.3732452412943 118.7396335735636,409.49945290025767 108.15128821228923,394.3732452412943" fill="#AA96DA" opacity="0.9424017251666643"/><circle cx="91.41735568708617" cy="402.5589689670871" r="23.038673629885853" fill="#FFE66D" opacity="0.9897245468058271"/><polygon points="132.3489046294004,385.97754836419017 153.24779501155612,415.8331060529841 132.3489046294004,445.688663741778 111.45001424724468,415.8331060529841" fill="#FFE66D" opacity="0.7342907905738292"/><rect x="103.63134083565387" y="383.0055733662474" width="45.173344697185485" height="31.621341288029836" fill="#95E1D3" opacity="0.8676192522829488" rx="4" transform="rotate(24.54048515508905 126.21801318424662 398.8162440102623)"/><rect x="150" y="375" width="75" height="75" fill="#95E1D3"/><polygon points="187.10785032348141,400.8598753912886 162.0632429315549,444.2396803426625 212.15245771540793,444.2396803426625" fill="#A8D8EA" opacity="0.7550315618771275"/><polygon points="165.87170183699192,396.12645490904174 153.19263748877455,418.0878827639217 178.55076618520928,418.0878827639217" fill="#FCBAD3" opacity="0.7978222817638061"/><polygon points="200.32355548596175,394.282080538353 220.57374235228576,423.2109189188159 200.32355548596175,452.13975729927876 180.07336861963773,423.2109189188159" fill="#F38181" opacity="0.8159717083517329"/><path d="M 167.09300279714773 409.402017309634L 171.20834606398756 417.74061354695664L 180.4105333593875 419.07776963111235L 173.75176807826762 425.5684616083954L 175.3236893308274 434.73346575399L 167.09300279714773 430.4063377691346L 158.86231626346807 434.73346575399L 160.43423751602785 425.5684616083954L 153.77547223490797 419.07776963111235L 162.9776595303079 417.74061354695664 Z" fill="#AA96DA" opacity="0.7632579058703304" transform="rotate(74.61650136607537 167.09300279714773 423.40489761596774)"/><rect x="150" y="375" width="75" height="6" fill="#4ECDC4" opacity="0.6"/><rect x="225" y="375" width="75" height="75" fill="#A8D8EA"/><polygon points="268.436779989133,379.88648772292606 236.20396057167392,435.71700634439105 300.6695994065921,435.71700634439105" fill="#AA96DA" opacity="0.9954312325899635"/><rect x="259.55522419456634" y="410.5322595967014" width="34.683773523282156" height="24.278641466297508" fill="#FCBAD3" opacity="0.9046212286709906" rx="4" transform="rotate(42.58851708964841 276.8971109562074 422.67158032985014)"/><path d="M 260.8553928233941 381.0061253617779L 269.48298629542086 398.48753913415453L 288.7748717811061 401.2908141843065L 274.8151323022501 414.8981971171877L 278.1105797674476 434.1121301503728L 260.8553928233941 425.04054152845197L 243.60020587934056 434.1121301503728L 246.89565334453806 414.8981971171877L 232.93591386568207 401.2908141843065L 252.2277993513673 398.48753913415453 Z" fill="#AA96DA" opacity="0.9096630216621155" transform="rotate(131.00780016323915 260.8553928233941 410.3624028062273)"/><polygon points="269.55917717402764,362.7798112267767 289.3177571810981,391.00635409402025 269.55917717402764,419.2328969612638 249.80059716695717,391.00635409402025" fill="#4ECDC4" opacity="0.9591516734376324"/><rect x="225" y="375" width="75" height="6" fill="#F38181" opacity="0.6"/><rect x="225" y="375" width="6" height="75" fill="#F38181" opacity="0.6"/><rect x="300" y="375" width="75" height="75" fill="#95E1D3"/><polygon points="352.8385126766928,397.4854526010972 373.78756045685736,427.412663715618 352.8385126766928,457.3398748301388 331.88946489652824,427.412663715618" fill="#FF6B6B" opacity="0.7783966780073925"/><polygon points="338.0063688862167,382.9456545059549 347.2927554177203,396.21192097953144 338.0063688862167,409.478187453108 328.7199823547131,396.21192097953144" fill="#AA96DA" opacity="0.9918648780751343"/><rect x="300" y="375" width="75" height="6" fill="#A8D8EA" opacity="0.6"/><rect x="300" y="375" width="6" height="75" fill="#A8D8EA" opacity="0.6"/><rect x="375" y="375" width="75" height="75" fill="#A8D8EA"/><rect x="400.0017750362175" y="414.2682355791997" width="26.35077238262201" height="18.445540667835406" fill="#A8D8EA" opacity="0.7701136678783752" rx="4" transform="rotate(22.594003389866096 413.17716122752853 423.4910059131174)"/><rect x="377.33376145296904" y="391.4520210965197" width="31.83853984313949" height="22.28697789019764" fill="#FF6B6B" opacity="0.7894051164804982" rx="4" transform="rotate(10.693511371823732 393.2530313745388 402.59551004161847)"/><rect x="375" y="375" width="75" height="6" fill="#FCBAD3" opacity="0.6"/><rect x="375" y="375" width="6" height="75" fill="#FCBAD3" opacity="0.6"/><rect x="450" y="375" width="75" height="75" fill="#95E1D3"/><rect x="465.6337657626177" y="414.11268877982525" width="44.783940027600124" height="31.348758019320083" fill="#95E1D3" opacity="0.7581247926029026" rx="4" transform="rotate(32.98496560798258 488.0257357764178 429.78706778948526)"/><path d="M 474.894615416366 364.3766805695494L 482.5096525982524 379.80643120629526L 499.5373933881388 382.2807067742361L 487.2160044022524 394.29109267362116L 490.1246897801388 411.2500297088879L 474.894615416366 403.24310577596447L 459.66454105259317 411.2500297088879L 462.57322643047956 394.29109267362116L 450.25183744459315 382.2807067742361L 467.2795782344796 379.80643120629526 Z" fill="#FCBAD3" opacity="0.8200452328287275" transform="rotate(185.26811608358665 474.894615416366 390.28763070715945)"/><rect x="450" y="375" width="6" height="75" fill="#95E1D3" opacity="0.6"/><rect x="525" y="375" width="75" height="75" fill="#A8D8EA"/><path d="M 563.6698454728676 370.49664135638L 572.0293504338421 387.434848473909L 590.7217717848278 390.1510162864863L 577.1958086288477 403.3355718061819L 580.3888553948166 421.95246295103215L 563.6698454728676 413.1627592712351L 546.9508355509186 421.95246295103215L 550.1438823168875 403.3355718061819L 536.6179191609074 390.1510162864863L 555.3103405118931 387.434848473909 Z" fill="#95E1D3" opacity="0.8391030073813642" transform="rotate(119.04553418934603 563.6698454728676 398.9407199662834)"/><polygon points="563.6400139441901,402.89886207512995 546.857036199551,431.9686849584541 580.4229916888291,431.9686849584541" fill="#F38181" opacity="0.9661470176028772"/><rect x="525" y="375" width="75" height="6" fill="#AA96DA" opacity="0.6"/><rect x="525" y="375" width="6" height="75" fill="#AA96DA" opacity="0.6"/>
  <text x="300" y="234.45" text-anchor="middle" font-family="Georgia, serif" font-size="27" font-weight="bold" fill="#000" opacity="0.5" transform="translate(2, 2)">Stay curious and open.</text><text x="300" y="234.45" text-anchor="middle" font-family="Georgia, serif" font-size="27" font-weight="bold" fill="#FFFFFF" stroke="#000" stroke-width="1">Stay curious and open.</text>
</svg>