<svg xmlns="http://www.w3.org/2000/svg" viewBox="0 0 600 450" width="600" height="450">
  <rect x="0" y="0" width="75" height="75" fill="#FF8000"/><polygon points="33.92483533309998,28.256972294536876 45.27111148387012,44.465938224208514 33.92483533309998,60.67490415388015 22.578559182329833,44.465938224208514" fill="#8000FF" opacity="0.9746304960337608"/><circle cx="23.120185289587912" cy="15.112585723452543" r="18.332623272823458" fill="#0000FF" opacity="0.9572928668266594"/><rect x="0" y="0" width="75" height="6" fill="#FF8000" opacity="0.6"/><rect x="0" y="0" width="6" height="75" fill="#FF8000" opacity="0.6"/><rect x="75" y="0" width="75" height="75" fill="#FFFF00"/><path d="M 102.7903926432088 8.589515986311952L 113.41607162018693 30.11949319389149L 137.1758121198004 33.571985579359605L 119.98310238150461 50.330735656122414L 124.04175059716505 73.99447050382145L 102.7903926432088 62.82197045264624L 81.53903468925256 73.99447050382145L 85.597682904913 50.330735656122414L 68.40497316661718 33.571985579359605L 92.16471366623068 30.119493193891493 Z" fill="#FF8000" opacity="0.7527374506242281" transform="rotate(143.00689823134192 102.7903926432088 44.74448563053481)"/><circle cx="124.80817036461465" cy="45.02305985895128" r="23.19244623740318" fill="#8000FF" opacity="0.9363502503541997"/><polygon points="104.48418617923008,24.301378736529216 127.90245081392464,57.75604250037859 104.48418617923008,91.21070626422797 81.06592154453551,57.75604250037859" fill="#FFFF00" opacity="0.7668209076238893"/><rect x="63.85996609232853" y="4.668913542080627" width="69.56824602888351" height="48.697772220218454" fill="#00FF00" opacity="0.9662700415897509" rx="4" transform="rotate(6.637383702507887 98.64408910677028 29.017799652189854)"/><rect x="75" y="0" width="75" height="6" fill="#00FFFF" opacity="0.6"/><rect x="150" y="0" width="75" height="75" fill="#8000FF"/><polygon points="203.18314971317685,15.91750279635541 181.4726906317357,53.522224069059476 224.893608794618,53.522224069059476" fill="#FF00FF" opacity="0.849544346402187"/><polygon points="168.79581391988128,8.051412554598137 149.07655636916826,42.20717043689553 188.5150714705943,42.20717043689553" fill="#FFFF00" opacity="0.8620140791693768"/><rect x="150" y="0" width="6" height="75" fill="#FF00FF" opacity="0.6"/><rect x="225" y="0" width="75" height="75" fill="#00FF00"/><circle cx="258.5759079356566" cy="27.16825962633279" r="32.555469284442005" fill="#00FF00" opacity="0.957863140226278"/><rect x="253.19203020280318" y="40.85131539484781" width="50.56821586008566" height="35.39775110205996" fill="#00FF00" opacity="0.9836134911904173" rx="4" transform="rotate(10.58425426976022 278.476138132846 58.55019094587779)"/><polygon points="240.38713395613578,-8.89871623956073 217.73860683703847,30.330834197674804 263.0356610752331,30.330834197674804" fill="#FF8000" opacity="0.9038007141108628"/><path d="M 258.96441937376017 35.33151270429674L 262.32694321249664 42.1447301716033L 269.845775091875 43.23728039586146L 264.4050972328176 48.54063058765956L 265.6894670512331 56.02908122797398L 258.96441937376017 52.49351443344192L 252.2393716962872 56.02908122797398L 253.52374151470275 48.54063058765956L 248.08306365564536 43.23728039586147L 255.6018955350237 42.1447301716033 Z" fill="#0000FF" opacity="0.8394728739464064" transform="rotate(230.58517466792148 258.96441937376017 46.77284719039353)"/><rect x="225" y="0" width="75" height="6" fill="#FF0000" opacity="0.6"/><rect x="225" y="0" width="6" height="75" fill="#FF0000" opacity="0.6"/><rect x="300" y="0" width="75" height="75" fill="#8000FF"/><circle cx="341.7327591901332" cy="43.489083064947785" r="36.684462737960025" fill="#0000FF" opacity="0.9331841708315463"/><polygon points="333.4482228841857,26.015924523708378 351.2011022997676,51.37718083168249 333.4482228841857,76.7384371396566 315.6953434686038,51.37718083168249" fill="#FF00FF" opacity="0.882294011200915"/><rect x="300" y="0" width="6" height="75" fill="#0000FF" opacity="0.6"/><rect x="375" y="0" width="75" height="75" fill="#00FF00"/><rect x="373.69111999633776" y="36.292967020146534" width="45.64061434154427" height="31.94843003908099" fill="#FFFF00" opacity="0.7438223242963767" rx="4" transform="rotate(1.4803071326950132 396.5114271671099 52.26718203968703)"/><path d="M 422.9637158070522 -1.807704272474023L 431.72132277235994 15.937145610957854L 451.3039272670136 18.78266460585282L 437.1338215370329 32.59510395397329L 440.4789297376676 52.0985812918837L 422.9637158070522 42.890288393136714L 405.4485018764368 52.0985812918837L 408.79361007707155 32.59510395397329L 394.62350434709083 18.782664605852823L 414.2061088417445 15.937145610957856 Z" fill="#8000FF" opacity="0.7950675726379582" transform="rotate(74.73801616334264 422.9637158070522 27.990957504599802)"/><polygon points="393.0786234154732,-0.8118961772704054 361.1935307568945,54.416324362992924 424.9637160740519,54.416324362992924" fill="#8000FF" opacity="0.7195778369994731"/><polygon points="428.6631792963777,7.559923680410687 410.2227218865814,39.50066977128185 447.103636706174,39.50066977128185" fill="#FFFF00" opacity="0.8634968400762867"/><rect x="375" y="0" width="75" height="6" fill="#FF8000" opacity="0.6"/><rect x="375" y="0" width="6" height="75" fill="#FF8000" opacity="0.6"/><rect x="450" y="0" width="75" height="75" fill="#8000FF"/><polygon points="490.423827779211,-3.01495448069878 511.81909853543345,27.549718028190412 490.423827779211,58.1143905370796 469.0285570229886,27.549718028190412" fill="#FF8000" opacity="0.7807617068666786"/><rect x="465.1270388119747" y="23.376611314831127" width="36.334268159155855" height="25.433987711409095" fill="#FFFF00" opacity="0.7853596568505091" rx="4" transform="rotate(29.79660095171845 483.29417289155265 36.093605170535675)"/><polygon points="489.1551160924859,12.586694959940715 465.076743361754,54.29288329261722 513.2334888232178,54.29288329261722" fill="#FF0000" opacity="0.805257320453067"/><rect x="525" y="0" width="75" height="75" fill="#00FF00"/><path d="M 540.131766200127 9.403216694785847L 550.7545638770192 30.927355750722292L 574.507861593777 34.37891194504172L 557.3198138969519 51.13311765450895L 561.3773615539113 74.79043575261505L 540.131766200127 63.62096527963689L 518.8861708463427 74.79043575261505L 522.9437185033021 51.13311765450895L 505.75567080647704 34.37891194504173L 529.5089685232348 30.927355750722295 Z" fill="#8000FF" opacity="0.7954012752023532" transform="rotate(155.0586748845217 540.131766200127 45.54838241801988)"/><polygon points="549.54633057562,13.852114235098526 574.2205585364,49.101011321926954 549.54633057562,84.34990840875538 524.8721026148401,49.101011321926954" fill="#00FF00" opacity="0.856219863964347"/><path d="M 547.9090404547327 32.22920448914133L 554.9113820313644 46.417498232177145L 570.5690937983858 48.69269693017535L 559.2390671265592 59.73674340373715L 561.913723607996 75.33118727329537L 547.9090404547327 67.96848962425416L 533.9043573014694 75.33118727329537L 536.5790137829061 59.73674340373716L 525.2489871110796 48.69269693017535L 540.906698878101 46.417498232177145 Z" fill="#FFFF00" opacity="0.7794700265300786" transform="rotate(306.7933417795195 547.9090404547327 56.05539457921655)"/><path d="M 557.126907714236 34.04518024544007L 564.3336606561729 48.647656653463955L 580.4484501313905 50.9892726301837L 568.7876789228133 62.35571534698067L 571.5404135981098 78.40539001721714L 557.126907714236 70.82776153935248L 542.7134018303623 78.40539001721714L 545.4661365056588 62.35571534698067L 533.8053652970816 50.9892726301837L 549.9201547722992 48.647656653463955 Z" fill="#FFFF00" opacity="0.7137493252818237" transform="rotate(59.87133624957472 557.126907714236 58.56690110804835)"/><rect x="525" y="0" width="75" height="6" fill="#FF8000" opacity="0.6"/><rect x="525" y="0" width="6" height="75" fill="#FF8000" opacity="0.6"/><rect x="0" y="75" width="75" height="75" fill="#0000FF"/><polygon points="17.739602924668976,109.65438590892795 29.329426559831212,126.21127681630257 17.739602924668976,142.7681677236772 6.149779289506737,126.21127681630257" fill="#FFFF00" opacity="0.7955761284081153"/><polygon points="20.66800654198416,66.07028222983718 -4.321845456799185,109.35524527622864 45.657858540767506,109.35524527622864" fill="#00FFFF" opacity="0.8324474096914973"/><rect x="0" y="75" width="75" height="6" fill="#FFFF00" opacity="0.6"/><rect x="0" y="75" width="6" height="75" fill="#FFFF00" opacity="0.6"/><rect x="75" y="75" width="75" height="75" fill="#FF8000"/><circle cx="111.65200487787462" cy="96.42308056653621" r="35.59577142090805" fill="#FF8000" opacity="0.7771094322563659"/><circle cx="127.59500162563987" cy="100.37488639837824" r="23.1631291340632" fill="#FFFF00" opacity="0.8739521265839935"/><rect x="98.05764914458042" y="101.4758746863114" width="36.65888339940407" height="25.661218379582845" fill="#8000FF" opacity="0.9208249450758216" rx="4" transform="rotate(23.097665916708145 116.38709084428245 114.30648387610282)"/><path d="M 94.52141046734593 107.33968467851619L 101.85579038046897 122.20076157566304L 118.25596243902112 124.58384606909172L 106.38868645318352 136.15158119438297L 109.19017029359203 152.48548530653156L 94.52141046734593 144.7736618896707L 79.85265064109983 152.48548530653156L 82.65413448150834 136.15158119438297L 70.78685849567074 124.58384606909172L 87.18703055422287 122.20076157566304 Z" fill="#0000FF" opacity="0.7937317967851328" transform="rotate(174.5668745853784 94.52141046734593 132.29566948595254)"/><rect x="75" y="75" width="75" height="6" fill="#FF00FF" opacity="0.6"/><rect x="75" y="75" width="6" height="75" fill="#FF00FF" opacity="0.6"/><rect x="150" y="75" width="75" height="75" fill="#FFFF00"/><rect x="184.09769476873225" y="103.90890295327824" width="44.52449441981711" height="31.167146093871974" fill="#8000FF" opacity="0.7821046352768803" rx="4" transform="rotate(40.65201045975648 206.35994197864082 119.49247600021422)"/><polygon points="177.85196543338336,63.01292280865039 148.11809741961798,114.51500366390218 207.58583344714873,114.51500366390218" fill="#FF8000" opacity="0.7443778634278"/><rect x="160.43998092724473" y="84.19188335634158" width="50.71112216832634" height="35.49778551782843" fill="#FFFF00" opacity="0.9817667724014105" rx="4" transform="rotate(5.192037823233771 185.79554201140792 101.9407761152558)"/><rect x="225" y="75" width="75" height="75" fill="#FF8000"/><polygon points="256.06788039955677,72.26790021803133 238.55455546310966,102.60275865298593 273.5812053360039,102.60275865298593" fill="#8000FF" opacity="0.9978888870672736"/><polygon points="264.5060294980677,102.26616517804385 237.93825717240605,148.28424657353165 291.0738018237293,148.28424657353165" fill="#0000FF" opacity="0.9712099195789592"/><circle cx="241.3008633262016" cy="101.45668415886195" r="11.580894068037576" fill="#FF0000" opacity="0.8530245561865272"/><rect x="239.15768635012566" y="73.4404897239597" width="57.42352703349828" height="40.1964689234488" fill="#FF8000" opacity="0.8582247615597326" rx="4" transform="rotate(35.45258583289226 267.8694498668748 93.5387241856841)"/><rect x="300" y="75" width="75" height="75" fill="#FFFF00"/><path d="M 349.9802810116579 87.76400015177857L 357.33044048011914 102.65704992026032L 373.76589669706215 105.04526150201616L 361.87308885436005 116.63788403683748L 364.6805999485804 133.00692973517047L 349.9802810116579 125.27851471195628L 335.2799620747354 133.00692973517047L 338.08747316895574 116.63788403683748L 326.1946653262536 105.04526150201616L 342.63012154319665 102.65704992026032 Z" fill="#FF00FF" opacity="0.8977133155789754" transform="rotate(335.1590968739051 349.9802810116579 112.77367652523037)"/><polygon points="330.4878097844719,54.23818384552755 356.1276524692088,90.86653053800879 330.4878097844719,127.49487723049003 304.847967099735,90.86653053800879" fill="#0000FF" opacity="0.8572285533683507"/><polygon points="339.76456226071554,86.70262679827988 354.4808600543094,107.72590936055683 339.76456226071554,128.74919192283377 325.04826446712167,107.72590936055683" fill="#FFFF00" opacity="0.9702089191741351"/><rect x="300" y="75" width="6" height="75" fill="#FF0000" opacity="0.6"/><rect x="375" y="75" width="75" height="75" fill="#FF8000"/><circle cx="399.6882207736784" cy="125.70161016457789" r="28.349327452992707" fill="#FF00FF" opacity="0.7838615894708137"/><path d="M 391.87065839854563 104.37162013054902L 396.4700159360618 113.69093639888173L 406.75449204277413 115.18535825283803L 399.3125752206599 122.43943431253376L 401.069373473578 132.6823540801421L 391.87065839854563 127.84630337367827L 382.67194332351323 132.6823540801421L 384.4287415764314 122.43943431253376L 376.9868247543171 115.18535825283803L 387.27130086102943 113.69093639888173 Z" fill="#FFFF00" opacity="0.9862709255359465" transform="rotate(218.4889699045983 391.87065839854563 120.02140895930185)"/><path d="M 413.310998093016 79.76594612049682L 422.14678641855534 97.66920874230443L 441.90420974926036 100.54013040101694L 427.60760392113815 114.47587686952211L 430.9825747440947 134.1534666554523L 413.310998093016 124.86296900978218L 395.6394214419373 134.1534666554523L 399.01439226489384 114.47587686952211L 384.71778643677163 100.54013040101694L 404.47520976747666 97.66920874230443 Z" fill="#0000FF" opacity="0.7509582877396411" transform="rotate(304.3280376420953 413.310998093016 109.83062804668705)"/><polygon points="429.3528771583703,77.71124225061445 411.2180959210175,109.12252614903149 447.4876583957231,109.12252614903149" fill="#8000FF" opacity="0.8530040384051408"/><rect x="375" y="75" width="75" height="6" fill="#00FF00" opacity="0.6"/><rect x="375" y="75" width="6" height="75" fill="#00FF00" opacity="0.6"/><rect x="450" y="75" width="75" height="75" fill="#FFFF00"/><path d="M 471.49839163129144 69.83684710743225L 478.82649623284846 84.68520883453867L 495.2126362681589 87.06625435563953L 483.3555139497252 98.62409210134525L 486.15460083440547 114.94402088925271L 471.49839163129144 107.2387957254489L 456.8421824281774 114.94402088925271L 459.6412693128577 98.62409210134525L 447.78414699442396 87.06625435563953L 464.1702870297344 84.68520883453867 Z" fill="#00FF00" opacity="0.9639254332817744" transform="rotate(40.85789682383551 471.49839163129144 94.77147951944335)"/><path d="M 496.55557216683195 97.17818678283514L 507.5481979988658 119.45167952884381L 532.1284566105137 123.02340017499026L 514.3420143886729 140.36089638634428L 518.5408238308996 164.8418338899912L 496.55557216683195 153.28350308242184L 474.5703205027642 164.8418338899912L 478.76912994499105 140.36089638634428L 460.9826877231502 123.02340017499026L 485.5629463347981 119.45167952884381 Z" fill="#FFFF00" opacity="0.8055777550235287" transform="rotate(176.5060044156881 496.55557216683195 134.5817309825596)"/><circle cx="472.3562492464465" cy="125.69365473263602" r="13.518470228774692" fill="#FFFF00" opacity="0.9756111474128492"/><rect x="525" y="75" width="75" height="75" fill="#FF8000"/><path d="M 543.308558465591 101.29337222433806L 549.997604411046 114.84685968223388L 564.954765849703 117.0202624589191L 554.1316621576469 127.57018115067936L 556.6866503565011 142.46690539581007L 543.308558465591 135.43362626796988L 529.9304665746808 142.46690539581007L 532.485454773535 127.57018115067936L 521.662351081479 117.02026245891912L 536.6195125201359 114.84685968223388 Z" fill="#0000FF" opacity="0.7919912934731651" transform="rotate(249.16490089575058 543.308558465591 124.05354158675928)"/><rect x="564.9344056640679" y="83.94988903860789" width="34.422664722391715" height="24.0958653056742" fill="#FF8000" opacity="0.8631806791588573" rx="4" transform="rotate(23.610284339455088 582.1457380252638 95.997821691445)"/><circle cx="578.7927045108717" cy="102.5932020007601" r="14.010528178308403" fill="#00FFFF" opacity="0.886823055235121"/><rect x="525.012052392709" y="81.76310331730085" width="32.91334592290844" height="23.039342146035906" fill="#8000FF" opacity="0.8687846542190689" rx="4" transform="rotate(24.909809243357653 541.4687253541633 93.28277439031879)"/><rect x="0" y="150" width="75" height="75" fill="#00FFFF"/><polygon points="20.916395190132967,190.9671119028782 9.009480662006878,211.5910978060989 32.823309718259054,211.5910978060989" fill="#FF00FF" opacity="0.7281364172828088"/><polygon points="25.50791860116083,170.29337883765967 45.74301969579794,199.2006661157127 25.50791860116083,228.1079533937657 5.272817506523719,199.2006661157127" fill="#FFFF00" opacity="0.8726029754488742"/><polygon points="38.051703583007544,135.68663453307778 58.7283865254621,165.22475302229856 38.051703583007544,194.76287151151934 17.37502064055299,165.22475302229856" fill="#FF8000" opacity="0.8379891753839278"/><rect x="0" y="150" width="75" height="6" fill="#FFFF00" opacity="0.6"/><rect x="75" y="150" width="75" height="75" fill="#0000FF"/><polygon points="118.06897403116756,163.7962263869337 94.96158917038892,203.8205650603378 141.1763588919462,203.8205650603378" fill="#FFFF00" opacity="0.7304694652699257"/><rect x="95.2584949212654" y="186.4393789308678" width="41.2524068442883" height="28.87668479100181" fill="#FF0000" opacity="0.8770205021728856" rx="4" transform="rotate(5.15582800151586 115.88469834340955 200.87772132636871)"/><polygon points="115.57391346691824,179.6092482031599 127.68711283701104,196.9138187318639 115.57391346691824,214.2183892605679 103.46071409682544,196.9138187318639" fill="#FF00FF" opacity="0.8970457763397348"/><polygon points="113.50053371093261,155.19658114828474 97.58505924607049,182.7638001982769 129.41600817579473,182.7638001982769" fill="#0000FF" opacity="0.8308694840086948"/><rect x="75" y="150" width="75" height="6" fill="#00FF00" opacity="0.6"/><rect x="75" y="150" width="6" height="75" fill="#00FF00" opacity="0.6"/><rect x="150" y="150" width="75" height="75" fill="#00FFFF"/><circle cx="204.46600468804408" cy="207.2181952196258" r="13.903605045123774" fill="#0000FF" opacity="0.9015949101194716"/><rect x="184.89031122584842" y="181.6390161777446" width="37.76488334651332" height="26.435418342559323" fill="#FF8000" opacity="0.8324588180205127" rx="4" transform="rotate(22.837856422568606 203.7727528991051 194.85672534902426)"/><path d="M 184.08029080325753 186.7261898671166L 189.6340815233105 197.9793989916796L 202.0527351061565 199.78393498538037L 193.066512954707 208.5433367005715L 195.1878722433635 220.91181040316414L 184.08029080325753 215.07220925970338L 172.97270936315155 220.91181040316414L 175.09406865180804 208.5433367005715L 166.10784650035856 199.78393498538037L 178.52650008320455 197.9793989916796 Z" fill="#8000FF" opacity="0.8820254326714321" transform="rotate(44.534111043687034 184.08029080325753 205.62353612884112)"/><rect x="150" y="150" width="75" height="6" fill="#FF8000" opacity="0.6"/><rect x="225" y="150" width="75" height="75" fill="#0000FF"/><rect x="247.21447841192804" y="168.55720192726338" width="28.949671986722233" height="20.26477039070556" fill="#8000FF" opacity="0.8244769663198277" rx="4" transform="rotate(33.197845832071195 261.68931440528917 178.68958712261616)"/><polygon points="267.9408395420485,178.9258208988122 251.08336053447144,208.12468754011192 284.79831854962555,208.12468754011192" fill="#FF0000" opacity="0.8119134188219501"/><polygon points="248.13480735203942,149.28169905931304 272.3911657894571,183.93363968419547 248.13480735203942,218.5855803090779 223.8784489146217,183.93363968419547" fill="#FF8000" opacity="0.7727694392543143"/><rect x="247.0938984762616" y="157.00798146793758" width="44.71282639643775" height="31.29897847750642" fill="#FF8000" opacity="0.9233907819834495" rx="4" transform="rotate(14.462551481305878 269.4503116744805 172.6574707066908)"/><rect x="225" y="150" width="75" height="6" fill="#FF8000" opacity="0.6"/><rect x="225" y="150" width="6" height="75" fill="#FF8000" opacity="0.6"/><rect x="300" y="150" width="75" height="75" fill="#00FFFF"/><path d="M 353.1570732771219 169.07672614572883L 359.68210951513174 182.2978936388705L 374.2725340989712 184.41800643123335L 363.7148036880466 194.709250105313L 366.20714575314156 209.24071936411838L 353.1570732771219 202.3798902480653L 340.1070008011023 209.24071936411838L 342.5993428661973 194.709250105313L 332.0416124552726 184.41800643123335L 346.6320370391121 182.2978936388705 Z" fill="#8000FF" opacity="0.8302736044536687" transform="rotate(202.53853807344032 353.1570732771219 191.27883554728646)"/><circle cx="327.5178600906012" cy="188.32327188147386" r="15.625862630259181" fill="#FF00FF" opacity="0.7744955033410785"/><rect x="320.5944997150658" y="164.52860731231218" width="70.83162190780584" height="49.58213533546409" fill="#FF00FF" opacity="0.8485950947499811" rx="4" transform="rotate(1.8701434144145546 356.0103106689687 189.31967498004423)"/><rect x="300" y="150" width="6" height="75" fill="#8000FF" opacity="0.6"/><rect x="375" y="150" width="75" height="75" fill="#0000FF"/><path d="M 396.38465524017096 155.24043917725348L 406.105673125468 174.93737279988403L 427.8425299274835 178.0959229782494L 412.11359258382726 193.42784760955104L 415.8266910107651 215.07687259758345L 396.38465524017096 204.85558951004901L 376.9426194695768 215.07687259758345L 380.65571789651466 193.42784760955107L 364.9267805528584 178.0959229782494L 386.6636373548739 174.93737279988403 Z" fill="#00FFFF" opacity="0.978155553470438" transform="rotate(231.7303706294533 396.38465524017096 188.31720606578384)"/><polygon points="432.5710827310435,174.76549253846306 445.32629591946085,192.98722566477358 432.5710827310435,211.2089587910841 419.8158695426261,192.98722566477358" fill="#FFFF00" opacity="0.9756889225336205"/><polygon points="391.62276327685584,156.8314267709299 410.7828142107035,184.20292810499805 391.62276327685584,211.5744294390662 372.46271234300815,184.20292810499805" fill="#FF00FF" opacity="0.9702618123359334"/><circle cx="426.8749894373468" cy="184.37768877454926" r="32.03021631612452" fill="#00FF00" opacity="0.8550067544705265"/><rect x="375" y="150" width="75" height="6" fill="#FF00FF" opacity="0.6"/><rect x="375" y="150" width="6" height="75" fill="#FF00FF" opacity="0.6"/><rect x="450" y="150" width="75" height="75" fill="#00FFFF"/><polygon points="496.777412310139,159.61049750720176 475.17111191276166,197.0348053548531 518.3837127075163,197.0348053548531" fill="#FF00FF" opacity="0.9458822847557637"/><path d="M 480.8088326527778 173.7419074866883L 489.957378607403 192.27888628233325L 510.4141492572256 195.25142905488283L 495.61149095500167 209.6804547718771L 499.1059245620281 230.05456603397053L 480.8088326527778 220.43521555597437L 462.5117407435275 230.05456603397053L 466.006174350554 209.6804547718771L 451.2035160483301 195.25142905488283L 471.6602866981527 192.27888628233325 Z" fill="#FF00FF" opacity="0.9418389798336844" transform="rotate(308.93709197125264 480.8088326527778 204.870779532879)"/><circle cx="477.6257170795583" cy="169.86178815591234" r="26.13179270871067" fill="#8000FF" opacity="0.9067999602327123"/><rect x="450" y="150" width="75" height="6" fill="#FF00FF" opacity="0.6"/><rect x="450" y="150" width="6" height="75" fill="#FF00FF" opacity="0.6"/><rect x="525" y="150" width="75" height="75" fill="#0000FF"/><rect x="550.7019138438403" y="177.7749671734171" width="23.042773604645753" height="16.129941523252025" fill="#00FF00" opacity="0.9544661839746247" rx="4" transform="rotate(18.332051047278593 562.2233006461632 185.8399379350431)"/><circle cx="560.511336485162" cy="206.1612707568152" r="24.41421881931099" fill="#FF8000" opacity="0.8441269279197449"/><rect x="0" y="225" width="75" height="75" fill="#FF0000"/><rect x="25.578343580397" y="249.3471940836041" width="46.70557738477624" height="32.69390416934337" fill="#FFFF00" opacity="0.7896555900991221" rx="4" transform="rotate(19.167494782790307 48.93113227278512 265.6941461682758)"/><path d="M 25.040860180762067 223.06229106817037L 32.14210631439729 237.45098733255344L 48.0209753941632 239.75832206916928L 36.530917787462634 250.9583601509725L 39.24335244803251 266.77306770600745L 25.040860180762067 259.30637565147197L 10.838367913491625 266.77306770600745L 13.5508025740615 250.9583601509725L 2.060744967360929 239.75832206916928L 17.939614047126845 237.45098733255344 Z" fill="#FF8000" opacity="0.8669709444823539" transform="rotate(147.03303343943927 25.040860180762067 247.22501412370477)"/><polygon points="23.800612096116232,246.72702805044923 -4.038323801316238,294.94689392360016 51.6395479935487,294.94689392360016" fill="#0000FF" opacity="0.7182514667595976"/><rect x="75" y="225" width="75" height="75" fill="#FF00FF"/><path d="M 118.0055880676981 239.81800854721482L 123.49730162343546 250.94543559839482L 135.7771464470213 252.72980149872313L 126.89136725735969 261.39129552401573L 128.98901517917284 273.6215213499649L 118.0055880676981 267.84719199976985L 107.02216095622337 273.6215213499649L 109.11980887803651 261.39129552401573L 100.2340296883749 252.72980149872313L 112.51387451196074 250.94543559839482 Z" fill="#FF00FF" opacity="0.9976360799268056" transform="rotate(129.9907494196625 118.0055880676981 258.5041308489182)"/><path d="M 118.01019610278783 226.02017339191872L 125.1966357871527 240.581490644515L 141.26600343759466 242.9165064437549L 129.63809977019125 254.25091122606958L 132.38307547151757 270.25534760686406L 118.01019610278783 262.69907775198766L 103.6373167340581 270.25534760686406L 106.38229243538441 254.25091122606958L 94.75438876798098 242.9165064437549L 110.82375641842296 240.581490644515 Z" fill="#FF0000" opacity="0.9080512286201358" transform="rotate(139.6701336557372 118.01019610278783 250.47277629863135)"/><rect x="86.5416696703954" y="264.97591792086644" width="42.32797802417911" height="29.629584616925374" fill="#FFFF00" opacity="0.9258173228361724" rx="4" transform="rotate(32.814778104803885 107.70565868248495 279.79071022932914)"/><circle cx="96.57243267007752" cy="284.78950830399504" r="12.123321891237666" fill="#00FF00" opacity="0.7037071794288732"/><rect x="75" y="225" width="75" height="6" fill="#FF0000" opacity="0.6"/><rect x="150" y="225" width="75" height="75" fill="#FF0000"/><polygon points="209.47334828063538,242.73302615340012 189.30454124247984,277.667449429651 229.6421553187909,277.667449429651" fill="#00FF00" opacity="0.9007303715686921"/><polygon points="178.34441900874694,251.75280154822528 201.59160788204363,284.96307136722055 178.34441900874694,318.1733411862158 155.09723013545025,284.96307136722055" fill="#FF8000" opacity="0.8090311527759912"/><circle cx="203.63990040432657" cy="251.6006290966648" r="25.132909125593912" fill="#FF0000" opacity="0.8189568281727642"/><rect x="225" y="225" width="75" height="75" fill="#FF00FF"/><rect x="236.5188468656358" y="226.29889139634273" width="51.805238811907" height="36.2636671683349" fill="#FF00FF" opacity="0.8414082766237707" rx="4" transform="rotate(7.6267755067100635 262.4214662715893 244.43072498051018)"/><path d="M 261.530011306298 224.30146381051813L 270.68696020981724 242.85546884030384L 291.1625204245785 245.83074189645555L 276.3462658654382 260.27302068845137L 279.8439091133365 280.6658455927506L 261.530011306298 271.03765973142004L 243.21611349925945 280.6658455927506L 246.71375674715773 260.27302068845137L 231.89750218801748 245.83074189645555L 252.37306240277871 242.85546884030384 Z" fill="#FF00FF" opacity="0.8413540244760709" transform="rotate(334.5747615464846 261.530011306298 255.45892775778609)"/><path d="M 242.53089487670496 260.2551354614576L 249.4023731926508 274.1782712766114L 264.7674658130215 276.4109499236995L 253.64918034486323 287.2485997345337L 256.27385150859664 302.5516068395441L 242.53089487670496 295.32650696565463L 228.7879382448133 302.5516068395441L 231.4126094085467 287.2485997345337L 220.29432394038844 276.4109499236995L 235.65941656075913 274.1782712766114 Z" fill="#00FF00" opacity="0.7368747234516193" transform="rotate(78.08894280255258 242.53089487670496 283.63604979758895)"/><rect x="247.90196389851718" y="240.7319146732832" width="37.661574489977944" height="26.36310214298456" fill="#FF8000" opacity="0.9005889655093611" rx="4" transform="rotate(2.2928059111781445 266.73275114350616 253.91346574477546)"/><rect x="225" y="225" width="6" height="75" fill="#FF8000" opacity="0.6"/><rect x="300" y="225" width="75" height="75" fill="#FF0000"/><polygon points="351.26313330431617,226.64157997718618 363.5162407758838,244.1460192222828 351.26313330431617,261.6504584673794 339.01002583274857,244.1460192222828" fill="#0000FF" opacity="0.9591613830342709"/><rect x="285.82159726976954" y="228.95713519902532" width="68.89976444020857" height="48.229835108146" fill="#0000FF" opacity="0.8304923296582383" rx="4" transform="rotate(39.956706780920136 320.27147948987385 253.07205275309832)"/><circle cx="345.6921865188946" cy="275.2123028203902" r="23.361766492999976" fill="#8000FF" opacity="0.7449372649402065"/><rect x="300" y="225" width="75" height="6" fill="#FF0000" opacity="0.6"/><rect x="300" y="225" width="6" height="75" fill="#FF0000" opacity="0.6"/><rect x="375" y="225" width="75" height="75" fill="#FF00FF"/><polygon points="392.8774791969347,222.51010156877345 408.2770187530676,244.50944379182042 392.8774791969347,266.5087860148674 377.4779396408018,244.50944379182042" fill="#FFFF00" opacity="0.9152110994864306"/><path d="M 430.6415605734296 241.56612754464896L 441.19829619188795 262.9564102498103L 464.8038746552541 266.3865015801709L 447.72271761434183 283.0365146512902L 451.7550318103463 306.5467103831307L 430.6415605734296 295.44670166905115L 409.52808933651295 306.5467103831307L 413.5604035325174 283.0365146512902L 396.4792464916051 266.3865015801709L 420.0848249549713 262.9564102498103 Z" fill="#8000FF" opacity="0.9170643807468304" transform="rotate(106.88632970065173 430.6415605734296 277.4865102942504)"/><rect x="375" y="225" width="75" height="6" fill="#FFFF00" opacity="0.6"/><rect x="450" y="225" width="75" height="75" fill="#FF0000"/><rect x="458.2962629220198" y="242.6662272561999" width="74.39088645013557" height="52.073620515094895" fill="#00FF00" opacity="0.9721368552521508" rx="4" transform="rotate(23.59006048347338 495.4917061470876 268.70303751374735)"/><path d="M 487.9703199970398 220.42842160522864L 494.44476035723187 233.54707065238927L 508.9220491188896 235.65074384750096L 498.44618455796467 245.86218804023932L 500.91920071742396 260.28097862320107L 487.9703199970398 253.47334916137547L 475.0214392766556 260.28097862320107L 477.4944554361149 245.86218804023932L 467.01859087518994 235.65074384750096L 481.4958796368477 233.54707065238927 Z" fill="#8000FF" opacity="0.9319596172459235" transform="rotate(43.25699331390531 487.9703199970398 242.45837330932653)"/><polygon points="473.4628307858775,220.08061967386425 490.0122294580272,243.72261777693527 473.4628307858775,267.3646158800063 456.91343211372777,243.72261777693527" fill="#FF0000" opacity="0.7015117466456777"/><rect x="525" y="225" width="75" height="75" fill="#FF00FF"/><polygon points="569.0241676704139,263.8341365917978 556.9092230262289,284.81845179535145 581.139112314599,284.81845179535145" fill="#8000FF" opacity="0.7687265366635874"/><polygon points="544.3293428441181,261.17718370278703 526.217545159664,292.5486577520723 562.4411405285721,292.5486577520723" fill="#FF0000" opacity="0.7833080888182428"/><rect x="525" y="225" width="75" height="6" fill="#FFFF00" opacity="0.6"/><rect x="525" y="225" width="6" height="75" fill="#FFFF00" opacity="0.6"/><rect x="0" y="300" width="75" height="75" fill="#00FF00"/><rect x="-10.072138204156484" y="290.58726997275943" width="74.68423585043486" height="52.2789650953044" fill="#0000FF" opacity="0.7303719759128857" rx="4" transform="rotate(33.75552670739383 27.269979721060945 316.72675252041165)"/><path d="M 51.45418168811787 336.1164665372886L 54.97771989616368 343.25593475137885L 62.85659085067191 344.40080171560214L 57.15538626939489 349.95810269773267L 58.50125810420949 357.8051376083098L 51.45418168811787 354.10027028688944L 44.40710527202625 357.8051376083098L 45.75297710684085 349.95810269773267L 40.051772525563834 344.40080171560214L 47.93064348007206 343.25593475137885 Z" fill="#00FF00" opacity="0.8110712130139913" transform="rotate(101.40964512778895 51.45418168811787 348.1056690370225)"/><polygon points="36.72885418950061,297.9387430447101 19.069491385320198,328.52655390645447 54.38821699368102,328.52655390645447" fill="#8000FF" opacity="0.7195443272681648"/><rect x="75" y="300" width="75" height="75" fill="#8000FF"/><circle cx="109.01720658830237" cy="332.7340954624741" r="25.840809799074574" fill="#FF8000" opacity="0.8305900693547865"/><polygon points="118.7746632233144,328.82665605520674 134.91359506782078,351.88227297593016 118.7746632233144,374.9378898966536 102.63573137880803,351.88227297593016" fill="#FF0000" opacity="0.8437930823042025"/><polygon points="94.80292439684408,316.4590072691017 107.80407487318342,335.0320793781579 94.80292439684408,353.60515148721413 81.80177392050473,335.0320793781579" fill="#FF00FF" opacity="0.872170388778751"/><polygon points="105.87728799128779,294.3045791567092 123.50217218027784,319.4829851409807 105.87728799128779,344.6613911252522 88.25240380229774,319.4829851409807" fill="#8000FF" opacity="0.7289791584149837"/><rect x="75" y="300" width="75" height="6" fill="#8000FF" opacity="0.6"/><rect x="75" y="300" width="6" height="75" fill="#8000FF" opacity="0.6"/><rect x="150" y="300" width="75" height="75" fill="#00FF00"/><path d="M 170.89031875407804 317.876335240028L 181.80302782426452 339.98789893992057L 206.20458712387995 343.53365305608366L 188.547452938979 360.7451050831887L 192.71573689445097 385.0480653426199L 170.89031875407804 373.57376399121654L 149.0649006137051 385.0480653426199L 153.23318456917707 360.7451050831887L 135.5760503842761 343.53365305608366L 159.97760968389156 339.98789893992057 Z" fill="#8000FF" opacity="0.7088656663935937" transform="rotate(261.43299100055964 170.89031875407804 355.00795440748703)"/><polygon points="175.85984588175074,324.0397399758407 146.20589694883137,375.40339286195973 205.51379481467012,375.40339286195973" fill="#FFFF00" opacity="0.936177909484216"/><path d="M 188.18098605758556 298.8920389093189L 197.84254597507027 318.4684975303441L 219.44645071925336 321.6077286438693L 203.81371838841946 336.8458765645439L 207.504105892555 358.3624867122689L 188.18098605758556 348.20372143181913L 168.85786622261614 358.3624867122689L 172.54825372675165 336.8458765645439L 156.91552139591775 321.6077286438693L 178.51942614010085 318.4684975303441 Z" fill="#00FF00" opacity="0.8886571765824487" transform="rotate(288.5360385331028 188.18098605758556 331.76649392431904)"/><rect x="225" y="300" width="75" height="75" fill="#8000FF"/><path d="M 284.96028186984375 292.8293190473129L 294.3463656338918 311.84760201503883L 315.33428697281033 314.89732550046995L 300.1472844213271 329.7009942676189L 303.73244939793983 350.6041100056301L 284.96028186984375 340.73499749419744L 266.1881143417477 350.6041100056301L 269.77327931836044 329.7009942676189L 254.58627676687718 314.89732550046995L 275.5741981057957 311.84760201503883 Z" fill="#8000FF" opacity="0.7362645745446275" transform="rotate(53.76242282509917 284.96028186984375 324.7664380119026)"/><path d="M 246.8387317689316 322.81874210530367L 256.28713801705203 341.96330421853224L 277.4144166668831 345.03327750655666L 262.1265742179073 359.9352408802898L 265.73554426517245 380.97715083007176L 246.8387317689316 371.0425085809163L 227.94191927269077 380.97715083007176L 231.55088931995587 359.9352408802898L 216.26304687098016 345.03327750655666L 237.3903255208112 341.96330421853224 Z" fill="#FF00FF" opacity="0.850854837964687" transform="rotate(238.22354804641733 246.8387317689316 354.9679197557121)"/><rect x="300" y="300" width="75" height="75" fill="#00FF00"/><polygon points="359.51065780804987,331.70217813362933 345.14633706162164,356.58264132028336 373.8749785544781,356.58264132028336" fill="#FF00FF" opacity="0.9953941912834505"/><circle cx="329.9993003974665" cy="350.231539623454" r="14.866126032367406" fill="#00FFFF" opacity="0.8737228602979904"/><polygon points="353.3399355590064,288.076343640837 328.3094841387179,331.4316290108518 378.3703869792949,331.4316290108518" fill="#FF00FF" opacity="0.9078451992049092"/><rect x="300" y="300" width="75" height="6" fill="#FF0000" opacity="0.6"/><rect x="375" y="300" width="75" height="75" fill="#8000FF"/><polygon points="428.5806209028608,283.36309040878575 452.85980459255387,318.0476385369187 428.5806209028608,352.7321866650517 404.30143721316773,318.0476385369187" fill="#FF00FF" opacity="0.8518732548467224"/><circle cx="422.50609608018124" cy="343.2112705838919" r="23.294816320782903" fill="#0000FF" opacity="0.8659371138391723"/><rect x="375" y="300" width="6" height="75" fill="#0000FF" opacity="0.6"/><rect x="450" y="300" width="75" height="75" fill="#00FF00"/><rect x="480.6159632638404" y="303.72136783208526" width="34.88860267791366" height="24.42202187453956" fill="#0000FF" opacity="0.9740559579218067" rx="4" transform="rotate(16.3449525909242 498.06026460279725 315.93237876935507)"/><rect x="432.5393052859182" y="296.11998742865165" width="65.37174305080983" height="45.760220135566875" fill="#FF8000" opacity="0.8243514299971756" rx="4" transform="rotate(41.33034111993869 465.22517681132314 319.0000974964351)"/><polygon points="502.09343792735297,341.09728129457085 510.5894407507565,353.2344281851474 502.09343792735297,365.37157507572397 493.5974351039494,353.2344281851474" fill="#FF8000" opacity="0.9039980263467868"/><rect x="450" y="300" width="75" height="6" fill="#00FF00" opacity="0.6"/><rect x="450" y="300" width="6" height="75" fill="#00FF00" opacity="0.6"/><rect x="525" y="300" width="75" height="75" fill="#FF0000"/><polygon points="542.0452272901522,334.2314851425968 558.7687935730879,358.1222941182192 542.0452272901522,382.0131030938416 525.3216610072164,358.1222941182192" fill="#0000FF" opacity="0.8969906211816662"/><rect x="556.6629557441514" y="329.15142896307" width="53.735642745734964" height="37.614949922014475" fill="#FFFF00" opacity="0.7642377257646237" rx="4" transform="rotate(7.85757020481749 583.5307771170189 347.9589039240772)"/><rect x="525" y="300" width="75" height="6" fill="#FF00FF" opacity="0.6"/><rect x="0" y="375" width="75" height="75" fill="#FF8000"/><circle cx="30.446773327629444" cy="390.16117930419796" r="19.579065248639818" fill="#FF00FF" opacity="0.7622159660152233"/><rect x="21.907989093176077" y="401.6690585555248" width="60.65987082112575" height="42.461909574788024" fill="#0000FF" opacity="0.8356241822874286" rx="4" transform="rotate(11.271860008720243 52.23792450373895 422.90001334291884)"/><rect x="23.850583890499827" y="398.97719488332615" width="31.86218440968645" height="22.303529086780514" fill="#FF00FF" opacity="0.830169901312408" rx="4" transform="rotate(25.724964749871273 39.78167609534305 410.1289594267164)"/><rect x="0" y="375" width="6" height="75" fill="#FF0000" opacity="0.6"/><rect x="75" y="375" width="75" height="75" fill="#FFFF00"/><path d="M 111.47750438259798 365.1521065395335L 120.16579759563884 382.7565114208427L 139.5934118284482 385.57950901240633L 125.5354581055231 399.2826271723336L 128.85409080867967 418.6317405153881L 111.47750438259798 409.49632840876995L 94.1009179565163 418.6317405153881L 97.41955065967286 399.2826271723336L 83.36159693674774 385.57950901240633L 102.78921116955713 382.7565114208427 Z" fill="#00FF00" opacity="0.8190443039494772" transform="rotate(212.98919687652457 111.47750438259798 394.7149211190245)"/><circle cx="99.73672047710825" cy="422.78953047133496" r="31.468939492580915" fill="#FFFF00" opacity="0.9989253283938976"/><rect x="75" y="375" width="75" height="6" fill="#00FF00" opacity="0.6"/><rect x="75" y="375" width="6" height="75" fill="#00FF00" opacity="0.6"/><rect x="150" y="375" width="75" height="75" fill="#FF8000"/><polygon points="168.99637878127228,375.44118985379635 191.7001425413532,407.8751380824834 168.99637878127228,440.3090863111704 146.29261502119138,407.8751380824834" fill="#0000FF" opacity="0.8715583086812674"/><path d="M 201.43650593070151 412.0799289798969L 206.80267187034187 422.95296877555273L 218.80178368992176 424.69654178259606L 210.11914481031164 433.1600229443849L 212.16883780998225 445.11065012026035L 201.43650593070151 439.4683293457345L 190.70417405142078 445.11065012026035L 192.7538670510914 433.1600229443849L 184.07122817148127 424.69654178259606L 196.07033999106113 422.95296877555273 Z" fill="#0000FF" opacity="0.8863855243597112" transform="rotate(98.98205284913166 201.43650593070151 430.33886255712196)"/><rect x="151.3489219162608" y="370.8235129698639" width="73.13665578637116" height="51.19565905045981" fill="#00FF00" opacity="0.9003312588670902" rx="4" transform="rotate(1.040117741115446 187.9172498094464 396.42134249509377)"/><rect x="225" y="375" width="75" height="75" fill="#FFFF00"/><polygon points="255.09784341561507,400.6858787042721 227.11717301162875,449.151243145357 283.07851381960137,449.151243145357" fill="#FF0000" opacity="0.9684578658400372"/><polygon points="260.32344640247686,405.99401996808314 277.56888794791604,430.6303650329962 260.32344640247686,455.2667100979093 243.0780048570377,430.6303650329962" fill="#0000FF" opacity="0.9238112808316067"/><rect x="225" y="375" width="6" height="75" fill="#FF00FF" opacity="0.6"/><rect x="300" y="375" width="75" height="75" fill="#FF8000"/><polygon points="317.68745005255914,389.72283259545117 285.5835471955715,445.33005463411337 349.7913529095468,445.33005463411337" fill="#FF8000" opacity="0.757034635570382"/><circle cx="352.79787855120276" cy="390.48804402374105" r="20.104340109440656" fill="#00FF00" opacity="0.9643766166010762"/><path d="M 317.17126965623874 395.7694172938445L 322.98460086181774 407.5485128817503L 335.9836046132131 409.4373786911683L 326.5774371347259 418.60612593064604L 328.7979320673967 431.55260478895974L 317.17126965623874 425.44010662930793L 305.5446072450808 431.55260478895974L 307.76510217775154 418.60612593064604L 298.35893469926435 409.4373786911683L 311.35793845065973 407.5485128817503 Z" fill="#00FFFF" opacity="0.7839450240526091" transform="rotate(288.97360338316 317.17126965623874 415.5498768508201)"/><rect x="300" y="375" width="75" height="6" fill="#00FFFF" opacity="0.6"/><rect x="375" y="375" width="75" height="75" fill="#FFFF00"/><circle cx="398.71818378973666" cy="421.2065926339508" r="14.186332227166895" fill="#00FFFF" opacity="0.720625695595809"/><polygon points="425.24370075913316,382.18029052178855 441.0854207776535,404.81131911967475 425.24370075913316,427.44234771756095 409.4019807406128,404.81131911967475" fill="#00FFFF" opacity="0.8651458979421974"/><rect x="375" y="375" width="6" height="75" fill="#0000FF" opacity="0.6"/><rect x="450" y="375" width="75" height="75" fill="#8000FF"/><circle cx="506.30779044763545" cy="415.0047809002012" r="27.821352042523838" fill="#FF00FF" opacity="0.721961963186954"/><polygon points="479.13378239336134,401.09071613398413 494.6972469193033,423.3242368853298 479.13378239336134,445.5577576366755 463.57031786741936,423.3242368853298" fill="#FFFF00" opacity="0.9970276833963709"/><circle cx="489.0176770202898" cy="414.03438450025135" r="30.423521706449574" fill="#0000FF" opacity="0.8263209581963349"/><rect x="450" y="375" width="75" height="6" fill="#0000FF" opacity="0.6"/><rect x="450" y="375" width="6" height="75" fill="#0000FF" opacity="0.6"/><rect x="525" y="375" width="75" height="75" fill="#00FF00"/><rect x="555.7088296240935" y="415.995019123829" width="39.337847836705784" height="27.53649348569405" fill="#FF00FF" opacity="0.9122459174190861" rx="4" transform="rotate(7.786313298990165 575.3777535424464 429.763265866676)"/><polygon points="572.2349649817845,394.1681407463821 592.3306557594126,422.8762704287079 572.2349649817845,451.58440011103374 552.1392742041564,422.8762704287079" fill="#FF8000" opacity="0.9818581463218937"/><rect x="525" y="375" width="75" height="6" fill="#00FF00" opacity="0.6"/>
  <text x="300" y="234.45" text-anchor="middle" font-family="Georgia, serif" font-size="27" font-weight="bold" fill="#000" opacity="0.5" transform="translate(2, 2)">Be brave, take risks.</text><text x="300" y="234.45" text-anchor="middle" font-family="Georgia, serif" font-size="27" font-weight="bold" fill="#FFFFFF" stroke="#000" stroke-width="1">Be brave, take risks.</text>
</svg>