<svg xmlns="http://www.w3.org/2000/svg" viewBox="0 0 600 450" width="600" height="450">
  <rect x="0" y="0" width="75" height="75" fill="#C4FAF8"/><path d="M 23.840346340481354 12.181848589532006L 28.56520091270141 21.755449624292055L 39.13029691998615 23.290647936642454L 31.485321630233752 30.742657083205728L 33.29005548492147 41.265062854469804L 23.840346340481354 36.29705675676095L 14.39063719604124 41.265062854469804L 16.195371050728955 30.742657083205728L 8.550395760976556 23.290647936642458L 19.115491768261293 21.755449624292055 Z" fill="#FFABAB" opacity="0.7345934599799073" transform="rotate(296.8206526231117 23.840346340481354 28.258654034351302)"/><polygon points="33.522884854359035,25.006601224307254 21.710468127044372,45.46690733397468 45.3353015816737,45.46690733397468" fill="#FFC9DE" opacity="0.8669906229558356"/><rect x="33.26117457333541" y="47.14000977949007" width="35.37706375721705" height="24.763944630051935" fill="#BFFCC6" opacity="0.8303384781490725" rx="4" transform="rotate(42.09394456916207 50.94970645194394 59.52198209451604)"/><circle cx="30.465575612832595" cy="23.5140341559956" r="33.5432816028098" fill="#FFABAB" opacity="0.9522637606841808"/><rect x="0" y="0" width="75" height="6" fill="#BFFCC6" opacity="0.6"/><rect x="0" y="0" width="6" height="75" fill="#BFFCC6" opacity="0.6"/><rect x="75" y="0" width="75" height="75" fill="#B28DFF"/><rect x="78.3024813605251" y="12.07218733287751" width="34.29252259982402" height="24.004765819876813" fill="#85E3FF" opacity="0.7848764658369479" rx="4" transform="rotate(22.377079735685644 95.44874266043712 24.074570242815916)"/><rect x="110.09840560674127" y="1.7775241297914341" width="43.40749361594556" height="30.385245531161893" fill="#FFC9DE" opacity="0.9525302292092378" rx="4" transform="rotate(3.896053435232515 131.80215241471404 16.97014689537238)"/><path d="M 98.88223171647742 22.29710654287929L 109.72517708991344 44.267313553546856L 133.97074002123324 47.790400070553694L 116.42648586885534 64.8918212600243L 120.56812246334948 89.03941548350858L 98.88223171647742 77.6384680238615L 77.19634096960537 89.03941548350858L 81.3379775640995 64.8918212600243L 63.79372341172159 47.790400070553694L 88.0392863430414 44.26731355354686 Z" fill="#FFABAB" opacity="0.8889781475947136" transform="rotate(174.62305077101246 98.88223171647742 59.191347530200765)"/><polygon points="127.37405063462167,-2.565077732463866 142.12100461323092,18.50199937983509 127.37405063462167,39.569076492134045 112.6270966560124,18.50199937983509" fill="#FFC9DE" opacity="0.9396340967340553"/><rect x="75" y="0" width="75" height="6" fill="#E7FFAC" opacity="0.6"/><rect x="150" y="0" width="75" height="75" fill="#C4FAF8"/><polygon points="173.53749275605077,39.071297960039836 181.88215376856138,50.99224226362642 173.53749275605077,62.91318656721301 165.19283174354015,50.99224226362642" fill="#FFABAB" opacity="0.7538181025785478"/><polygon points="186.63055122905902,25.66611842341541 167.37150130150562,59.024749937653425 205.88960115661243,59.024749937653425" fill="#BFFCC6" opacity="0.7415540337756061"/><polygon points="171.32108688648842,25.907595465964455 153.95430183141343,55.98863193549385 188.6878719415634,55.98863193549385" fill="#B28DFF" opacity="0.8256440759290214"/><circle cx="191.6564718012961" cy="36.94529772826717" r="36.29252494547634" fill="#B28DFF" opacity="0.9743728162135802"/><rect x="150" y="0" width="75" height="6" fill="#FFABAB" opacity="0.6"/><rect x="150" y="0" width="6" height="75" fill="#FFABAB" opacity="0.6"/><rect x="225" y="0" width="75" height="75" fill="#B28DFF"/><path d="M 284.47262944861905 38.969392792889565L 290.3402013812228 50.858392097922135L 303.46049108539455 52.76488178788847L 293.9665602670068 62.019177140588816L 296.2077733138265 75.08645187322183L 284.47262944861905 68.91692163808827L 272.73748558341157 75.08645187322183L 274.9786986302313 62.019177140588816L 265.48476781184354 52.76488178788848L 278.6050575160153 50.858392097922135 Z" fill="#E7FFAC" opacity="0.873613166889927" transform="rotate(7.8620910681141964 284.47262944861905 58.934412023022034)"/><path d="M 254.65365887370598 14.473167662845537L 260.57887520126235 26.478967269502505L 273.8280616910701 28.40418675876638L 264.24086028238804 37.74939846706438L 266.5040915288188 50.94504915389014L 254.65365887370598 44.714908015024804L 242.8032262185932 50.94504915389014L 245.06645746502392 37.74939846706438L 235.47925605634185 28.404186758766382L 248.72844254614958 26.478967269502505 Z" fill="#FFABAB" opacity="0.9159468651823451" transform="rotate(273.25435651152134 254.65365887370598 34.634327897631714)"/><rect x="242.99507976241648" y="43.44236721299467" width="37.75714159722307" height="26.429999118056145" fill="#E7FFAC" opacity="0.9989686013660246" rx="4" transform="rotate(4.516282083707061 261.873650561028 56.65736677202274)"/><circle cx="249.59393576234297" cy="53.366438466294866" r="16.61428749811104" fill="#E7FFAC" opacity="0.9996808619702611"/><rect x="225" y="0" width="75" height="6" fill="#B28DFF" opacity="0.6"/><rect x="300" y="0" width="75" height="75" fill="#C4FAF8"/><rect x="317.613483785588" y="0.6638515449775646" width="66.79362217164301" height="46.755535520150104" fill="#B28DFF" opacity="0.7709569096895665" rx="4" transform="rotate(36.60965995705205 351.01029487140954 24.041619305052617)"/><polygon points="351.27686085006076,33.07504044348609 359.72553855406613,45.14458002063659 351.27686085006076,57.21411959778709 342.8281831460554,45.14458002063659" fill="#FFB5E8" opacity="0.921090886099772"/><polygon points="333.71166945375114,-0.2141636628490744 356.26172788505755,32.00020552473152 333.71166945375114,64.21457471231211 311.16161102244473,32.00020552473152" fill="#E7FFAC" opacity="0.8232086659051517"/><polygon points="342.0578456050986,-0.033862778816306616 326.2857505713721,27.28500852671452 357.82994063882506,27.28500852671452" fill="#FFC9DE" opacity="0.7588938355720107"/><rect x="300" y="0" width="6" height="75" fill="#B28DFF" opacity="0.6"/><rect x="375" y="0" width="75" height="75" fill="#B28DFF"/><polygon points="434.16977586418847,20.858842142442633 445.2361865264183,36.66800023134239 434.16977586418847,52.47715832024215 423.10336520195864,36.66800023134239" fill="#E7FFAC" opacity="0.8928378195468512"/><path d="M 423.9388865390508 -19.6925366406527L 434.6426459433897 1.995648792968451L 458.5769795862941 5.473511047176359L 441.25793306267246 22.35540905367251L 445.3464053477286 46.19303156858448L 423.9388865390508 34.93843289758704L 402.53136773037306 46.19303156858448L 406.6198400154292 22.355409053672513L 389.30079349180755 5.473511047176363L 413.23512713471195 1.9956487929684528 Z" fill="#FFC9DE" opacity="0.848967242310274" transform="rotate(262.1390248565651 423.9388865390508 16.728109718173794)"/><rect x="386.1290683631688" y="8.588814385916955" width="29.489782604849793" height="20.642847823394852" fill="#FFB5E8" opacity="0.7148346453974185" rx="4" transform="rotate(21.38986588520457 400.8739596655937 18.91023829761438)"/><circle cx="404.62889806117346" cy="55.53883733252941" r="34.69424174327601" fill="#C4FAF8" opacity="0.7756964803094493"/><rect x="450" y="0" width="75" height="75" fill="#C4FAF8"/><circle cx="505.77817218414424" cy="32.48390973428446" r="31.668244162769174" fill="#85E3FF" opacity="0.8343541026741053"/><polygon points="468.488851191238,3.716053739174292 480.0800909657055,20.274967702699342 468.488851191238,36.83388166622439 456.8976114167705,20.274967702699342" fill="#FFC9DE" opacity="0.9761755020712388"/><polygon points="490.7752347112518,-5.97885031706134 464.7487611322344,39.101646644285246 516.8017082902693,39.101646644285246" fill="#FFABAB" opacity="0.724979555618474"/><circle cx="493.2428147030262" cy="16.986878515215068" r="26.114538058109833" fill="#BFFCC6" opacity="0.7070707321199917"/><rect x="450" y="0" width="6" height="75" fill="#FFABAB" opacity="0.6"/><rect x="525" y="0" width="75" height="75" fill="#85E3FF"/><rect x="543.9917345415995" y="15.03893374275134" width="50.55386514777963" height="35.38770560344574" fill="#BFFCC6" opacity="0.8419052720730682" rx="4" transform="rotate(15.837795145734118 569.2686671154893 32.73278654447421)"/><rect x="524.7185160200896" y="32.239681419504194" width="62.89718003962058" height="44.028026027734406" fill="#BFFCC6" opacity="0.7312722325470634" rx="4" transform="rotate(21.720267097335434 556.1671060398999 54.25369443337139)"/><path d="M 558.4182679738934 9.39148575330222L 569.2426159485622 31.324010318222363L 593.4465938320337 34.84105417407101L 575.9324309029636 51.91314367013231L 580.0669639232309 76.0193208778909L 558.4182679738934 64.63792788051671L 536.7695720245559 76.0193208778909L 540.9041050448233 51.913143670132314L 523.3899421157531 34.84105417407102L 547.5939199992247 31.324010318222363 Z" fill="#FFC9DE" opacity="0.7975156069255972" transform="rotate(261.25926029927064 558.4182679738934 46.22244717144521)"/><polygon points="569.3994623559524,9.705507609041177 539.2760243061457,61.882363353510094 599.5229004057592,61.882363353510094" fill="#FFB5E8" opacity="0.8298828960069841"/><rect x="0" y="75" width="75" height="75" fill="#FFB5E8"/><circle cx="21.54571250385871" cy="94.03185635992878" r="23.943360714564733" fill="#FFABAB" opacity="0.7546715736643744"/><rect x="46.94693820699908" y="108.02418249561413" width="23.617108762784444" height="16.531976133949108" fill="#FFABAB" opacity="0.897039910125099" rx="4" transform="rotate(44.28399505293183 58.7554925883913 116.29017056258868)"/><circle cx="25.334209357543948" cy="100.76127738261656" r="35.66919756327718" fill="#FFC9DE" opacity="0.7193739533514594"/><rect x="32.105180932374296" y="125.14378731465841" width="23.838327527669414" height="16.686829269368587" fill="#FFABAB" opacity="0.8937082131363955" rx="4" transform="rotate(26.727558386850898 44.024344696209 133.4872019493427)"/><rect x="0" y="75" width="75" height="6" fill="#FFC9DE" opacity="0.6"/><rect x="0" y="75" width="6" height="75" fill="#FFC9DE" opacity="0.6"/><rect x="75" y="75" width="75" height="75" fill="#FFC9DE"/><polygon points="101.86571181373006,103.98137078864099 111.7701763426397,118.13060582994046 101.86571181373006,132.27984087123994 91.96124728482042,118.13060582994046" fill="#E7FFAC" opacity="0.8476859063597796"/><polygon points="121.47447825943794,102.18908251423346 104.71876778191947,131.21167572009688 138.23018873695642,131.21167572009688" fill="#FFABAB" opacity="0.7446607113092488"/><polygon points="118.88684929762354,108.53374557093892 108.86920788458161,125.88531845727019 128.90449071066547,125.88531845727019" fill="#FFC9DE" opacity="0.9299089153436519"/><circle cx="112.91603879207561" cy="130.29133917777398" r="19.08726007111243" fill="#C4FAF8" opacity="0.9111452818900092"/><rect x="75" y="75" width="75" height="6" fill="#FFABAB" opacity="0.6"/><rect x="75" y="75" width="6" height="75" fill="#FFABAB" opacity="0.6"/><rect x="150" y="75" width="75" height="75" fill="#FFB5E8"/><polygon points="181.17678345003014,100.5917246741437 197.46426644576212,123.85955752518939 181.17678345003014,147.12739037623507 164.88930045429817,123.85955752518939" fill="#E7FFAC" opacity="0.7636039376555028"/><polygon points="174.5169925734014,103.61096889938273 190.47636058256091,126.41006605532489 174.5169925734014,149.20916321126705 158.5576245642419,126.41006605532489" fill="#FFB5E8" opacity="0.7615291238117633"/><polygon points="168.58116746115553,88.76037240494527 184.4590718651116,111.4430929820254 168.58116746115553,134.12581355910555 152.70326305719945,111.4430929820254" fill="#C4FAF8" opacity="0.9743818641986612"/><rect x="147.2632688253714" y="95.89708606049982" width="49.35216666518346" height="34.54651666562842" fill="#E7FFAC" opacity="0.9715010644269646" rx="4" transform="rotate(28.405451787824486 171.93935215796313 113.17034439331402)"/><rect x="225" y="75" width="75" height="75" fill="#FFC9DE"/><circle cx="264.1263212375931" cy="134.0538615193469" r="34.63040829793569" fill="#FFABAB" opacity="0.9180837632241117"/><circle cx="284.75023405847617" cy="132.85137893764832" r="22.885918026620484" fill="#C4FAF8" opacity="0.8967644215546382"/><rect x="234.96283706566916" y="72.1251188209281" width="70.547957517229" height="49.383570262060296" fill="#B28DFF" opacity="0.9381983996546819" rx="4" transform="rotate(19.671653518300342 270.23681582428367 96.81690395195824)"/><polygon points="268.7338453665068,86.48552880051336 284.94742626187974,109.6477872224747 268.7338453665068,132.81004564443606 252.52026447113386,109.6477872224747" fill="#B28DFF" opacity="0.9987753750285019"/><rect x="225" y="75" width="75" height="6" fill="#BFFCC6" opacity="0.6"/><rect x="300" y="75" width="75" height="75" fill="#FFB5E8"/><polygon points="317.497994900913,79.85306114009724 334.26530488365813,103.80636111544742 317.497994900913,127.7596610907976 300.73068491816787,103.80636111544742" fill="#C4FAF8" opacity="0.8637647748756058"/><rect x="324.2411198934965" y="87.9192626689534" width="26.513031499466408" height="18.559122049626485" fill="#FFABAB" opacity="0.8357973635829041" rx="4" transform="rotate(26.21442766218187 337.49763564322967 97.19882369376664)"/><path d="M 352.95412124970653 64.21463872560517L 362.0389210839577 82.62245377353123L 382.35315107532205 85.57428417601287L 367.6536361625143 99.90276993673459L 371.12372091820885 120.1349165024196L 352.95412124970653 110.58259266193845L 334.7845215812043 120.1349165024196L 338.25460633689875 99.90276993673459L 323.555091424091 85.57428417601287L 343.8693214154554 82.62245377353123 Z" fill="#B28DFF" opacity="0.7470200538854208" transform="rotate(310.9477724092769 352.95412124970653 95.12660801649402)"/><rect x="335.6647601872285" y="91.60810205781976" width="32.22332418417713" height="22.55632692892399" fill="#B28DFF" opacity="0.8246884674414472" rx="4" transform="rotate(4.9877983354906545 351.7764222793171 102.88626552228176)"/><rect x="300" y="75" width="75" height="6" fill="#FFABAB" opacity="0.6"/><rect x="375" y="75" width="75" height="75" fill="#FFC9DE"/><circle cx="429.0356601770202" cy="108.92241061614939" r="21.369314347449368" fill="#FFB5E8" opacity="0.9989463211497973"/><path d="M 432.1142220693241 60.781281991876334L 443.1036219580524 83.04823826280487L 467.6766671411774 86.6189107364324L 449.89544460525076 103.95131901150135L 454.09302184678063 128.42507223382538L 432.1142220693241 116.87013338377939L 410.1354222918676 128.42507223382538L 414.33299953339747 103.95131901150135L 396.5517769974708 86.6189107364324L 421.12482218059586 83.04823826280487 Z" fill="#FFABAB" opacity="0.8217456818193876" transform="rotate(45.6653595183349 432.1142220693241 98.17384958647837)"/><polygon points="403.81684721159604,81.07890263308255 423.1741697459012,108.73222053923283 403.81684721159604,136.3855384453831 384.45952467729086,108.73222053923283" fill="#BFFCC6" opacity="0.8381643415140753"/><circle cx="415.29743270263884" cy="103.72435928030143" r="23.86029571881997" fill="#C4FAF8" opacity="0.9222427607617539"/><rect x="375" y="75" width="75" height="6" fill="#85E3FF" opacity="0.6"/><rect x="450" y="75" width="75" height="75" fill="#B28DFF"/><polygon points="467.1951413164824,106.74251051060506 450.0505592861367,136.43866876178126 484.3397233468281,136.43866876178126" fill="#C4FAF8" opacity="0.8829894185918333"/><polygon points="473.1820625104858,112.74197505507243 486.424561238638,131.65983038100404 473.1820625104858,150.57768570693565 459.93956378233366,131.65983038100404" fill="#C4FAF8" opacity="0.853484511446899"/><path d="M 480.4154598784705 56.02967630013809L 490.8860215868338 77.24535159204584L 514.2989093293406 80.64744332171516L 497.3571846039055 97.16154347606481L 501.3565832951972 120.4798270897531L 480.4154598784705 109.47042698685334L 459.47433646174375 120.4798270897531L 463.4737351530354 97.16154347606481L 446.5320104276003 80.64744332171516L 469.94489817010714 77.24535159204584 Z" fill="#FFABAB" opacity="0.7199609637353387" transform="rotate(211.89954409929905 480.4154598784705 91.65684342461492)"/><polygon points="465.9975671772834,119.93048548753394 455.08511660091,138.8319587722453 476.91001775365675,138.8319587722453" fill="#C4FAF8" opacity="0.8597950071840523"/><rect x="450" y="75" width="6" height="75" fill="#BFFCC6" opacity="0.6"/><rect x="525" y="75" width="75" height="75" fill="#C4FAF8"/><path d="M 559.2811346143862 82.8936302681191L 568.1188091660591 100.80071480151945L 587.8804502266196 103.67224933225427L 573.5807924205029 117.61097074404806L 576.9564837177319 137.2927612173115L 559.2811346143862 128.00028027611563L 541.6057855110406 137.2927612173115L 544.9814768082696 117.61097074404806L 530.6818190021529 103.67224933225427L 550.4434600627134 100.80071480151945 Z" fill="#C4FAF8" opacity="0.9157832146695737" transform="rotate(110.5207443751957 559.2811346143862 112.96473027345013)"/><rect x="534.0959434236148" y="122.13959198073232" width="33.539158707037174" height="23.47741109492602" fill="#E7FFAC" opacity="0.9972439141465554" rx="4" transform="rotate(43.718086501452184 550.8655227771334 133.87829752819533)"/><rect x="525" y="75" width="75" height="6" fill="#FFC9DE" opacity="0.6"/><rect x="525" y="75" width="6" height="75" fill="#FFC9DE" opacity="0.6"/><rect x="0" y="150" width="75" height="75" fill="#BFFCC6"/><polygon points="30.19393087140933,171.84937209733732 39.58764991942451,185.268970737359 30.19393087140933,198.6885693773807 20.80021182339415,185.268970737359" fill="#FFC9DE" opacity="0.7706338733763591"/><polygon points="30.90144933010519,150.54678416196109 18.215934767172875,172.5193844441764 43.586963893037506,172.5193844441764" fill="#B28DFF" opacity="0.8083555579690055"/><circle cx="57.21576647936169" cy="172.64268637059382" r="28.036554053792052" fill="#E7FFAC" opacity="0.9085739732759883"/><path d="M 53.53032948380817 171.57286674614198L 60.54946316330261 185.79518500588742L 76.2447232138104 188.0758397888469L 64.88752634880929 199.14637065514736L 67.56859684279705 214.7782110873668L 53.53032948380817 207.39785717649983L 39.492062124819284 214.7782110873668L 42.173132618807045 199.14637065514736L 30.815935753805928 188.07583978884693L 46.51119580431372 185.79518500588742 Z" fill="#FFB5E8" opacity="0.8067924738427589" transform="rotate(338.2476712848282 53.53032948380817 195.45619369971388)"/><rect x="0" y="150" width="75" height="6" fill="#FFC9DE" opacity="0.6"/><rect x="75" y="150" width="75" height="75" fill="#FFABAB"/><polygon points="99.97177184092429,138.25415230565898 71.6157808649532,187.36961011623248 128.3277628168954,187.36961011623248" fill="#FFB5E8" opacity="0.7718489408827615"/><circle cx="110.65704212554593" cy="181.53247655207872" r="25.441749847583356" fill="#B28DFF" opacity="0.8313391566888145"/><rect x="69.13533411472352" y="150.46499783235603" width="62.62559609493501" height="43.837917266454504" fill="#FFB5E8" opacity="0.8134539366296744" rx="4" transform="rotate(2.6717054856343685 100.44813216219103 172.38395646558328)"/><polygon points="93.45872461956867,146.97843923849445 61.247552084415254,202.77146326012277 125.6698971547221,202.77146326012277" fill="#C4FAF8" opacity="0.8287215710285685"/><rect x="150" y="150" width="75" height="75" fill="#BFFCC6"/><polygon points="179.89107728697874,172.48882145562155 149.13618060244184,225.75942772214043 210.64597397151564,225.75942772214043" fill="#C4FAF8" opacity="0.78985850815189"/><polygon points="191.3141977909553,149.4406272078355 208.3257260897433,173.74281049181837 191.3141977909553,198.04499377580126 174.30266949216727,173.74281049181837" fill="#FFABAB" opacity="0.9737414242111805"/><circle cx="198.43080239064562" cy="188.48125935694262" r="28.81950260026823" fill="#FFC9DE" opacity="0.9849707604781588"/><polygon points="193.45932663812272,156.04068037229155 205.31617138927857,172.97903001679992 193.45932663812272,189.9173796613083 181.60248188696687,172.97903001679992" fill="#FFB5E8" opacity="0.8706563890774996"/><rect x="150" y="150" width="75" height="6" fill="#BFFCC6" opacity="0.6"/><rect x="150" y="150" width="6" height="75" fill="#BFFCC6" opacity="0.6"/><rect x="225" y="150" width="75" height="75" fill="#FFABAB"/><circle cx="242.58603690312526" cy="195.40268966481216" r="24.959236091798743" fill="#85E3FF" opacity="0.7006811380389524"/><polygon points="268.15093160986476,145.72193830831532 240.2217931430248,194.098044197761 296.0800700767047,194.098044197761" fill="#85E3FF" opacity="0.7022897481928997"/><polygon points="247.07893967958117,129.86102552437737 272.52734453494304,166.21588960346574 247.07893967958117,202.5707536825541 221.6305348242193,166.21588960346574" fill="#BFFCC6" opacity="0.8660178662119515"/><polygon points="272.81884433367236,161.66210353742918 298.6929683325896,198.62513782159664 272.81884433367236,235.5881721057641 246.94472033475512,198.62513782159664" fill="#BFFCC6" opacity="0.9236983777134206"/><rect x="225" y="150" width="75" height="6" fill="#FFC9DE" opacity="0.6"/><rect x="225" y="150" width="6" height="75" fill="#FFC9DE" opacity="0.6"/><rect x="300" y="150" width="75" height="75" fill="#BFFCC6"/><path d="M 317.4346089374435 155.8748417357564L 322.12411585264056 165.37682059449406L 332.6101720959765 166.900533756862L 325.02239051671 174.2967928143127L 326.8136227678376 184.74047819649934L 317.4346089374435 179.80963882486552L 308.0555951070494 184.74047819649934L 309.846827358177 174.29679281431274L 302.2590457789105 166.900533756862L 312.74510202224644 165.37682059449406 Z" fill="#E7FFAC" opacity="0.7633216530379474" transform="rotate(280.1262618415646 317.4346089374435 171.8313731284958)"/><polygon points="344.7876423736045,189.30662469731487 353.3748323016333,201.57403888021318 344.7876423736045,213.8414530631115 336.2004524455757,201.57403888021318" fill="#FFC9DE" opacity="0.7518268317225514"/><polygon points="330.7925140931236,143.99861475464357 345.8604990076206,165.52430748963928 330.7925140931236,187.050000224635 315.7245291786266,165.52430748963928" fill="#85E3FF" opacity="0.8082669020203254"/><circle cx="344.2833144912884" cy="190.21879435759914" r="29.433572896841714" fill="#B28DFF" opacity="0.7530274868258403"/><rect x="300" y="150" width="6" height="75" fill="#FFABAB" opacity="0.6"/><rect x="375" y="150" width="75" height="75" fill="#FFB5E8"/><polygon points="397.17785418367845,179.64622156037774 417.99710781319163,209.3880124596823 397.17785418367845,239.12980335898686 376.35860055416526,209.3880124596823" fill="#B28DFF" opacity="0.9740884305322954"/><rect x="366.34189053792124" y="158.6632373489152" width="55.82924456956296" height="39.08047119869407" fill="#FFB5E8" opacity="0.8698272825078234" rx="4" transform="rotate(41.55578078774539 394.25651282270275 178.20347294826223)"/><polygon points="429.6161574309767,180.23870186251062 442.08109382363324,198.0457538520199 429.6161574309767,215.8528058415292 417.1512210383202,198.0457538520199" fill="#E7FFAC" opacity="0.9921347261835516"/><path d="M 419.35278655465356 156.78345501564138L 428.0004847509633 174.305605408851L 447.33732576681433 177.11541287990983L 433.3450561607339 190.75450484995952L 436.64818294727314 210.01321176212684L 419.35278655465356 200.92048378209373L 402.057390162034 210.01321176212684L 405.3605169485732 190.75450484995952L 391.3682473424928 177.11541287990983L 410.7050883583438 174.305605408851 Z" fill="#FFABAB" opacity="0.776380586659713" transform="rotate(74.14724353428336 419.35278655465356 186.20814085994294)"/><rect x="450" y="150" width="75" height="75" fill="#FFC9DE"/><polygon points="498.96743060740056,173.93141449437542 514.6196617678481,196.29174472358625 498.96743060740056,218.65207495279708 483.315199446953,196.29174472358625" fill="#FFABAB" opacity="0.8623935223381936"/><polygon points="480.80462694904054,144.0940636351444 503.6167883420092,176.68286562509968 480.80462694904054,209.27166761505495 457.99246555607186,176.68286562509968" fill="#85E3FF" opacity="0.8998500348068075"/><rect x="525" y="150" width="75" height="75" fill="#FFB5E8"/><polygon points="561.9450456006197,154.49837889557162 547.4576691843943,179.59198700681654 576.4324220168451,179.59198700681654" fill="#E7FFAC" opacity="0.8797439278009086"/><circle cx="557.5552631996363" cy="186.7654448848988" r="27.880181826944543" fill="#E7FFAC" opacity="0.7955400348154549"/><rect x="0" y="225" width="75" height="75" fill="#E7FFAC"/><polygon points="33.37072313687332,226.91209807906398 1.4482037016892377,282.2051455995907 65.29324257205741,282.2051455995907" fill="#FFABAB" opacity="0.7031941890731427"/><polygon points="17.927234174184147,233.47789854031427 -9.711457222219998,281.3509205895131 45.56592557058829,281.3509205895131" fill="#BFFCC6" opacity="0.9920650602747058"/><rect x="6.0649265359691" y="258.124403861351" width="25.991103352741852" height="18.193772346919296" fill="#FFABAB" opacity="0.7990148276551695" rx="4" transform="rotate(22.14731098252689 19.060478212340026 267.2212900348107)"/><rect x="3.8384617120439515" y="236.86438056302228" width="34.87999901751987" height="24.41599931226391" fill="#85E3FF" opacity="0.9003249556759022" rx="4" transform="rotate(20.90539992829105 21.278461220803887 249.07238021915424)"/><rect x="0" y="225" width="75" height="6" fill="#C4FAF8" opacity="0.6"/><rect x="0" y="225" width="6" height="75" fill="#C4FAF8" opacity="0.6"/><rect x="75" y="225" width="75" height="75" fill="#85E3FF"/><path d="M 120.38447143062226 238.22902501070826L 130.99880362162517 259.7360111187115L 154.733171936472 263.1848167099273L 137.5588216835471 279.92567071146095L 141.6131358126281 303.56413589542626L 120.38447143062226 292.40356656107053L 99.15580704861642 303.56413589542626L 103.21012117769739 279.92567071146095L 86.03577092477252 263.1848167099273L 109.77013923961934 259.7360111187115 Z" fill="#BFFCC6" opacity="0.7908115864222923" transform="rotate(351.5657617298727 120.38447143062226 274.3453860442831)"/><polygon points="118.91828478729272,240.97808853361204 104.89670724734627,265.2648856582306 132.93986232723918,265.2648856582306" fill="#B28DFF" opacity="0.7508977145193599"/><rect x="107.36967814556309" y="242.28536724399794" width="22.99129284941186" height="16.0939049945883" fill="#85E3FF" opacity="0.8361903954931489" rx="4" transform="rotate(41.89313294454158 118.86532457026901 250.33231974129208)"/><rect x="62.62950583541743" y="235.94026158927718" width="65.99834831594413" height="46.198843821160885" fill="#C4FAF8" opacity="0.7806426883119357" rx="4" transform="rotate(16.285005219413435 95.6286799933895 259.03968349985763)"/><rect x="75" y="225" width="6" height="75" fill="#C4FAF8" opacity="0.6"/><rect x="150" y="225" width="75" height="75" fill="#E7FFAC"/><path d="M 195.23304463840697 206.6737489904853L 205.2366885582379 226.94334550787923L 227.6055163856823 230.19372645153285L 211.41928051204462 245.9714069811824L 215.2403324780688 268.24984939813925L 195.23304463840697 257.73139571170617L 175.22575679874512 268.24984939813925L 179.0468087647693 245.9714069811824L 162.86057289113162 230.19372645153285L 185.22940071857604 226.94334550787923 Z" fill="#FFABAB" opacity="0.7333446502840819" transform="rotate(12.654200798205194 195.23304463840697 240.7121801379659)"/><rect x="150.906122176515" y="267.530508907235" width="38.63617748773479" height="27.045324241414352" fill="#85E3FF" opacity="0.845426476069459" rx="4" transform="rotate(14.182185537266632 170.2242109203824 281.0531710279422)"/><polygon points="186.41631783052176,229.4208478558207 198.54061029183939,246.74126565770305 186.41631783052176,264.06168345958537 174.29202536920414,246.74126565770305" fill="#E7FFAC" opacity="0.7117408692891434"/><circle cx="173.19280878090896" cy="284.89317031805086" r="13.747762442798242" fill="#BFFCC6" opacity="0.7026621907961844"/><rect x="225" y="225" width="75" height="75" fill="#85E3FF"/><circle cx="277.88116114115394" cy="258.09947670348896" r="19.721160385977083" fill="#E7FFAC" opacity="0.8932905317252923"/><polygon points="241.4656823880345,246.78274915462026 260.3575802801561,273.77117471479403 241.4656823880345,300.7596002749678 222.57378449591286,273.77117471479403" fill="#FFABAB" opacity="0.8698532820538866"/><rect x="225" y="225" width="6" height="75" fill="#B28DFF" opacity="0.6"/><rect x="300" y="225" width="75" height="75" fill="#FFABAB"/><polygon points="329.83196140026297,208.357138237733 352.5562459689943,240.8204019073492 329.83196140026297,273.2836655769654 307.10767683153165,240.8204019073492" fill="#B28DFF" opacity="0.9682917834577578"/><rect x="331.9723525774769" y="265.92711471105093" width="25.79901158963284" height="18.059308112742986" fill="#BFFCC6" opacity="0.8908376068765472" rx="4" transform="rotate(1.4285713440871664 344.87185837229333 274.95676876742243)"/><rect x="300" y="225" width="6" height="75" fill="#FFABAB" opacity="0.6"/><rect x="375" y="225" width="75" height="75" fill="#BFFCC6"/><circle cx="427.57830738908535" cy="275.8419084715852" r="22.841595416698418" fill="#FFABAB" opacity="0.9456282616805416"/><polygon points="426.44329728393035,227.4168808752051 443.76180855086386,252.1576112565387 426.44329728393035,276.8983416378723 409.12478601699684,252.1576112565387" fill="#B28DFF" opacity="0.7720462441779888"/><rect x="375" y="225" width="75" height="6" fill="#FFC9DE" opacity="0.6"/><rect x="450" y="225" width="75" height="75" fill="#FFABAB"/><polygon points="489.6705722923719,237.74233103217202 461.8827022249555,285.87374569859765 517.4584423597883,285.87374569859765" fill="#85E3FF" opacity="0.8943309784840471"/><polygon points="496.88361169392414,232.0892786995225 478.32292845369574,264.23826814564563 515.4442949341526,264.23826814564563" fill="#E7FFAC" opacity="0.9507995606636626"/><rect x="450" y="225" width="75" height="6" fill="#85E3FF" opacity="0.6"/><rect x="450" y="225" width="6" height="75" fill="#85E3FF" opacity="0.6"/><rect x="525" y="225" width="75" height="75" fill="#BFFCC6"/><path d="M 553.1610685648216 228.0172727998659L 564.0323956177826 250.0449873744842L 588.3414219138363 253.5772956581809L 570.7512452393289 270.72348024347315L 574.9037226707438 294.9342813961588L 553.1610685648216 283.5034916726306L 531.4184144588993 294.9342813961588L 535.5708918903142 270.72348024347315L 517.9807152158069 253.5772956581809L 542.2897415118605 250.0449873744842 Z" fill="#BFFCC6" opacity="0.8802809239273336" transform="rotate(292.6316644123903 553.1610685648216 265.00808538170907)"/><circle cx="547.4507702921753" cy="280.58018894893127" r="22.49300391005492" fill="#C4FAF8" opacity="0.8264341116540292"/><rect x="0" y="300" width="75" height="75" fill="#B28DFF"/><polygon points="54.3989414160135,318.1207265026731 27.495268444939413,364.7206219491063 81.30261438708759,364.7206219491063" fill="#FFB5E8" opacity="0.9449199796863459"/><polygon points="17.140740753217013,312.477479432117 40.37408147077033,345.66796617147884 17.140740753217013,378.8584529108407 -6.092599964336301,345.66796617147884" fill="#FFABAB" opacity="0.966650271539879"/><rect x="0" y="300" width="75" height="6" fill="#FFABAB" opacity="0.6"/><rect x="75" y="300" width="75" height="75" fill="#C4FAF8"/><circle cx="130.75811462512152" cy="345.3351724289056" r="37.157629442358214" fill="#E7FFAC" opacity="0.8644603968432454"/><polygon points="118.4913146628492,318.4196260639791 103.34835111560805,344.648777704697 133.63427821009037,344.648777704697" fill="#E7FFAC" opacity="0.7791807502876877"/><rect x="75" y="300" width="6" height="75" fill="#C4FAF8" opacity="0.6"/><rect x="150" y="300" width="75" height="75" fill="#B28DFF"/><polygon points="206.51634158637205,326.9469215083853 194.47149186678882,347.8098251797188 218.56119130595528,347.8098251797188" fill="#B28DFF" opacity="0.9560685367584547"/><circle cx="206.11977832444" cy="350.9103852677673" r="33.62189368455294" fill="#BFFCC6" opacity="0.9020275951372587"/><rect x="150" y="300" width="75" height="6" fill="#BFFCC6" opacity="0.6"/><rect x="225" y="300" width="75" height="75" fill="#C4FAF8"/><polygon points="248.0187213458208,294.3080502704522 270.48301189700516,326.39989391500126 248.0187213458208,358.4917375595503 225.55443079463646,326.39989391500126" fill="#FFABAB" opacity="0.9423602939780616"/><polygon points="256.9653421719397,295.5709948725165 273.82712770344324,319.6592599175215 256.9653421719397,343.74752496252654 240.1035566404362,319.6592599175215" fill="#FFC9DE" opacity="0.8133334160378823"/><rect x="225" y="300" width="75" height="6" fill="#FFB5E8" opacity="0.6"/><rect x="300" y="300" width="75" height="75" fill="#85E3FF"/><path d="M 355.90652527329814 323.25101361586763L 364.6619241308796 340.99138938436334L 384.23959114655577 343.83619092156664L 370.07305820992696 357.6451476568953L 373.4173229884611 377.1437074666306L 355.90652527329814 367.9377363097448L 338.3957275581352 377.1437074666306L 341.73999233666933 357.6451476568953L 327.5734594000405 343.83619092156664L 347.1511264157167 340.99138938436334 Z" fill="#C4FAF8" opacity="0.8570643306509891" transform="rotate(46.05507375954421 355.90652527329814 353.0421620784524)"/><polygon points="349.5378184479372,295.3037863930472 372.8405576580975,328.5934138361334 349.5378184479372,361.8830412792196 326.23507923777686,328.5934138361334" fill="#BFFCC6" opacity="0.9427513600526151"/><rect x="300" y="300" width="75" height="6" fill="#E7FFAC" opacity="0.6"/><rect x="375" y="300" width="75" height="75" fill="#E7FFAC"/><polygon points="407.8573322379297,320.7353139002739 377.82954641705936,372.746490264368 437.88511805880006,372.746490264368" fill="#FFB5E8" opacity="0.9722400666550919"/><circle cx="430.904418398116" cy="354.1603964749539" r="34.71927569409333" fill="#C4FAF8" opacity="0.819772255476458"/><rect x="450" y="300" width="75" height="75" fill="#85E3FF"/><path d="M 505.60367168886756 305.1404629654207L 513.1376936017531 320.4060587374435L 529.9842787429379 322.8540108487903L 517.7939752159027 334.73662000576394L 520.6717155146385 351.51513338543117L 505.60367168886756 343.59339394744876L 490.5356278630966 351.51513338543117L 493.41336816183235 334.73662000576394L 481.22306463479714 322.8540108487903L 498.0696497759821 320.4060587374435 Z" fill="#E7FFAC" opacity="0.8762889743672166" transform="rotate(298.86112703888733 505.60367168886756 330.77575028677273)"/><polygon points="509.56606688190533,284.3316642477091 477.8359704262104,339.29141561438627 541.2961633376002,339.29141561438627" fill="#E7FFAC" opacity="0.9997532011474264"/><rect x="450" y="300" width="6" height="75" fill="#BFFCC6" opacity="0.6"/><rect x="525" y="300" width="75" height="75" fill="#E7FFAC"/><polygon points="556.3378608302855,309.3299987938162 580.2661327572498,343.51324440376516 556.3378608302855,377.69649001371414 532.4095889033213,343.51324440376516" fill="#C4FAF8" opacity="0.8128412485648138"/><rect x="529.1885180400864" y="297.60570169914547" width="69.0256867774416" height="48.31798074420912" fill="#FFABAB" opacity="0.8805380226022275" rx="4" transform="rotate(22.64134706121001 563.7013614288072 321.76469207125)"/><rect x="525" y="300" width="75" height="6" fill="#B28DFF" opacity="0.6"/><rect x="525" y="300" width="6" height="75" fill="#B28DFF" opacity="0.6"/><rect x="0" y="375" width="75" height="75" fill="#FFC9DE"/><circle cx="59.0863336828008" cy="412.47354270074214" r="24.596287614361515" fill="#FFC9DE" opacity="0.8685095310995865"/><polygon points="56.03646220687612,367.4347799591184 78.87917464226678,400.06722629539075 56.03646220687612,432.69967263166313 33.19374977148545,400.06722629539075" fill="#FFB5E8" opacity="0.7598107576648754"/><rect x="0" y="375" width="6" height="75" fill="#FFABAB" opacity="0.6"/><rect x="75" y="375" width="75" height="75" fill="#FFB5E8"/><rect x="93.30382616005551" y="406.96369038188766" width="23.505851626864562" height="16.45409613880519" fill="#FFABAB" opacity="0.7939230282296998" rx="4" transform="rotate(8.966592554453104 105.05675197348779 415.19073845129026)"/><rect x="68.60165655140376" y="388.7875960202248" width="48.80016804966152" height="34.16011763476306" fill="#E7FFAC" opacity="0.8305656433713462" rx="4" transform="rotate(39.96336938811623 93.00174057623452 405.8676548376063)"/><rect x="75" y="375" width="75" height="6" fill="#B28DFF" opacity="0.6"/><rect x="75" y="375" width="6" height="75" fill="#B28DFF" opacity="0.6"/><rect x="150" y="375" width="75" height="75" fill="#FFC9DE"/><circle cx="208.78347993073217" cy="430.21596910442037" r="13.29842805957814" fill="#C4FAF8" opacity="0.839746102755771"/><rect x="156.27861265210836" y="375.0997905661235" width="59.730508866361575" height="41.8113562064531" fill="#B28DFF" opacity="0.8228945255851813" rx="4" transform="rotate(37.07111121950257 186.14386708528914 396.00546866935)"/><rect x="150" y="375" width="75" height="6" fill="#E7FFAC" opacity="0.6"/><rect x="225" y="375" width="75" height="75" fill="#B28DFF"/><polygon points="271.47843719994574,360.0336081819998 243.15480882790743,409.09301067398303 299.80206557198403,409.09301067398303" fill="#85E3FF" opacity="0.9968097092103259"/><path d="M 245.726301672741 367.9811483804281L 252.31397558012924 381.3292336542571L 267.044462250651 383.4696986591271L 256.385381961696 393.8597340479554L 258.9016494875175 408.5306994465237L 245.726301672741 401.6040091873049L 232.5509538579645 408.5306994465237L 235.06722138378598 393.8597340479554L 224.40814109483097 383.4696986591271L 239.13862776535274 381.3292336542571 Z" fill="#BFFCC6" opacity="0.7651090860670009" transform="rotate(35.39650084236474 245.726301672741 390.39638891834596)"/><rect x="225" y="375" width="6" height="75" fill="#85E3FF" opacity="0.6"/><rect x="300" y="375" width="75" height="75" fill="#C4FAF8"/><polygon points="346.3270104077305,373.4783336495647 319.8028705873272,419.42083911215695 372.85115022813375,419.42083911215695" fill="#E7FFAC" opacity="0.7402269125172062"/><polygon points="333.0758625353109,382.4307404475662 309.2428112009845,423.7120071929353 356.9089138696373,423.7120071929353" fill="#85E3FF" opacity="0.9200763584208098"/><rect x="300" y="375" width="6" height="75" fill="#B28DFF" opacity="0.6"/><rect x="375" y="375" width="75" height="75" fill="#B28DFF"/><circle cx="405.05373851165814" cy="424.12305773893513" r="24.897543049253308" fill="#BFFCC6" opacity="0.7529368996866684"/><polygon points="411.3179075817195,392.2337374153937 435.6363198634988,426.97432638936414 411.3179075817195,461.71491536333457 386.99949529994024,426.97432638936414" fill="#C4FAF8" opacity="0.8398222685511327"/><rect x="375" y="375" width="75" height="6" fill="#B28DFF" opacity="0.6"/><rect x="375" y="375" width="6" height="75" fill="#B28DFF" opacity="0.6"/><rect x="450" y="375" width="75" height="75" fill="#C4FAF8"/><rect x="469.55168098947115" y="408.3095257702211" width="52.94495166765756" height="37.061466167360294" fill="#FFABAB" opacity="0.7594515562334337" rx="4" transform="rotate(1.8031002589515877 496.0241568232999 426.8402588539013)"/><path d="M 492.85371602878615 361.992616310363L 502.07047260147675 380.66780491410077L 522.6797668300809 383.66251065995203L 507.7667414294335 398.1991177092279L 511.28722917416735 418.72513625020633L 492.85371602878615 409.03406488402237L 474.42020288340495 418.72513625020633L 477.9406906281388 398.1991177092279L 463.0276652274914 383.66251065995203L 483.63695945609555 380.66780491410077 Z" fill="#FFB5E8" opacity="0.8136411190562141" transform="rotate(334.7975350985292 492.85371602878615 393.35358202613594)"/><rect x="525" y="375" width="75" height="75" fill="#B28DFF"/><rect x="551.8745389688409" y="387.9515764591408" width="39.20176953855053" height="27.441238676985368" fill="#E7FFAC" opacity="0.9896284700788689" rx="4" transform="rotate(10.38454235083635 571.4754237381161 401.6721957976335)"/><circle cx="582.3235242265852" cy="394.4152915498313" r="19.469116222215405" fill="#B28DFF" opacity="0.913350236515212"/><rect x="525" y="375" width="6" height="75" fill="#FFB5E8" opacity="0.6"/>
  <text x="300" y="234.45" text-anchor="middle" font-family="Georgia, serif" font-size="27" font-weight="bold" fill="#000" opacity="0.5" transform="translate(2, 2)">Be incredible.</text><text x="300" y="234.45" text-anchor="middle" font-family="Georgia, serif" font-size="27" font-weight="bold" fill="#FFFFFF" stroke="#000" stroke-width="1">Be incredible.</text>
</svg>